<svg width="110" height="110" fill="none" xmlns="http://www.w3.org/2000/svg"><g clip-path="url(#clip0_222_4149)"><path d="M86.136 25.032v-.006a7.115 7.115 0 00-6.436-5.221 6.17 6.17 0 00-.855.1l1.48-2.306a.918.918 0 000-.92.92.92 0 00-.79-.487c-.267 0-2.758 0-6.876 3.677-7.52 6.757-15.683 1.673-16.023 1.453a.92.92 0 00-1.232.275.92.92 0 00.276 1.269c.092.064 9.67 6.076 18.238-1.627a17.032 17.032 0 013.475-2.5l-1.296 2.068a.92.92 0 001.02 1.388c.854-.26 1.727-.454 2.61-.58a5.314 5.314 0 014.597 3.816c.1.424.484.72.92.707.07.01.14.01.21 0a.92.92 0 00.682-1.107z" fill="#00BF80"/><path d="M86.136 25.032v-.006a7.115 7.115 0 00-6.436-5.221 6.17 6.17 0 00-.855.1l1.48-2.306a.918.918 0 000-.92.92.92 0 00-.79-.487c-.267 0-2.758 0-6.876 3.677-7.52 6.757-15.683 1.673-16.023 1.453a.92.92 0 00-1.232.275.92.92 0 00.276 1.269c.092.064 9.67 6.076 18.238-1.627a17.032 17.032 0 013.475-2.5l-1.296 2.068a.92.92 0 001.02 1.388c.854-.26 1.727-.454 2.61-.58a5.314 5.314 0 014.597 3.816c.1.424.484.72.92.707.07.01.14.01.21 0a.92.92 0 00.682-1.107z" fill="#000" fill-opacity=".2"/><path d="M66.14 33.068a4.641 4.641 0 00-2.849-.846 4.687 4.687 0 00-2.859.846.92.92 0 101.13 1.443 2.94 2.94 0 011.73-.45 2.905 2.905 0 011.718.45.92.92 0 001.291-.15l.005-.006a.92.92 0 00-.165-1.287z" fill="#00BF80"/><path d="M66.14 33.068a4.641 4.641 0 00-2.849-.846 4.687 4.687 0 00-2.859.846.92.92 0 101.13 1.443 2.94 2.94 0 011.73-.45 2.905 2.905 0 011.718.45.92.92 0 001.291-.15l.005-.006a.92.92 0 00-.165-1.287z" fill="#000" fill-opacity=".2"/><path d="M80.195 33.152a.904.904 0 00-.107-.084 4.687 4.687 0 00-2.86-.846 4.641 4.641 0 00-2.849.846.92.92 0 00-.166 1.287.92.92 0 001.297.156 2.905 2.905 0 011.719-.45 2.94 2.94 0 011.728.45.92.92 0 101.238-1.359z" fill="#00BF80"/><path d="M80.195 33.152a.904.904 0 00-.107-.084 4.687 4.687 0 00-2.86-.846 4.641 4.641 0 00-2.849.846.92.92 0 00-.166 1.287.92.92 0 001.297.156 2.905 2.905 0 011.719-.45 2.94 2.94 0 011.728.45.92.92 0 101.238-1.359z" fill="#000" fill-opacity=".2"/><path d="M46.68 23.371H30.536a.92.92 0 000 1.839H46.68a.92.92 0 100-1.839z" fill="#00BF80"/><path d="M46.68 23.371H30.536a.92.92 0 000 1.839H46.68a.92.92 0 100-1.839z" fill="#000" fill-opacity=".2"/><path d="M46.68 29.383H30.538a.92.92 0 000 1.838H46.68a.92.92 0 100-1.838z" fill="#00BF80"/><path d="M46.68 29.383H30.538a.92.92 0 000 1.838H46.68a.92.92 0 100-1.838z" fill="#000" fill-opacity=".2"/><path d="M104.815 69.516l-17.686-7.354-3.678-6.278v-.055a.443.443 0 00-.1-.083.523.523 0 00-.13-.12 1.403 1.403 0 00-.165-.082l-.156-.056h-.368a.974.974 0 00-.174.056h-.12L70.49 64.369l-11.666-8.761h-.12a.677.677 0 00-.174-.064h-.35l-.165.064a.596.596 0 00-.156.074.8.8 0 00-.138.119.75.75 0 00-.092.083v.055l-3.677 6.25-6.435 2.64a.92.92 0 00-.69-.323H30.539a.92.92 0 000 1.839h13.183l-7.152 2.877-.138.074c-.55.341-1.066.732-1.544 1.167h-4.349a.92.92 0 000 1.839h2.758a10.562 10.562 0 00-1.912 6.076v5.782H1.793V14.351h11.573a.92.92 0 00.92-.92V1.85h44.933v5.332a.919.919 0 00.203.551 21.64 21.64 0 00-8.917 17.954 24.47 24.47 0 00.92 6.701 6.435 6.435 0 001.838 10.93c2.978 8.44 9.597 13.863 16.97 13.863 7.372 0 14-5.424 16.987-13.863a6.435 6.435 0 001.839-10.93 24.47 24.47 0 00.92-6.701c0-11.95-8.66-21.346-19.728-21.346a18.797 18.797 0 00-9.193 2.372V.93a.92.92 0 00-.92-.92H13.312a.684.684 0 00-.239 0h-.092a.827.827 0 00-.257.184L.22 12.761c-.072.08-.13.169-.175.266v.083c-.024.081-.04.164-.046.248v71.703A.92.92 0 00.874 86h30.5v4.78a.92.92 0 001.84 0v-12.4a8.853 8.853 0 014.127-7.484l16.547-6.793 9.018 9.827c.175.19.422.296.68.294a.92.92 0 00.68-.312l1.885-2.124V90.78a.92.92 0 001.838 0V69.756l2.5-2.823L73 69.755v21.052a.92.92 0 001.839 0v-19.01l1.839 2.114a.92.92 0 00.68.312.92.92 0 00.67-.294l9.102-9.809 16.914 7.097c3.585 1.839 4.118 5.516 4.118 7.492v12.07a.92.92 0 001.839 0V78.71c0-4.2-1.839-7.446-5.185-9.193zM70.269 6.18c10.03 0 17.852 8.567 17.852 19.507a22.42 22.42 0 01-.992 6.775.92.92 0 00.367 1.038 4.597 4.597 0 012.014 3.816 4.523 4.523 0 01-3.218 4.384.92.92 0 00-.625.589C83.01 50.22 76.97 55.34 70.269 55.34c-6.701 0-12.732-5.12-15.388-13.053a.92.92 0 00-.626-.589 4.523 4.523 0 01-3.226-4.384 4.597 4.597 0 012.013-3.816.92.92 0 00.368-1.038 22.702 22.702 0 01-1.03-6.775c0-10.94 7.86-19.507 17.89-19.507zM12.447 3.154v9.359H3.09l9.358-9.359zm51.12 68.78l-8.144-8.88 3.125-5.35 10.59 7.942-5.57 6.288zm13.845 0l-5.57-6.288 10.59-7.942 3.125 5.35-8.145 8.88z" fill="#00BF80"/><path d="M104.815 69.516l-17.686-7.354-3.678-6.278v-.055a.443.443 0 00-.1-.083.523.523 0 00-.13-.12 1.403 1.403 0 00-.165-.082l-.156-.056h-.368a.974.974 0 00-.174.056h-.12L70.49 64.369l-11.666-8.761h-.12a.677.677 0 00-.174-.064h-.35l-.165.064a.596.596 0 00-.156.074.8.8 0 00-.138.119.75.75 0 00-.092.083v.055l-3.677 6.25-6.435 2.64a.92.92 0 00-.69-.323H30.539a.92.92 0 000 1.839h13.183l-7.152 2.877-.138.074c-.55.341-1.066.732-1.544 1.167h-4.349a.92.92 0 000 1.839h2.758a10.562 10.562 0 00-1.912 6.076v5.782H1.793V14.351h11.573a.92.92 0 00.92-.92V1.85h44.933v5.332a.919.919 0 00.203.551 21.64 21.64 0 00-8.917 17.954 24.47 24.47 0 00.92 6.701 6.435 6.435 0 001.838 10.93c2.978 8.44 9.597 13.863 16.97 13.863 7.372 0 14-5.424 16.987-13.863a6.435 6.435 0 001.839-10.93 24.47 24.47 0 00.92-6.701c0-11.95-8.66-21.346-19.728-21.346a18.797 18.797 0 00-9.193 2.372V.93a.92.92 0 00-.92-.92H13.312a.684.684 0 00-.239 0h-.092a.827.827 0 00-.257.184L.22 12.761c-.072.08-.13.169-.175.266v.083c-.024.081-.04.164-.046.248v71.703A.92.92 0 00.874 86h30.5v4.78a.92.92 0 001.84 0v-12.4a8.853 8.853 0 014.127-7.484l16.547-6.793 9.018 9.827c.175.19.422.296.68.294a.92.92 0 00.68-.312l1.885-2.124V90.78a.92.92 0 001.838 0V69.756l2.5-2.823L73 69.755v21.052a.92.92 0 001.839 0v-19.01l1.839 2.114a.92.92 0 00.68.312.92.92 0 00.67-.294l9.102-9.809 16.914 7.097c3.585 1.839 4.118 5.516 4.118 7.492v12.07a.92.92 0 001.839 0V78.71c0-4.2-1.839-7.446-5.185-9.193zM70.269 6.18c10.03 0 17.852 8.567 17.852 19.507a22.42 22.42 0 01-.992 6.775.92.92 0 00.367 1.038 4.597 4.597 0 012.014 3.816 4.523 4.523 0 01-3.218 4.384.92.92 0 00-.625.589C83.01 50.22 76.97 55.34 70.269 55.34c-6.701 0-12.732-5.12-15.388-13.053a.92.92 0 00-.626-.589 4.523 4.523 0 01-3.226-4.384 4.597 4.597 0 012.013-3.816.92.92 0 00.368-1.038 22.702 22.702 0 01-1.03-6.775c0-10.94 7.86-19.507 17.89-19.507zM12.447 3.154v9.359H3.09l9.358-9.359zm51.12 68.78l-8.144-8.88 3.125-5.35 10.59 7.942-5.57 6.288zm13.845 0l-5.57-6.288 10.59-7.942 3.125 5.35-8.145 8.88z" fill="#000" fill-opacity=".2"/><path d="M23.698 24.83a.92.92 0 00-.745-.625l-4.532-.662-2.031-4.11a.92.92 0 00-1.655 0l-2.031 4.11-4.533.662a.92.92 0 00-.744.625.92.92 0 00.23.92l3.29 3.198-.78 4.523a.92.92 0 00.367.92.92.92 0 00.92.064l4.062-2.133 4.064 2.133c.129.073.274.11.423.11a.92.92 0 00.542-.175.92.92 0 00.368-.919l-.782-4.523 3.291-3.199a.92.92 0 00.276-.92zm-5.148 3.162a.92.92 0 00-.267.818l.543 3.163-2.84-1.499a.918.918 0 00-.424-.101c-.15.002-.297.036-.432.101l-2.794 1.499.542-3.163a.92.92 0 00-.266-.818l-2.299-2.234 3.172-.46a.919.919 0 00.699-.505l1.415-2.84 1.416 2.877a.919.919 0 00.698.505l3.172.46-2.335 2.197z" fill="#00BF80"/><path d="M23.698 24.83a.92.92 0 00-.745-.625l-4.532-.662-2.031-4.11a.92.92 0 00-1.655 0l-2.031 4.11-4.533.662a.92.92 0 00-.744.625.92.92 0 00.23.92l3.29 3.198-.78 4.523a.92.92 0 00.367.92.92.92 0 00.92.064l4.062-2.133 4.064 2.133c.129.073.274.11.423.11a.92.92 0 00.542-.175.92.92 0 00.368-.919l-.782-4.523 3.291-3.199a.92.92 0 00.276-.92zm-5.148 3.162a.92.92 0 00-.267.818l.543 3.163-2.84-1.499a.918.918 0 00-.424-.101c-.15.002-.297.036-.432.101l-2.794 1.499.542-3.163a.92.92 0 00-.266-.818l-2.299-2.234 3.172-.46a.919.919 0 00.699-.505l1.415-2.84 1.416 2.877a.919.919 0 00.698.505l3.172.46-2.335 2.197z" fill="#000" fill-opacity=".2"/><path d="M46.68 43.905H30.538a.92.92 0 000 1.839H46.68a.92.92 0 100-1.839z" fill="#00BF80"/><path d="M46.68 43.905H30.538a.92.92 0 000 1.839H46.68a.92.92 0 100-1.839z" fill="#000" fill-opacity=".2"/><path d="M46.68 49.918H30.538a.92.92 0 000 1.839H46.68a.92.92 0 000-1.839z" fill="#00BF80"/><path d="M46.68 49.918H30.538a.92.92 0 000 1.839H46.68a.92.92 0 000-1.839z" fill="#000" fill-opacity=".2"/><path d="M23.7 45.369a.92.92 0 00-.745-.625l-4.532-.662-1.995-4.11a.92.92 0 00-1.654 0l-2.032 4.11-4.532.662a.92.92 0 00-.515 1.572l3.291 3.217-.781 4.523a.92.92 0 00.368.92.92.92 0 00.919.063l4.063-2.132 4.11 2.142c.128.072.274.11.422.11a.92.92 0 00.543-.175.92.92 0 00.367-.919l-.781-4.532 3.29-3.199a.92.92 0 00.194-.965zm-5.148 3.171a.92.92 0 00-.267.81l.543 3.161-2.84-1.489a.853.853 0 00-.424-.11.921.921 0 00-.432.11l-2.831 1.49.542-3.163a.92.92 0 00-.266-.809l-2.299-2.243 3.172-.46a.919.919 0 00.699-.505l1.415-2.877 1.416 2.877a.919.919 0 00.699.506l3.171.46-2.298 2.242z" fill="#00BF80"/><path d="M23.7 45.369a.92.92 0 00-.745-.625l-4.532-.662-1.995-4.11a.92.92 0 00-1.654 0l-2.032 4.11-4.532.662a.92.92 0 00-.515 1.572l3.291 3.217-.781 4.523a.92.92 0 00.368.92.92.92 0 00.919.063l4.063-2.132 4.11 2.142c.128.072.274.11.422.11a.92.92 0 00.543-.175.92.92 0 00.367-.919l-.781-4.532 3.29-3.199a.92.92 0 00.194-.965zm-5.148 3.171a.92.92 0 00-.267.81l.543 3.161-2.84-1.489a.853.853 0 00-.424-.11.921.921 0 00-.432.11l-2.831 1.49.542-3.163a.92.92 0 00-.266-.809l-2.299-2.243 3.172-.46a.919.919 0 00.699-.505l1.415-2.877 1.416 2.877a.919.919 0 00.699.506l3.171.46-2.298 2.242z" fill="#000" fill-opacity=".2"/><path d="M23.699 65.903a.92.92 0 00-.745-.625l-4.532-.653-2.031-4.118a.92.92 0 00-1.655 0l-2.032 4.118-4.532.653a.92.92 0 00-.514 1.572l3.29 3.199-.78 4.523a.92.92 0 00.367.92.92.92 0 00.92.073l4.145-2.133 4.063 2.142a.902.902 0 00.423.1.92.92 0 00.543-.174.92.92 0 00.367-.919l-.781-4.523 3.29-3.199a.92.92 0 00.194-.956zm-5.148 3.172a.92.92 0 00-.267.808l.543 3.163-2.804-1.453a.853.853 0 00-.423-.11c-.15 0-.3.039-.432.11l-2.831 1.49.542-3.163a.92.92 0 00-.267-.809l-2.298-2.243 3.172-.46a.92.92 0 00.698-.505l1.416-2.877 1.416 2.877a.92.92 0 00.698.506l3.172.46-2.335 2.206z" fill="#00BF80"/><path d="M23.699 65.903a.92.92 0 00-.745-.625l-4.532-.653-2.031-4.118a.92.92 0 00-1.655 0l-2.032 4.118-4.532.653a.92.92 0 00-.514 1.572l3.29 3.199-.78 4.523a.92.92 0 00.367.92.92.92 0 00.92.073l4.145-2.133 4.063 2.142a.902.902 0 00.423.1.92.92 0 00.543-.174.92.92 0 00.367-.919l-.781-4.523 3.29-3.199a.92.92 0 00.194-.956zm-5.148 3.172a.92.92 0 00-.267.808l.543 3.163-2.804-1.453a.853.853 0 00-.423-.11c-.15 0-.3.039-.432.11l-2.831 1.49.542-3.163a.92.92 0 00-.267-.809l-2.298-2.243 3.172-.46a.92.92 0 00.698-.505l1.416-2.877 1.416 2.877a.92.92 0 00.698.506l3.172.46-2.335 2.206z" fill="#000" fill-opacity=".2"/><path d="M97.032 82.796c.894-3.116-.29-8.902-6.708-8.902-3.088 0-6.707 3.157-6.707 6.232 0 4.451 2.278 7.567 5.366 7.567 3.088 0 8.049-1.822 8.049-4.897zm-6.72 2.671c-2.796 0-4.46-1.793-4.46-4.576 0-2.784 1.664-4.772 4.46-4.772 2.796 0 4.484 1.988 4.484 4.772 0 2.783-1.688 4.576-4.484 4.576z" fill="#00BF80"/><path d="M97.032 82.796c.894-3.116-.29-8.902-6.708-8.902-3.088 0-6.707 3.157-6.707 6.232 0 4.451 2.278 7.567 5.366 7.567 3.088 0 8.049-1.822 8.049-4.897zm-6.72 2.671c-2.796 0-4.46-1.793-4.46-4.576 0-2.784 1.664-4.772 4.46-4.772 2.796 0 4.484 1.988 4.484 4.772 0 2.783-1.688 4.576-4.484 4.576z" fill="#000" fill-opacity=".2"/><path d="M100.099 89.855L97.103 84.7l.046-1.59 1.43-2.066a.277.277 0 000-.305l-1.43-2.065-.061-2.509a.262.262 0 00-.184-.244l-2.367-.826-1.52-1.989c-.062-.091-.185-.122-.292-.091l-2.413.718-2.412-.719a.271.271 0 00-.292.092l-1.521 1.989-2.366.826c-.108.03-.17.137-.184.244l-.062 2.509-1.429 2.065a.277.277 0 000 .305l1.43 2.065.045 1.591-2.996 5.155a.263.263 0 00.246.397c.261-.015-.968.061 2.612-.153l1.168 2.325a.274.274 0 00.476.015l2.366-4.068.23.306c.062.092.185.122.292.092l2.397-.72 2.413.72a.27.27 0 00.291-.092l.23-.306 2.367 4.069c.108.183.384.183.476-.016l1.168-2.325c.061 0 2.52.153 2.612.153.2.016.338-.214.23-.397zm-2.996-.306c-.107 0-.215.046-.26.153l-.185.367-1.998-3.442c.016 0-.502 1.112.45.776l1.548 2.85.445-.704zm-13.551-3.855c.03.077.092.123.169.153l.768.276-2.028 3.487-1.23.076 2.32-3.992zm2.412.949l-1.997 3.441c.138 0-.046-.092 0 0l.545-.61 1.575-2.831h-.123zm-1.152 5.093l-.553-1.086 2.09-3.61.675.872-2.212 3.824zm7.16-5.265l-1.583 1.043a.263.263 0 00-.154 0l-1.698-1.043-2.066-.18a.239.239 0 00-.123-.092l-.261-1.743-2.022-1.215c0-.046-.067-.33-.098-.361l.292-1.988.253-1.657c.03-.046.538-.308 0-.445l1.452-1.336 1.231-1.335c.046-.015-.03-.4 0-.445l1.342-.445 1.698-.945a.263.263 0 00.154 0l1.582 1.208h2.182a.239.239 0 00.123.092l.52 1.87 1.816 1.327c0 .046.015.107.046.137l.246 1.974-.246 1.973a.245.245 0 00-.046.137c-.016.398-1.905-.488-1.952 1.454 0 0-.476 1.774-.384 1.743a.239.239 0 00-.123.092c-.061.092-2.182.18-2.182.18zm3.84 5.265l-2.227-3.824c.015-.015.722-.933.676-.872l2.09 3.61-.538 1.086zm2.352-2.126l-2.029-3.487.769-.276a.332.332 0 00.169-.153l2.32 3.992-1.23-.076z" fill="#00BF80"/><path d="M100.099 89.855L97.103 84.7l.046-1.59 1.43-2.066a.277.277 0 000-.305l-1.43-2.065-.061-2.509a.262.262 0 00-.184-.244l-2.367-.826-1.52-1.989c-.062-.091-.185-.122-.292-.091l-2.413.718-2.412-.719a.271.271 0 00-.292.092l-1.521 1.989-2.366.826c-.108.03-.17.137-.184.244l-.062 2.509-1.429 2.065a.277.277 0 000 .305l1.43 2.065.045 1.591-2.996 5.155a.263.263 0 00.246.397c.261-.015-.968.061 2.612-.153l1.168 2.325a.274.274 0 00.476.015l2.366-4.068.23.306c.062.092.185.122.292.092l2.397-.72 2.413.72a.27.27 0 00.291-.092l.23-.306 2.367 4.069c.108.183.384.183.476-.016l1.168-2.325c.061 0 2.52.153 2.612.153.2.016.338-.214.23-.397zm-2.996-.306c-.107 0-.215.046-.26.153l-.185.367-1.998-3.442c.016 0-.502 1.112.45.776l1.548 2.85.445-.704zm-13.551-3.855c.03.077.092.123.169.153l.768.276-2.028 3.487-1.23.076 2.32-3.992zm2.412.949l-1.997 3.441c.138 0-.046-.092 0 0l.545-.61 1.575-2.831h-.123zm-1.152 5.093l-.553-1.086 2.09-3.61.675.872-2.212 3.824zm7.16-5.265l-1.583 1.043a.263.263 0 00-.154 0l-1.698-1.043-2.066-.18a.239.239 0 00-.123-.092l-.261-1.743-2.022-1.215c0-.046-.067-.33-.098-.361l.292-1.988.253-1.657c.03-.046.538-.308 0-.445l1.452-1.336 1.231-1.335c.046-.015-.03-.4 0-.445l1.342-.445 1.698-.945a.263.263 0 00.154 0l1.582 1.208h2.182a.239.239 0 00.123.092l.52 1.87 1.816 1.327c0 .046.015.107.046.137l.246 1.974-.246 1.973a.245.245 0 00-.046.137c-.016.398-1.905-.488-1.952 1.454 0 0-.476 1.774-.384 1.743a.239.239 0 00-.123.092c-.061.092-2.182.18-2.182.18zm3.84 5.265l-2.227-3.824c.015-.015.722-.933.676-.872l2.09 3.61-.538 1.086zm2.352-2.126l-2.029-3.487.769-.276a.332.332 0 00.169-.153l2.32 3.992-1.23-.076z" fill="#000" fill-opacity=".2"/></g><defs><clipPath id="clip0_222_4149"><path fill="#fff" d="M0 0h110v110H0z"/></clipPath></defs></svg>