<svg width="110" height="110" fill="none" xmlns="http://www.w3.org/2000/svg"><path d="M102.359 95.478V57.445a2 2 0 00-2-2H43.546a2 2 0 00-2 2v38.033a2 2 0 002 2h56.813a2 2 0 002-2z" stroke="#00BF80" stroke-width="2" stroke-linecap="round"/><path d="M102.359 95.478V57.445a2 2 0 00-2-2H43.546a2 2 0 00-2 2v38.033a2 2 0 002 2h56.813a2 2 0 002-2z" stroke="#000" stroke-opacity=".2" stroke-width="2" stroke-linecap="round"/><path d="M11.348 96.614l35.85-48.886a2 2 0 00-.45-2.81l-3.697-2.64a2 2 0 00-2.768.434L4.035 91.51a2 2 0 00.496 2.856l4.095 2.73a2 2 0 002.722-.481z" stroke="#00BF80" stroke-width="2" stroke-linecap="round"/><path d="M11.348 96.614l35.85-48.886a2 2 0 00-.45-2.81l-3.697-2.64a2 2 0 00-2.768.434L4.035 91.51a2 2 0 00.496 2.856l4.095 2.73a2 2 0 002.722-.481z" stroke="#000" stroke-opacity=".2" stroke-width="2" stroke-linecap="round"/><path d="M18.647 71.382l-6.626 8.696a2 2 0 01-2.92.283l-5.18-4.605a2 2 0 01.376-3.254l9.391-5.087m4.959 3.967l4.958-6.942m-4.958 6.942l-4.959-3.967m0 0l4.959-6.445m0 0l1.887-10.572c.267-1.493 2.034-2.158 3.219-1.21l5.737 4.59a2 2 0 01.32 2.801l-6.205 7.861m-4.958-3.47l4.958 3.47" stroke="#00BF80" stroke-width="2" stroke-linecap="round"/><path d="M18.647 71.382l-6.626 8.696a2 2 0 01-2.92.283l-5.18-4.605a2 2 0 01.376-3.254l9.391-5.087m4.959 3.967l4.958-6.942m-4.958 6.942l-4.959-3.967m0 0l4.959-6.445m0 0l1.887-10.572c.267-1.493 2.034-2.158 3.219-1.21l5.737 4.59a2 2 0 01.32 2.801l-6.205 7.861m-4.958-3.47l4.958 3.47" stroke="#000" stroke-opacity=".2" stroke-width="2" stroke-linecap="round"/><path d="M68 58v36a2 2 0 002 2h4a2 2 0 002-2V58a2 2 0 00-2-2h-4a2 2 0 00-2 2z" stroke="#00BF80" stroke-width="2" stroke-linecap="round"/><path d="M68 58v36a2 2 0 002 2h4a2 2 0 002-2V58a2 2 0 00-2-2h-4a2 2 0 00-2 2z" stroke="#000" stroke-opacity=".2" stroke-width="2" stroke-linecap="round"/><path d="M86.764 28.197l-1.247-1.247a.77.77 0 00-1.09 1.089l.005.004 1.247 1.24a.77.77 0 001.085 0 .77.77 0 000-1.086z" fill="#00BF80"/><path d="M86.764 28.197l-1.247-1.247a.77.77 0 00-1.09 1.089l.005.004 1.247 1.24a.77.77 0 001.085 0 .77.77 0 000-1.086z" fill="#000" fill-opacity=".2"/><path d="M91.744 33.209l-1.239-1.24a.77.77 0 00-1.092 1.086l1.246 1.239a.77.77 0 001.085 0 .77.77 0 000-1.085z" fill="#00BF80"/><path d="M91.744 33.209l-1.239-1.24a.77.77 0 00-1.092 1.086l1.246 1.239a.77.77 0 001.085 0 .77.77 0 000-1.085z" fill="#000" fill-opacity=".2"/><path d="M86.764 31.97a.77.77 0 00-1.085 0l-1.247 1.239a.788.788 0 000 1.054.77.77 0 001.085 0l1.247-1.208a.77.77 0 000-1.085z" fill="#00BF80"/><path d="M86.764 31.97a.77.77 0 00-1.085 0l-1.247 1.239a.788.788 0 000 1.054.77.77 0 001.085 0l1.247-1.208a.77.77 0 000-1.085z" fill="#000" fill-opacity=".2"/><path d="M91.749 26.955l-.004-.005a.77.77 0 00-1.086 0l-1.246 1.247a.77.77 0 000 1.085.77.77 0 00.546.223.77.77 0 00.547-.223l1.239-1.239a.77.77 0 00.004-1.088z" fill="#00BF80"/><path d="M91.749 26.955l-.004-.005a.77.77 0 00-1.086 0l-1.246 1.247a.77.77 0 000 1.085.77.77 0 00.546.223.77.77 0 00.547-.223l1.239-1.239a.77.77 0 00.004-1.088z" fill="#000" fill-opacity=".2"/><path d="M26.21 16.494l-1.24-1.247a.77.77 0 00-1.085 0 .77.77 0 000 1.085l1.24 1.247a.77.77 0 001.084 0 .77.77 0 000-1.085z" fill="#00BF80"/><path d="M26.21 16.494l-1.24-1.247a.77.77 0 00-1.085 0 .77.77 0 000 1.085l1.24 1.247a.77.77 0 001.084 0 .77.77 0 000-1.085z" fill="#000" fill-opacity=".2"/><path d="M31.196 21.509l-1.247-1.247a.77.77 0 00-1.085 0 .771.771 0 000 1.054l1.24 1.24a.77.77 0 001.092-1.047z" fill="#00BF80"/><path d="M31.196 21.509l-1.247-1.247a.77.77 0 00-1.085 0 .771.771 0 000 1.054l1.24 1.24a.77.77 0 001.092-1.047z" fill="#000" fill-opacity=".2"/><path d="M26.22 20.23a.77.77 0 00-1.089-.003l-1.223 1.285a.77.77 0 00.538 1.316.77.77 0 00.524-.27l1.246-1.238a.77.77 0 00.004-1.09z" fill="#00BF80"/><path d="M26.22 20.23a.77.77 0 00-1.089-.003l-1.223 1.285a.77.77 0 00.538 1.316.77.77 0 00.524-.27l1.246-1.238a.77.77 0 00.004-1.09z" fill="#000" fill-opacity=".2"/><path d="M31.194 15.251a.77.77 0 00-1.089-.004l-.004.004-1.239 1.247a.77.77 0 000 1.085.77.77 0 001.085 0l1.247-1.247a.77.77 0 000-1.085z" fill="#00BF80"/><path d="M31.194 15.251a.77.77 0 00-1.089-.004l-.004.004-1.239 1.247a.77.77 0 000 1.085.77.77 0 001.085 0l1.247-1.247a.77.77 0 000-1.085z" fill="#000" fill-opacity=".2"/><path d="M75.68 17.114a.77.77 0 00-.981.55l-2.309 8.464a.77.77 0 00.54.945l.006.002h.2a.77.77 0 00.77-.57l2.332-8.457a.77.77 0 00-.558-.934z" fill="#00BF80"/><path d="M75.68 17.114a.77.77 0 00-.981.55l-2.309 8.464a.77.77 0 00.54.945l.006.002h.2a.77.77 0 00.77-.57l2.332-8.457a.77.77 0 00-.558-.934z" fill="#000" fill-opacity=".2"/><path d="M78.69 5.932a.77.77 0 00-.976.562l-1.323 4.94a.77.77 0 00.538.94c.065.02.132.03.2.03a.77.77 0 00.77-.57l1.3-4.94a.77.77 0 00-.51-.962z" fill="#00BF80"/><path d="M78.69 5.932a.77.77 0 00-.976.562l-1.323 4.94a.77.77 0 00.538.94c.065.02.132.03.2.03a.77.77 0 00.77-.57l1.3-4.94a.77.77 0 00-.51-.962z" fill="#000" fill-opacity=".2"/><path d="M32.802 35.945l-4.24-1.131a.77.77 0 00-.947.585.77.77 0 00.54.945c.002 0 .004 0 .006.002l4.248 1.138a.827.827 0 00.2 0 .776.776 0 00.193-1.539z" fill="#00BF80"/><path d="M32.802 35.945l-4.24-1.131a.77.77 0 00-.947.585.77.77 0 00.54.945c.002 0 .004 0 .006.002l4.248 1.138a.827.827 0 00.2 0 .776.776 0 00.193-1.539z" fill="#000" fill-opacity=".2"/><path d="M60.154 40.856L40.23 29.313a.77.77 0 00-1.053.275l-.001.002a.77.77 0 00.28 1.051l.004.003 19.924 11.544c.118.066.25.1.385.1a.77.77 0 00.67-.385.77.77 0 00-.285-1.047z" fill="#00BF80"/><path d="M60.154 40.856L40.23 29.313a.77.77 0 00-1.053.275l-.001.002a.77.77 0 00.28 1.051l.004.003 19.924 11.544c.118.066.25.1.385.1a.77.77 0 00.67-.385.77.77 0 00-.285-1.047z" fill="#000" fill-opacity=".2"/><path d="M86.859 13.367a.77.77 0 00-1.095.293l-11.89 20.593a.77.77 0 00.275 1.053l.002.002a.77.77 0 001.052-.28l.002-.005 11.89-20.594a.77.77 0 00-.236-1.062z" fill="#00BF80"/><path d="M86.859 13.367a.77.77 0 00-1.095.293l-11.89 20.593a.77.77 0 00.275 1.053l.002.002a.77.77 0 001.052-.28l.002-.005 11.89-20.594a.77.77 0 00-.236-1.062z" fill="#000" fill-opacity=".2"/><path d="M95.282 38.88a.77.77 0 00-.975-.561L75.86 43.252a.77.77 0 00-.548.94l.002.007a.77.77 0 00.77.569.575.575 0 00.2 0l18.423-4.964a.77.77 0 00.575-.924z" fill="#00BF80"/><path d="M95.282 38.88a.77.77 0 00-.975-.561L75.86 43.252a.77.77 0 00-.548.94l.002.007a.77.77 0 00.77.569.575.575 0 00.2 0l18.423-4.964a.77.77 0 00.575-.924z" fill="#000" fill-opacity=".2"/><path d="M108.123 35.408a.77.77 0 00-.91-.524l-5.11 1.362a.77.77 0 00-.57.924.77.77 0 00.77.57.892.892 0 00.2 0l5.11-1.37a.77.77 0 00.51-.962z" fill="#00BF80"/><path d="M108.123 35.408a.77.77 0 00-.91-.524l-5.11 1.362a.77.77 0 00-.57.924.77.77 0 00.77.57.892.892 0 00.2 0l5.11-1.37a.77.77 0 00.51-.962z" fill="#000" fill-opacity=".2"/><path d="M63.167 25.547a.793.793 0 00-.013-.05l-3.31-12.314a.77.77 0 00-.94-.548l-.006.002a.77.77 0 00-.539.939l3.256 12.32a.77.77 0 00.77.57.848.848 0 00.2 0 .77.77 0 00.582-.92z" fill="#00BF80"/><path d="M63.167 25.547a.793.793 0 00-.013-.05l-3.31-12.314a.77.77 0 00-.94-.548l-.006.002a.77.77 0 00-.539.939l3.256 12.32a.77.77 0 00.77.57.848.848 0 00.2 0 .77.77 0 00.582-.92z" fill="#000" fill-opacity=".2"/><path d="M54.301 31.531l-.004-.004L39.49 16.728a.77.77 0 00-1.085 1.085L53.204 32.62a.77.77 0 001.088.004l.005-.005a.77.77 0 00.004-1.088z" fill="#00BF80"/><path d="M54.301 31.531l-.004-.004L39.49 16.728a.77.77 0 00-1.085 1.085L53.204 32.62a.77.77 0 001.088.004l.005-.005a.77.77 0 00.004-1.088z" fill="#000" fill-opacity=".2"/><path d="M67.873 18.434a.77.77 0 00-.77.77v19.892a.77.77 0 101.54 0V19.203a.77.77 0 00-.77-.77z" fill="#00BF80"/><path d="M67.873 18.434a.77.77 0 00-.77.77v19.892a.77.77 0 101.54 0V19.203a.77.77 0 00-.77-.77z" fill="#000" fill-opacity=".2"/><path d="M67.872 4.52a.77.77 0 00-.77.77v9.797a.77.77 0 001.54 0V5.29a.77.77 0 00-.77-.77z" fill="#00BF80"/><path d="M67.872 4.52a.77.77 0 00-.77.77v9.797a.77.77 0 001.54 0V5.29a.77.77 0 00-.77-.77z" fill="#000" fill-opacity=".2"/><path d="M104.71 45.418H89.158a.77.77 0 000 1.539h15.552a.77.77 0 100-1.54z" fill="#00BF80"/><path d="M104.71 45.418H89.158a.77.77 0 000 1.539h15.552a.77.77 0 100-1.54z" fill="#000" fill-opacity=".2"/><path d="M51.958 8.32l2.27-4.324a.77.77 0 00-.046-.808.77.77 0 00-.77-.308l-4.802.823L45.201.21a.77.77 0 00-1.285.423l-.7 4.833-4.418 2.193a.77.77 0 000 1.377l4.387 2.163.73 4.81a.77.77 0 00.763.661.77.77 0 00.554-.23l3.409-3.502 4.817.823a.77.77 0 00.77-1.115l-2.27-4.325zm-3.486 3.033a.77.77 0 00-.685.223l-2.601 2.67-.54-3.694a.77.77 0 00-.422-.584l-3.34-1.655 3.34-1.647a.77.77 0 00.461-.546l.54-3.694 2.539 2.647a.77.77 0 00.684.216l3.679-.631-1.716 3.309a.77.77 0 000 .715l1.74 3.302-3.68-.631z" fill="#00BF80"/><path d="M51.958 8.32l2.27-4.324a.77.77 0 00-.046-.808.77.77 0 00-.77-.308l-4.802.823L45.201.21a.77.77 0 00-1.285.423l-.7 4.833-4.418 2.193a.77.77 0 000 1.377l4.387 2.163.73 4.81a.77.77 0 00.763.661.77.77 0 00.554-.23l3.409-3.502 4.817.823a.77.77 0 00.77-1.115l-2.27-4.325zm-3.486 3.033a.77.77 0 00-.685.223l-2.601 2.67-.54-3.694a.77.77 0 00-.422-.584l-3.34-1.655 3.34-1.647a.77.77 0 00.461-.546l.54-3.694 2.539 2.647a.77.77 0 00.684.216l3.679-.631-1.716 3.309a.77.77 0 000 .715l1.74 3.302-3.68-.631z" fill="#000" fill-opacity=".2"/><path d="M108.116 12.063a.768.768 0 00-.405-.287l.077.03-4.687-1.392-1.539-4.618a.77.77 0 00-.615-.523.77.77 0 00-.77.323l-2.77 4.025H92.52a.77.77 0 00-.693.43.77.77 0 00.077.809l2.97 3.848-1.538 4.617a.77.77 0 00.985.962l4.617-1.624 3.956 2.87a.765.765 0 00.446.147.863.863 0 00.362-.085.77.77 0 00.407-.7l-.123-4.887 3.956-2.87a.769.769 0 00.174-1.075zm-5.284 2.968a.77.77 0 00-.316.646l.093 3.725-3.017-2.193a.77.77 0 00-.708-.1l-3.517 1.239 1.154-3.548a.77.77 0 00-.123-.708l-2.308-2.963h3.732a.77.77 0 00.631-.33l2.124-3.08 1.147 3.549a.767.767 0 00.515.5l3.579 1.062-2.986 2.2z" fill="#00BF80"/><path d="M108.116 12.063a.768.768 0 00-.405-.287l.077.03-4.687-1.392-1.539-4.618a.77.77 0 00-.615-.523.77.77 0 00-.77.323l-2.77 4.025H92.52a.77.77 0 00-.693.43.77.77 0 00.077.809l2.97 3.848-1.538 4.617a.77.77 0 00.985.962l4.617-1.624 3.956 2.87a.765.765 0 00.446.147.863.863 0 00.362-.085.77.77 0 00.407-.7l-.123-4.887 3.956-2.87a.769.769 0 00.174-1.075zm-5.284 2.968a.77.77 0 00-.316.646l.093 3.725-3.017-2.193a.77.77 0 00-.708-.1l-3.517 1.239 1.154-3.548a.77.77 0 00-.123-.708l-2.308-2.963h3.732a.77.77 0 00.631-.33l2.124-3.08 1.147 3.549a.767.767 0 00.515.5l3.579 1.062-2.986 2.2z" fill="#000" fill-opacity=".2"/><path d="M63.964 37.887l-.003-.005-8.657-14.998a.77.77 0 00-1.332.77l8.658 14.998a.77.77 0 001.334-.765z" fill="#00BF80"/><path d="M63.964 37.887l-.003-.005-8.657-14.998a.77.77 0 00-1.332.77l8.658 14.998a.77.77 0 001.334-.765z" fill="#000" fill-opacity=".2"/><path d="M101.58 26.735l-.002-.005a.77.77 0 00-1.053-.278h-.002l-1.916 1.101a.77.77 0 10.77 1.331l1.916-1.1a.769.769 0 00.287-1.05z" fill="#00BF80"/><path d="M101.58 26.735l-.002-.005a.77.77 0 00-1.053-.278h-.002l-1.916 1.101a.77.77 0 10.77 1.331l1.916-1.1a.769.769 0 00.287-1.05z" fill="#000" fill-opacity=".2"/></svg>