<svg width="110" height="110" fill="none" xmlns="http://www.w3.org/2000/svg"><path d="M40.01 48.286a.977.977 0 00-.978.977v2.443a.977.977 0 001.954 0v-2.443a.977.977 0 00-.977-.977z" fill="#00BF80"/><path d="M40.01 48.286a.977.977 0 00-.978.977v2.443a.977.977 0 001.954 0v-2.443a.977.977 0 00-.977-.977z" fill="#000" fill-opacity=".2"/><path d="M40.008 39.98a.977.977 0 00-.977.978V43.4a.977.977 0 001.955 0v-2.443a.977.977 0 00-.977-.977z" fill="#00BF80"/><path d="M40.008 39.98a.977.977 0 00-.977.978V43.4a.977.977 0 001.955 0v-2.443a.977.977 0 00-.977-.977z" fill="#000" fill-opacity=".2"/><path d="M69.971 48.286a.977.977 0 00-.977.977v2.443a.977.977 0 001.954 0v-2.443a.977.977 0 00-.977-.977z" fill="#00BF80"/><path d="M69.971 48.286a.977.977 0 00-.977.977v2.443a.977.977 0 001.954 0v-2.443a.977.977 0 00-.977-.977z" fill="#000" fill-opacity=".2"/><path d="M69.971 39.98a.977.977 0 00-.977.978V43.4a.977.977 0 001.955 0v-2.443a.977.977 0 00-.978-.977z" fill="#00BF80"/><path d="M69.971 39.98a.977.977 0 00-.977.978V43.4a.977.977 0 001.955 0v-2.443a.977.977 0 00-.978-.977z" fill="#000" fill-opacity=".2"/><path d="M72.805 69.54h-35.63a.977.977 0 100 1.954h35.63a.977.977 0 000-1.954z" fill="#00BF80"/><path d="M72.805 69.54h-35.63a.977.977 0 100 1.954h35.63a.977.977 0 000-1.954z" fill="#000" fill-opacity=".2"/><path d="M91.823 44.954a5.864 5.864 0 005.863-5.864V28.663a5.864 5.864 0 00-5.863-5.864h-1.417V8.922c.004-.065.004-.13 0-.195a.977.977 0 00-.293-.46l-.157-.097a.497.497 0 00-.176-.088.147.147 0 00-.068 0H72.707V4.329A4.349 4.349 0 0068.37 0H41.61a4.34 4.34 0 00-4.329 4.33v3.693H20.337a.147.147 0 00-.069 0 .497.497 0 00-.176.088l-.156.098a1.046 1.046 0 00-.293.46 1.27 1.27 0 000 .195v13.935h-1.466a5.863 5.863 0 00-5.864 5.864V39.11a5.863 5.863 0 005.864 5.863h1.417v9.998h-1.417a5.863 5.863 0 00-5.864 5.863v13.379a5.863 5.863 0 005.864 5.863h1.417v4.467l-2.326-.03a4.945 4.945 0 00-4.886 4.886v12.382a4.945 4.945 0 004.886 4.887h16.613v2.355c0 .539.438.977.978.977h5.863c.54 0 .977-.438.977-.977v-2.355h25.859v2.355c0 .539.437.977.977.977h5.863c.54 0 .978-.438.978-.977v-2.355h17.336a4.946 4.946 0 004.935-4.887V89.448a4.89 4.89 0 00-.85-2.756 4.886 4.886 0 00-4.065-2.15h-2.326v-4.495h1.417a5.864 5.864 0 005.863-5.864V60.805a5.863 5.863 0 00-5.863-5.864h-1.417v-9.987h1.417zm-1.417-20.2h1.397a3.909 3.909 0 013.91 3.909v.44h-5.307v-4.35zM39.236 4.329a2.375 2.375 0 012.375-2.374H68.37a2.384 2.384 0 012.384 2.374v3.694H39.237V4.33zm48.98 5.649l-9.313 38.797h-3.215v-18.93h2.102a.977.977 0 000-1.954H62.153a.977.977 0 000 1.954h2.101v18.93H45.687v-18.93h2.1a.977.977 0 100-1.954H32.153a.977.977 0 000 1.954h2.1v18.93h-3.136L21.763 9.978h66.454zM73.735 29.845v25.292l-3.763 3.098-3.762-3.098V29.845h7.525zm-29.963 0v25.292l-3.762 3.098-3.763-3.098V29.845h7.525zM21.548 17.268l7.818 32.719c.11.447.518.756.978.742h3.909v4.887c0 .29.128.566.352.752l4.74 3.91a.978.978 0 00.625.224.977.977 0 00.615-.225l4.75-3.909a.977.977 0 00.352-.752v-4.887h18.567v4.887c0 .29.129.566.352.752l4.75 3.91c.173.143.39.222.615.224.229 0 .45-.08.626-.225l4.74-3.909a.978.978 0 00.351-.752v-4.887h3.91a.977.977 0 00.977-.742l7.818-32.719v67.245H81.18V63.844a.977.977 0 00-.977-.977H29.777a.977.977 0 00-.977.977v20.67h-7.252V17.267zM19.574 43h-1.397a3.909 3.909 0 01-3.91-3.909v-8.062h5.307V43zm-5.287-13.926v-.41a3.91 3.91 0 013.89-3.91h1.417v4.32h-5.307zm5.287 49.02h-1.397a3.909 3.909 0 01-3.91-3.91V63.19h5.307v14.904zm-5.287-16.858v-.43a3.91 3.91 0 013.89-3.88h1.417v4.31h-5.307zm0 28.213a2.99 2.99 0 012.981-2.98h4.544l-7.525 11.414v-8.434zm19.565 15.363h-9.528l9.528-14.473v14.473zm0-18.02l-11.874 18.02h-4.71a2.991 2.991 0 01-2.98-2.981h.048v-.391l9.812-14.971h9.704v.322zm5.903 21.352h-3.91v-11.6h3.91v11.6zM35.806 94.59V82.98h3.91v11.61h-3.91zm5.864-1.144v-6.977h4.603l-4.603 6.977zm.04 11.366v-7.809l6.938-10.534h9.909L46.478 104.81H41.71zm25.848.01h-6.49l6.49-9.851v9.851zm0-13.408l-8.796 13.398-9.89-.049 12.03-18.294h6.656v4.945zm5.912 16.74h-3.909v-11.61h3.909v11.61zM69.512 94.59V82.98h3.91v11.61h-3.91zm4.935-13.565h-5.863a.977.977 0 00-.978.978v2.511H41.71v-2.511a.977.977 0 00-.977-.978h-5.864a.977.977 0 00-.977.978v2.511h-3.137V64.821h48.472l-.049 19.692h-3.753v-2.511a.977.977 0 00-.977-.978zm8.561 5.444l-7.584 11.58-.048-11.58h7.632zm12.685 15.372a2.99 2.99 0 01-2.98 2.932h-7.135l10.115-15.324v12.392zm-2.98-15.372a2.99 2.99 0 012.051.83l-11.531 17.513h-7.818v-3.186l9.987-15.157h7.31zm2.98-12.255a3.91 3.91 0 01-3.89 3.88h-1.417V63.189h5.307v11.024zm-3.89-17.288a3.909 3.909 0 013.91 3.91v.43h-5.307v-4.34h1.397zM90.386 43V31.028h5.307v8.082a3.91 3.91 0 01-3.89 3.89h-1.417z" fill="#00BF80"/><path d="M91.823 44.954a5.864 5.864 0 005.863-5.864V28.663a5.864 5.864 0 00-5.863-5.864h-1.417V8.922c.004-.065.004-.13 0-.195a.977.977 0 00-.293-.46l-.157-.097a.497.497 0 00-.176-.088.147.147 0 00-.068 0H72.707V4.329A4.349 4.349 0 0068.37 0H41.61a4.34 4.34 0 00-4.329 4.33v3.693H20.337a.147.147 0 00-.069 0 .497.497 0 00-.176.088l-.156.098a1.046 1.046 0 00-.293.46 1.27 1.27 0 000 .195v13.935h-1.466a5.863 5.863 0 00-5.864 5.864V39.11a5.863 5.863 0 005.864 5.863h1.417v9.998h-1.417a5.863 5.863 0 00-5.864 5.863v13.379a5.863 5.863 0 005.864 5.863h1.417v4.467l-2.326-.03a4.945 4.945 0 00-4.886 4.886v12.382a4.945 4.945 0 004.886 4.887h16.613v2.355c0 .539.438.977.978.977h5.863c.54 0 .977-.438.977-.977v-2.355h25.859v2.355c0 .539.437.977.977.977h5.863c.54 0 .978-.438.978-.977v-2.355h17.336a4.946 4.946 0 004.935-4.887V89.448a4.89 4.89 0 00-.85-2.756 4.886 4.886 0 00-4.065-2.15h-2.326v-4.495h1.417a5.864 5.864 0 005.863-5.864V60.805a5.863 5.863 0 00-5.863-5.864h-1.417v-9.987h1.417zm-1.417-20.2h1.397a3.909 3.909 0 013.91 3.909v.44h-5.307v-4.35zM39.236 4.329a2.375 2.375 0 012.375-2.374H68.37a2.384 2.384 0 012.384 2.374v3.694H39.237V4.33zm48.98 5.649l-9.313 38.797h-3.215v-18.93h2.102a.977.977 0 000-1.954H62.153a.977.977 0 000 1.954h2.101v18.93H45.687v-18.93h2.1a.977.977 0 100-1.954H32.153a.977.977 0 000 1.954h2.1v18.93h-3.136L21.763 9.978h66.454zM73.735 29.845v25.292l-3.763 3.098-3.762-3.098V29.845h7.525zm-29.963 0v25.292l-3.762 3.098-3.763-3.098V29.845h7.525zM21.548 17.268l7.818 32.719c.11.447.518.756.978.742h3.909v4.887c0 .29.128.566.352.752l4.74 3.91a.978.978 0 00.625.224.977.977 0 00.615-.225l4.75-3.909a.977.977 0 00.352-.752v-4.887h18.567v4.887c0 .29.129.566.352.752l4.75 3.91c.173.143.39.222.615.224.229 0 .45-.08.626-.225l4.74-3.909a.978.978 0 00.351-.752v-4.887h3.91a.977.977 0 00.977-.742l7.818-32.719v67.245H81.18V63.844a.977.977 0 00-.977-.977H29.777a.977.977 0 00-.977.977v20.67h-7.252V17.267zM19.574 43h-1.397a3.909 3.909 0 01-3.91-3.909v-8.062h5.307V43zm-5.287-13.926v-.41a3.91 3.91 0 013.89-3.91h1.417v4.32h-5.307zm5.287 49.02h-1.397a3.909 3.909 0 01-3.91-3.91V63.19h5.307v14.904zm-5.287-16.858v-.43a3.91 3.91 0 013.89-3.88h1.417v4.31h-5.307zm0 28.213a2.99 2.99 0 012.981-2.98h4.544l-7.525 11.414v-8.434zm19.565 15.363h-9.528l9.528-14.473v14.473zm0-18.02l-11.874 18.02h-4.71a2.991 2.991 0 01-2.98-2.981h.048v-.391l9.812-14.971h9.704v.322zm5.903 21.352h-3.91v-11.6h3.91v11.6zM35.806 94.59V82.98h3.91v11.61h-3.91zm5.864-1.144v-6.977h4.603l-4.603 6.977zm.04 11.366v-7.809l6.938-10.534h9.909L46.478 104.81H41.71zm25.848.01h-6.49l6.49-9.851v9.851zm0-13.408l-8.796 13.398-9.89-.049 12.03-18.294h6.656v4.945zm5.912 16.74h-3.909v-11.61h3.909v11.61zM69.512 94.59V82.98h3.91v11.61h-3.91zm4.935-13.565h-5.863a.977.977 0 00-.978.978v2.511H41.71v-2.511a.977.977 0 00-.977-.978h-5.864a.977.977 0 00-.977.978v2.511h-3.137V64.821h48.472l-.049 19.692h-3.753v-2.511a.977.977 0 00-.977-.978zm8.561 5.444l-7.584 11.58-.048-11.58h7.632zm12.685 15.372a2.99 2.99 0 01-2.98 2.932h-7.135l10.115-15.324v12.392zm-2.98-15.372a2.99 2.99 0 012.051.83l-11.531 17.513h-7.818v-3.186l9.987-15.157h7.31zm2.98-12.255a3.91 3.91 0 01-3.89 3.88h-1.417V63.189h5.307v11.024zm-3.89-17.288a3.909 3.909 0 013.91 3.91v.43h-5.307v-4.34h1.397zM90.386 43V31.028h5.307v8.082a3.91 3.91 0 01-3.89 3.89h-1.417z" fill="#000" fill-opacity=".2"/></svg>