<svg width="110" height="110" fill="none" xmlns="http://www.w3.org/2000/svg"><path d="M82.316 11.95h-14.19a.981.981 0 000 1.962h14.19a.981.981 0 000-1.963z" fill="#00BF80"/><path d="M82.316 11.95h-14.19a.981.981 0 000 1.962h14.19a.981.981 0 000-1.963z" fill="#000" fill-opacity=".2"/><path d="M89.96 11.95h-2.414a.981.981 0 000 1.962h2.414a.981.981 0 100-1.963z" fill="#00BF80"/><path d="M89.96 11.95h-2.414a.981.981 0 000 1.962h2.414a.981.981 0 100-1.963z" fill="#000" fill-opacity=".2"/><path d="M70.217 74.266H39.795a.981.981 0 000 1.963h30.422a.981.981 0 000-1.963z" fill="#00BF80"/><path d="M70.217 74.266H39.795a.981.981 0 000 1.963h30.422a.981.981 0 000-1.963z" fill="#000" fill-opacity=".2"/><path d="M70.216 79.496H39.794a.981.981 0 000 1.963h30.422a.981.981 0 100-1.963z" fill="#00BF80"/><path d="M70.216 79.496H39.794a.981.981 0 000 1.963h30.422a.981.981 0 100-1.963z" fill="#000" fill-opacity=".2"/><path d="M70.216 84.262H39.794a.981.981 0 000 1.962h30.422a.981.981 0 100-1.962z" fill="#00BF80"/><path d="M70.216 84.262H39.794a.981.981 0 000 1.962h30.422a.981.981 0 100-1.962z" fill="#000" fill-opacity=".2"/><path d="M91.806 78.503H79.372a.981.981 0 00-.981.981v6.419c0 .541.44.98.981.98h12.434a.98.98 0 00.981-.98v-6.419a.981.981 0 00-.98-.98zm-.981 6.418H80.354v-4.455h10.47v4.455z" fill="#00BF80"/><path d="M91.806 78.503H79.372a.981.981 0 00-.981.981v6.419c0 .541.44.98.981.98h12.434a.98.98 0 00.981-.98v-6.419a.981.981 0 00-.98-.98zm-.981 6.418H80.354v-4.455h10.47v4.455z" fill="#000" fill-opacity=".2"/><path d="M30.629 78.503H18.205a.981.981 0 00-.982.981v6.419c0 .541.44.98.982.98h12.424a.98.98 0 00.981-.98v-6.419a.981.981 0 00-.981-.98zm-.982 6.418h-10.46v-4.455h10.46v4.455z" fill="#00BF80"/><path d="M30.629 78.503H18.205a.981.981 0 00-.982.981v6.419c0 .541.44.98.982.98h12.424a.98.98 0 00.981-.98v-6.419a.981.981 0 00-.981-.98zm-.982 6.418h-10.46v-4.455h10.46v4.455z" fill="#000" fill-opacity=".2"/><path d="M109.019 26.667h-1.62v-2.041a.98.98 0 00-.333-.746l-6.428-5.555v-4.563a8.46 8.46 0 00-8.45-8.45H17.812a8.46 8.46 0 00-8.45 8.45v4.563L2.944 23.92a.981.981 0 00-.343.746v2.002H.98a.981.981 0 00-.981.981v18.293c0 .541.44.98.981.98h5.231a.98.98 0 00.981-.98V27.648a.981.981 0 00-.981-.981H4.563v-1.6l4.8-4.18v67.252a8.46 8.46 0 007.526 8.4v3.072a5.083 5.083 0 005.074 5.073h7.684a5.083 5.083 0 005.073-5.073v-3.023h40.56v3.023a5.083 5.083 0 005.073 5.073h7.694a5.073 5.073 0 005.064-5.073v-3.072a8.46 8.46 0 007.527-8.4V20.887l4.799 4.18v1.6h-1.62a.982.982 0 00-.981.981v18.293c0 .541.44.98.981.98h5.202a.98.98 0 00.981-.98V27.648a.981.981 0 00-.981-.981zM5.231 28.629v16.33H1.963V28.63H5.23zm27.527 70.982a3.111 3.111 0 01-3.111 3.111h-7.684a3.111 3.111 0 01-3.111-3.111v-3.023h13.906v3.023zm58.39 0a3.112 3.112 0 01-3.1 3.111h-7.695a3.111 3.111 0 01-3.11-3.111v-3.023h13.905v3.023zm7.517-11.472a6.487 6.487 0 01-6.477 6.487H17.812a6.497 6.497 0 01-6.487-6.487V57.128l8.626 6.546a.981.981 0 00.599.206h68.89a.98.98 0 00.59-.206l8.635-6.546v31.01zM66.3 61.917c.518-5.482 5.382-9.507 10.864-8.989a9.97 9.97 0 018.99 8.989H66.3zm22.817-.03h-.982c-.5-6.566-6.227-11.484-12.793-10.984a11.924 11.924 0 00-10.985 10.985H20.932l-9.607-7.253V19.797h87.34l.01 34.838-9.558 7.253zm9.558-44.052h-87.34v-4.073a6.496 6.496 0 016.477-6.487h74.376a6.487 6.487 0 016.487 6.487v4.073zm9.362 27.124h-3.238V28.63h3.238v16.33z" fill="#00BF80"/><path d="M109.019 26.667h-1.62v-2.041a.98.98 0 00-.333-.746l-6.428-5.555v-4.563a8.46 8.46 0 00-8.45-8.45H17.812a8.46 8.46 0 00-8.45 8.45v4.563L2.944 23.92a.981.981 0 00-.343.746v2.002H.98a.981.981 0 00-.981.981v18.293c0 .541.44.98.981.98h5.231a.98.98 0 00.981-.98V27.648a.981.981 0 00-.981-.981H4.563v-1.6l4.8-4.18v67.252a8.46 8.46 0 007.526 8.4v3.072a5.083 5.083 0 005.074 5.073h7.684a5.083 5.083 0 005.073-5.073v-3.023h40.56v3.023a5.083 5.083 0 005.073 5.073h7.694a5.073 5.073 0 005.064-5.073v-3.072a8.46 8.46 0 007.527-8.4V20.887l4.799 4.18v1.6h-1.62a.982.982 0 00-.981.981v18.293c0 .541.44.98.981.98h5.202a.98.98 0 00.981-.98V27.648a.981.981 0 00-.981-.981zM5.231 28.629v16.33H1.963V28.63H5.23zm27.527 70.982a3.111 3.111 0 01-3.111 3.111h-7.684a3.111 3.111 0 01-3.111-3.111v-3.023h13.906v3.023zm58.39 0a3.112 3.112 0 01-3.1 3.111h-7.695a3.111 3.111 0 01-3.11-3.111v-3.023h13.905v3.023zm7.517-11.472a6.487 6.487 0 01-6.477 6.487H17.812a6.497 6.497 0 01-6.487-6.487V57.128l8.626 6.546a.981.981 0 00.599.206h68.89a.98.98 0 00.59-.206l8.635-6.546v31.01zM66.3 61.917c.518-5.482 5.382-9.507 10.864-8.989a9.97 9.97 0 018.99 8.989H66.3zm22.817-.03h-.982c-.5-6.566-6.227-11.484-12.793-10.984a11.924 11.924 0 00-10.985 10.985H20.932l-9.607-7.253V19.797h87.34l.01 34.838-9.558 7.253zm9.558-44.052h-87.34v-4.073a6.496 6.496 0 016.477-6.487h74.376a6.487 6.487 0 016.487 6.487v4.073zm9.362 27.124h-3.238V28.63h3.238v16.33z" fill="#000" fill-opacity=".2"/><path d="M33.21 28.916a.981.981 0 00-1.345-.304l-2.042 1.286a.981.981 0 101.05 1.658l2.042-1.286a.981.981 0 00.294-1.354z" fill="#00BF80"/><path d="M33.21 28.916a.981.981 0 00-1.345-.304l-2.042 1.286a.981.981 0 101.05 1.658l2.042-1.286a.981.981 0 00.294-1.354z" fill="#000" fill-opacity=".2"/><path d="M34.192 32.163a.981.981 0 00-1.345-.304l-7.007 4.426a.981.981 0 00.54 1.806.982.982 0 00.53-.148l6.987-4.426a.981.981 0 00.295-1.354z" fill="#00BF80"/><path d="M34.192 32.163a.981.981 0 00-1.345-.304l-7.007 4.426a.981.981 0 00.54 1.806.982.982 0 00.53-.148l6.987-4.426a.981.981 0 00.295-1.354z" fill="#000" fill-opacity=".2"/><path d="M59.55 42.478l-.029-.001-.021.001h.05z" fill="#00BF80"/><path d="M59.55 42.478l-.029-.001-.021.001h.05z" fill="#000" fill-opacity=".2"/><path d="M67.36 36.539a.981.981 0 00-1.353-.305l-6.988 4.426a.982.982 0 00.502 1.814.92.92 0 00.5-.155l7.035-4.426a.981.981 0 00.305-1.354z" fill="#00BF80"/><path d="M67.36 36.539a.981.981 0 00-1.353-.305l-6.988 4.426a.982.982 0 00.502 1.814.92.92 0 00.5-.155l7.035-4.426a.981.981 0 00.305-1.354z" fill="#000" fill-opacity=".2"/><path d="M63.817 43.96a.981.981 0 00-1.355-.304l-3.493 2.218a.981.981 0 101.05 1.659l3.493-2.218a.982.982 0 00.305-1.354z" fill="#00BF80"/><path d="M63.817 43.96a.981.981 0 00-1.355-.304l-3.493 2.218a.981.981 0 101.05 1.659l3.493-2.218a.982.982 0 00.305-1.354z" fill="#000" fill-opacity=".2"/></svg>