<svg width="110" height="110" fill="none" xmlns="http://www.w3.org/2000/svg"><g clip-path="url(#clip0_222_4116)"><path d="M22.819 37.834a71.666 71.666 0 01-9.28-15.846 1.073 1.073 0 00-1.974.837 74.249 74.249 0 009.591 16.296c.205.26.518.41.848.408.237.004.47-.075.654-.225a1.073 1.073 0 00.161-1.47z" fill="#00BF80"/><path d="M22.819 37.834a71.666 71.666 0 01-9.28-15.846 1.073 1.073 0 00-1.974.837 74.249 74.249 0 009.591 16.296c.205.26.518.41.848.408.237.004.47-.075.654-.225a1.073 1.073 0 00.161-1.47z" fill="#000" fill-opacity=".2"/><path d="M11.672 16.945a49.416 49.416 0 01-.826-2.961 1.076 1.076 0 00-2.092.504c.246 1.008.547 2.06.869 3.111.145.465.586.774 1.073.751a1.09 1.09 0 00.321-.053c.55-.198.841-.799.655-1.352z" fill="#00BF80"/><path d="M11.672 16.945a49.416 49.416 0 01-.826-2.961 1.076 1.076 0 00-2.092.504c.246 1.008.547 2.06.869 3.111.145.465.586.774 1.073.751a1.09 1.09 0 00.321-.053c.55-.198.841-.799.655-1.352z" fill="#000" fill-opacity=".2"/><path d="M76.055 50.503a6.372 6.372 0 009.011 0l24.676-24.676a1.072 1.072 0 00-1.513-1.513l-.053.054L83.5 48.99a4.292 4.292 0 01-5.987 0l-7.906-7.939a4.292 4.292 0 010-5.986l24.675-24.622a1.073 1.073 0 00-1.517-1.52l-.006.007-24.676 24.61a6.437 6.437 0 000 9.012l.901.901L56.84 53.678 5.268 2.106a1.073 1.073 0 00-1.781.451C-.236 14.562 9.752 35.107 21.414 46.78a53.133 53.133 0 009.066 7.285 3.82 3.82 0 004.055 0 20.228 20.228 0 016.32-2.564 3.594 3.594 0 013.797 1.48l4.656 7.049L17.09 87.184c-.33.257-.645.533-.944.826-3.973 3.987-3.963 10.44.024 14.414 3.976 3.962 10.406 3.964 14.385.005a9.72 9.72 0 00.933-1.073l25.02-30.394 13.657 20.696 6.533 9.913c.28.354.547.654.805.922a9.997 9.997 0 007.06 2.929h.482a9.87 9.87 0 007.199-3.572 10.235 10.235 0 00-.762-13.54l-.15-.16c-.21-.25-.444-.48-.697-.687l-7.736-7.79a1.144 1.144 0 00-.3-.3l-6.437-6.437a1.075 1.075 0 00-.311-.3l-11.394-11.33 10.117-12.284 1.48 1.48zm-46.326 49.523c-.235.32-.493.621-.773.901a8.046 8.046 0 01-11.372-11.372 8.25 8.25 0 01.783-.676l17.166 4.066-5.804 7.081zm7.51-8.98l-16.694-3.948 5.826-4.914c.05.032.104.057.16.075h-.02L41.53 85.8l-4.291 5.247zm5.793-7.08l-14.655-3.477 22.122-18.657 4.774 7.253-12.241 14.88zm39.578-1.492l6.608 6.598a.565.565 0 00.118.064c.164.137.315.288.451.451l.172.193a8.09 8.09 0 01.654 10.729 7.81 7.81 0 01-11.522.536 9.189 9.189 0 01-.59-.665l-.086-.14 4.195-17.766zm-1.856-1.824l-4.045 17.08-4.506-6.834 3.615-15.203 4.936 4.957zm-6.717-6.737l-3.433 14.526-24.182-36.66a5.697 5.697 0 00-4.731-2.51h-.032a6.1 6.1 0 00-1.31.14 22.272 22.272 0 00-6.994 2.843c-.54.333-1.22.333-1.76 0a51.797 51.797 0 01-8.7-7.006C12.477 34.828 3.09 16.279 5.075 4.97l68.962 68.942zm-11.104-14.14l-4.57-4.571 11.598-9.795 2.628 2.639-9.655 11.726z" fill="#00BF80"/><path d="M76.055 50.503a6.372 6.372 0 009.011 0l24.676-24.676a1.072 1.072 0 00-1.513-1.513l-.053.054L83.5 48.99a4.292 4.292 0 01-5.987 0l-7.906-7.939a4.292 4.292 0 010-5.986l24.675-24.622a1.073 1.073 0 00-1.517-1.52l-.006.007-24.676 24.61a6.437 6.437 0 000 9.012l.901.901L56.84 53.678 5.268 2.106a1.073 1.073 0 00-1.781.451C-.236 14.562 9.752 35.107 21.414 46.78a53.133 53.133 0 009.066 7.285 3.82 3.82 0 004.055 0 20.228 20.228 0 016.32-2.564 3.594 3.594 0 013.797 1.48l4.656 7.049L17.09 87.184c-.33.257-.645.533-.944.826-3.973 3.987-3.963 10.44.024 14.414 3.976 3.962 10.406 3.964 14.385.005a9.72 9.72 0 00.933-1.073l25.02-30.394 13.657 20.696 6.533 9.913c.28.354.547.654.805.922a9.997 9.997 0 007.06 2.929h.482a9.87 9.87 0 007.199-3.572 10.235 10.235 0 00-.762-13.54l-.15-.16c-.21-.25-.444-.48-.697-.687l-7.736-7.79a1.144 1.144 0 00-.3-.3l-6.437-6.437a1.075 1.075 0 00-.311-.3l-11.394-11.33 10.117-12.284 1.48 1.48zm-46.326 49.523c-.235.32-.493.621-.773.901a8.046 8.046 0 01-11.372-11.372 8.25 8.25 0 01.783-.676l17.166 4.066-5.804 7.081zm7.51-8.98l-16.694-3.948 5.826-4.914c.05.032.104.057.16.075h-.02L41.53 85.8l-4.291 5.247zm5.793-7.08l-14.655-3.477 22.122-18.657 4.774 7.253-12.241 14.88zm39.578-1.492l6.608 6.598a.565.565 0 00.118.064c.164.137.315.288.451.451l.172.193a8.09 8.09 0 01.654 10.729 7.81 7.81 0 01-11.522.536 9.189 9.189 0 01-.59-.665l-.086-.14 4.195-17.766zm-1.856-1.824l-4.045 17.08-4.506-6.834 3.615-15.203 4.936 4.957zm-6.717-6.737l-3.433 14.526-24.182-36.66a5.697 5.697 0 00-4.731-2.51h-.032a6.1 6.1 0 00-1.31.14 22.272 22.272 0 00-6.994 2.843c-.54.333-1.22.333-1.76 0a51.797 51.797 0 01-8.7-7.006C12.477 34.828 3.09 16.279 5.075 4.97l68.962 68.942zm-11.104-14.14l-4.57-4.571 11.598-9.795 2.628 2.639-9.655 11.726z" fill="#000" fill-opacity=".2"/><path d="M99.249 14.177a1.073 1.073 0 00-1.513.053L75.592 36.32a1.073 1.073 0 001.513 1.513L99.249 15.69a1.073 1.073 0 000-1.513z" fill="#00BF80"/><path d="M99.249 14.177a1.073 1.073 0 00-1.513.053L75.592 36.32a1.073 1.073 0 001.513 1.513L99.249 15.69a1.073 1.073 0 000-1.513z" fill="#000" fill-opacity=".2"/><path d="M104.41 19.338a1.078 1.078 0 00-1.524 0L80.753 41.482a1.073 1.073 0 000 1.513c.199.202.468.317.751.321.287 0 .561-.117.762-.321l22.144-22.133a1.077 1.077 0 000-1.524z" fill="#00BF80"/><path d="M104.41 19.338a1.078 1.078 0 00-1.524 0L80.753 41.482a1.073 1.073 0 000 1.513c.199.202.468.317.751.321.287 0 .561-.117.762-.321l22.144-22.133a1.077 1.077 0 000-1.524z" fill="#000" fill-opacity=".2"/><path d="M81.333 9.327a53.503 53.503 0 00-59.308 2.424 1.073 1.073 0 00-.279 1.491c.2.282.524.45.87.451.239.005.473-.07.665-.214a51.368 51.368 0 0156.925-2.318 1.076 1.076 0 101.127-1.834z" fill="#00BF80"/><path d="M81.333 9.327a53.503 53.503 0 00-59.308 2.424 1.073 1.073 0 00-.279 1.491c.2.282.524.45.87.451.239.005.473-.07.665-.214a51.368 51.368 0 0156.925-2.318 1.076 1.076 0 101.127-1.834z" fill="#000" fill-opacity=".2"/><path d="M11.902 85.098l-.004-.005a50.94 50.94 0 01-9.753-30.094 50.83 50.83 0 015-22.111 1.073 1.073 0 10-1.931-.934A53.504 53.504 0 0010.16 86.36a1.073 1.073 0 001.49.236 1.073 1.073 0 00.252-1.497z" fill="#00BF80"/><path d="M11.902 85.098l-.004-.005a50.94 50.94 0 01-9.753-30.094 50.83 50.83 0 015-22.111 1.073 1.073 0 10-1.931-.934A53.504 53.504 0 0010.16 86.36a1.073 1.073 0 001.49.236 1.073 1.073 0 00.252-1.497z" fill="#000" fill-opacity=".2"/><path d="M73.629 103.365a1.072 1.072 0 00-1.33-.58 51.64 51.64 0 01-35.275.858 1.073 1.073 0 00-.686 2.028 53.716 53.716 0 0036.745-.891c.542-.24.786-.874.546-1.415z" fill="#00BF80"/><path d="M73.629 103.365a1.072 1.072 0 00-1.33-.58 51.64 51.64 0 01-35.275.858 1.073 1.073 0 00-.686 2.028 53.716 53.716 0 0036.745-.891c.542-.24.786-.874.546-1.415z" fill="#000" fill-opacity=".2"/><path d="M104.528 38.994a1.074 1.074 0 10-2.05.644 51.498 51.498 0 01-7.681 45.843 1.073 1.073 0 00.223 1.5l.002.002c.18.141.404.217.633.215.343 0 .667-.163.87-.44a53.643 53.643 0 008.003-47.764z" fill="#00BF80"/><path d="M104.528 38.994a1.074 1.074 0 10-2.05.644 51.498 51.498 0 01-7.681 45.843 1.073 1.073 0 00.223 1.5l.002.002c.18.141.404.217.633.215.343 0 .667-.163.87-.44a53.643 53.643 0 008.003-47.764z" fill="#000" fill-opacity=".2"/></g><defs><clipPath id="clip0_222_4116"><path fill="#fff" d="M0 0h110v110H0z"/></clipPath></defs></svg>