<svg width="168" height="59" fill="none" xmlns="http://www.w3.org/2000/svg"><path d="M87.93.09c1.237.211 2.474.423 3.71.664.266.06.501.15.884.241-.353.513-.618.935-.913 1.358.03.03.06.09.088.12.354-.271.707-.603 1.09-.844.265-.151.618-.362.854-.272 1.973.694 3.77 1.75 5.477 3.137a849.748 849.748 0 01-2.944 4.224c.058.03.088.09.147.12l3.622-3.62c1.826 1.63 3.239 3.5 4.27 5.641.118.272-.059.664-.088 1.056.117-.06.265-.12.412-.211 1.296 1.297.176 2.323-.295 3.439.383-.423.737-.845 1.178-1.327.678 1.81.913 3.59.972 5.4 0 .24-.206.512-.383.723-1.649 2.142-3.327 4.284-5.006 6.456-.147.18-.265.361-.383.512l.147.151c1.826-2.081 3.623-4.163 5.448-6.214.089.03.177.03.265.06-.206 1.297-.294 2.625-.618 3.892-1.001 3.8-2.415 7.42-4.211 10.92-.147.271-.56.573-.825.573-2.444.06-4.859.03-7.303.03-.088 0-.206-.03-.412-.06.294-.543.56-1.026.825-1.509-.03-.03-.06-.06-.089-.06-.088.09-.206.15-.265.272-.736 1.266-1.826 1.598-3.18 1.417-.766-.09-1.56-.03-2.592-.03.383.453.59.724.825.965 2.15 2.293 4.27 4.555 6.449 6.818.5.513.648.935.118 1.538a5.395 5.395 0 00-.972 1.72l1.796-2.022c.06.06.118.091.177.151-2.797 4.555-5.83 8.93-9.158 13.303-1.12-1.538-2.18-2.956-3.18-4.434-.089-.15 0-.543.147-.724.618-.965 1.295-1.93 1.855-2.956-.854.905-1.708 1.78-2.68 2.805-.824-1.206-1.59-2.292-2.326-3.378-1.237-1.84-1.208-1.87-.03-3.71.383-.634.795-1.237 1.03-2.022-1 .845-1.972 1.69-3.062 2.595a325.742 325.742 0 01-3.386-5.732c-.118-.181 0-.573.147-.814a49.55 49.55 0 011.708-2.595c-.059-.06-.118-.09-.177-.15-.736.814-1.472 1.598-2.326 2.533-1.001-1.93-1.826-3.74-2.798-5.43-.765-1.327-.795-2.443.177-3.68.766-1.025 1.325-2.202 1.855-3.408-1.06 1.357-2.12 2.715-3.327 4.253-.619-1.75-1.208-3.288-1.708-4.887-.06-.21.118-.573.265-.814.47-.754 1.001-1.478 1.502-2.202l-.148-.151a108.09 108.09 0 00-2.061 1.99c-.206-1.025-.412-1.9-.53-2.774-.03-.212.206-.513.353-.694.648-.784 1.296-1.569 1.944-2.323-.059-.06-.088-.12-.147-.15-.737.572-1.473 1.176-2.327 1.87-.059-1.207-.382-2.233.5-3.168.796-.875 1.473-1.87 2.121-2.926-.824.754-1.62 1.508-2.474 2.293-.588-5.641 6.567-15.234 12.28-16.38-2.15 2.594-4.21 5.038-6.272 7.511.03.06.088.09.118.15.206-.18.412-.391.589-.572 2.061-2.202 4.181-4.344 6.184-6.606.883-.996 1.855-1.479 3.092-1.63.648-.06 1.295-.24 1.914-.331.648-.09 1.354-.09 2.061-.09zm-7.774 26.244l.118.12c.383-.452.854-.874 1.148-1.387.707-1.206 1.679-1.599 3.004-1.448 1.06.121 2.15.03 3.386.03-1.413 2.021-2.709 3.862-3.975 5.702.059.03.118.09.177.12 1.06-1.267 2.238-2.473 3.18-3.83 1.09-1.54 2.356-2.384 4.24-1.991.53.12.913-.151 1.237-.604 1.885-2.504 1.914-6.093.03-8.657-1.914-2.595-5.242-3.53-8.216-2.293-2.916 1.237-4.712 4.344-4.24 7.572.088.603-.03 1.055-.383 1.538-.383.513-.678 1.056-1.031 1.599.059.03.088.06.147.09.471-.603.972-1.206 1.472-1.81.413.694.737 1.328 1.149 1.9.265.393.294.665.03 1.057-.53.724-1.002 1.508-1.473 2.292zm-.471 5.249c.088.09.177.181.294.271 1.414-1.75 2.798-3.499 4.211-5.248-.088-.09-.176-.151-.265-.242a824.225 824.225 0 00-4.24 5.219zm14.046-8.718l-.147-.15c-1.266 1.477-2.562 2.956-3.828 4.434.059.06.118.09.147.15 1.708-1.116 2.68-2.835 3.828-4.434zM74.68 12.096c2.09-1.87 3.092-2.926 3.268-4.283-1.178 1.538-2.238 2.896-3.268 4.283zM90.55 41.9a1.623 1.623 0 01-.265-.212l-2.827 3.982c.088.06.206.151.294.211.943-1.327 1.856-2.654 2.798-3.981zm7.892-25.34c.088.06.177.151.265.212.913-1.056 1.826-2.112 2.709-3.137-.088-.09-.176-.151-.265-.242a254.014 254.014 0 01-2.709 3.168zm-5.271-9.532l.265.272c.854-.965 1.708-1.9 2.562-2.866-.088-.09-.177-.15-.236-.241l-2.591 2.835zm-8.304.905c.059.09.147.151.206.242.736-.724 1.472-1.418 2.208-2.142l-.147-.15c-.736.663-1.502 1.357-2.267 2.05zm3.062 30.618l-.265-.18c-.442.633-.883 1.266-1.354 1.9.058.06.147.12.206.15.47-.603.942-1.236 1.413-1.87z" fill="#E22D2D"/><path d="M0 48.659c.324-.06.618-.211.942-.211 19.701-.03 39.402-.06 59.102-.121 3.622 0 7.215-.06 10.808.452.176.03.412 0 .56.09.264.242.5.514.735.785-.294.09-.589.241-.883.241-16.314-.12-32.628-.271-48.942-.392-5.419-.03-10.837.09-16.226.121-2.032.03-4.094.15-6.067-.513C0 48.991 0 48.84 0 48.66zm168 .509c-1.826.212-3.681.574-5.507.604-17.581.12-35.161.18-52.741.21-1.591 0-3.181-.361-4.771-.633-.353-.06-.677-.422-1.001-.663l.088-.272h62.96c.324 0 .648.06.972.06v.694zM128.07 27.39c-1.296 1.267-2.592 2.473-3.829 3.77-.618.634-1.236.936-2.09.845-.472-.06-.972 0-1.561 0-.03.392-.059.694-.059 1.026 0 3.378-.029 6.787 0 10.166 0 .633-.147.874-.825.874-2.031-.06-4.034 0-6.066-.03-.206 0-.442-.03-.707-.06V7.63c.295 0 .56-.03.825-.03h10.336c2.385 0 4.741.393 6.95 1.418 3.18 1.478 5.065 4.012 5.595 7.542.412 2.684.412 5.369-.353 7.993-.678 2.323-2.062 4.103-4.094 5.37-.265.15-.5.332-.795.513 2.327 4.494 4.624 8.959 6.95 13.544-.383.03-.618.06-.854.06-2.297 0-4.594 0-6.891.03-.53 0-.824-.15-1.06-.663a1607.15 1607.15 0 00-4.8-10.407c-.206-.453-.206-.785.118-1.207 1.119-1.418 2.179-2.866 3.269-4.283.029-.03-.03-.06-.059-.121zm-7.48-2.051c1.885-.151 3.74-.151 5.507-.453 1.796-.301 2.886-1.598 3.062-3.469.118-1.146.089-2.353-.029-3.499-.177-1.478-1.031-2.504-2.415-3.016-1.973-.755-4.034-.423-6.096-.483-.029 3.62-.029 7.119-.029 10.92zm42.109 15.653a139.11 139.11 0 00-1.62-1.87c-.058.03-.088.06-.147.09.265.513.501 1.056.825 1.508.471.664.265 1.056-.354 1.448a12.166 12.166 0 01-4.8 1.84c-3.975.634-7.862.423-11.543-1.417-3.711-1.84-5.595-5.46-5.065-9.683.029-.181.235-.453.412-.483 2.356-.362 4.712-.663 7.215-.995v1.387c.088 2.715 1.443 4.314 4.064 4.585 1.148.121 2.385.09 3.474-.18 2.503-.604 3.24-3.44 1.267-5.159-1.178-1.056-2.621-1.81-4.005-2.564-2.68-1.418-5.419-2.654-7.774-4.645-3.593-3.107-4.712-8.145-2.71-12.308a7.498 7.498 0 013.21-3.378c.913 1.418 1.855 2.866 2.768 4.314.03-.03.089-.03.118-.06-.707-1.51-1.443-3.048-2.267-4.797 1.266-.362 2.444-.784 3.651-.995 3.328-.574 6.596-.302 9.688 1.206 3.534 1.72 5.448 5.49 4.889 9.593-2.444.331-4.918.663-7.421 1.025-.118-.844-.177-1.599-.383-2.323-.707-2.865-4.564-4.072-6.773-2.202-.972.845-1.119 2.414-.177 3.56.648.784 1.414 1.508 2.268 2.02 1.885 1.177 3.858 2.203 5.801 3.289 1.914 1.056 3.711 2.202 5.271 3.8 3.622 3.68 2.827 10.106.619 12.851-.118.15-.295.302-.501.543zM49.092 25.52c.059-.15.147-.3.177-.452 2.002-6.003 5.477-11.251 8.216-16.892.088-.181.353-.423.53-.423 2.65-.03 5.3-.03 8.098-.03-.206.392-.353.694-.5.965a8103.2 8103.2 0 01-9.188 16.5c-.295.544-.295.936 0 1.449 3.092 5.52 6.154 11.04 9.217 16.56.117.242.265.483.441.845-.353.03-.618.06-.854.06-2.238 0-4.476-.03-6.714.03-.618 0-.913-.21-1.207-.753-2.18-4.254-4.417-8.507-6.626-12.76-.147-.272-.294-.543-.589-.785v14.178h-7.597c0-1.327-.03-2.624.03-3.921 0-.212.294-.453.5-.634.736-.663 1.502-1.267 2.179-2.051-.854.392-1.708.754-2.65 1.176V7.814h7.509v.935c0 2.805-.089 5.61.03 8.386.087 2.624-.295 5.128-.943 7.632a6.321 6.321 0 00-.147.724s.03.03.088.03zM15.105 7.814c.207-.03.354-.09.472-.09 4.299.03 8.569 0 12.868.09 1.944.03 3.829.573 5.596 1.508 2.709 1.448 4.476 3.74 4.8 6.787.294 2.745.382 5.55.088 8.265-.53 4.706-3.71 7.753-8.51 8.567-1.296.212-2.592.302-3.917.362-1.237.06-2.444 0-3.799 0v10.649h-7.539V16.2c2.474.422 4.918.844 7.45 1.297.03.301.03.603.06.905 0 2.443.029 4.886 0 7.3 0 .633.176.844.795.814 1.295-.06 2.562.03 3.857-.09 2.68-.242 4.123-1.9 4.182-4.646.03-.875 0-1.72 0-2.684.589.06 1.09.12 1.59.18-1.266-.06-1.62-.874-1.943-2.02-.472-1.78-1.915-2.655-3.652-2.776-1.56-.03-3.122.09-4.77.09v2.203a106.19 106.19 0 00-3.122-.724c-1.296-.302-2.62-.604-3.917-.965-.235-.06-.56-.332-.56-.513-.029-2.263-.029-4.495-.029-6.757zM3.151 14.176c2.415.423 4.742.815 7.097 1.267.177.03.295.302.413.483.059.09 0 .211 0 .332v27.118c0 .181-.03.393-.03.664h-7.48V14.176zm7.448-.299c-2.415-.604-4.741-1.147-7.067-1.72-.177-.03-.383-.332-.413-.513-.03-1.267-.03-2.504-.03-3.831h7.51v6.064z" fill="#fff"/></svg>