<svg width="24" height="34" fill="none" xmlns="http://www.w3.org/2000/svg"><path d="M12.516 0c.766.122 1.531.244 2.297.384.164.035.31.087.547.14-.22.297-.383.541-.566.786.019.017.037.052.055.07.219-.158.438-.35.675-.49.164-.087.383-.209.528-.157 1.222.402 2.334 1.013 3.39 1.817-.619.838-1.22 1.641-1.822 2.444.036.018.055.053.091.07l2.242-2.095c1.13.943 2.005 2.025 2.643 3.265.073.157-.036.384-.054.611.073-.035.164-.07.255-.122.802.751.11 1.345-.182 1.99.237-.244.455-.488.729-.767.419 1.047.565 2.078.601 3.125 0 .14-.127.297-.237.42-1.02 1.24-2.06 2.48-3.098 3.736-.092.105-.165.21-.238.297l.092.088c1.13-1.205 2.242-2.41 3.372-3.598.055.018.11.018.164.035-.128.751-.182 1.52-.383 2.253a29.978 29.978 0 01-2.607 6.322c-.09.157-.346.331-.51.331-1.513.035-3.008.018-4.52.018-.055 0-.128-.018-.256-.035.182-.314.347-.594.51-.873-.018-.018-.036-.035-.054-.035-.055.052-.128.087-.164.157-.456.733-1.13.925-1.969.82-.474-.052-.966-.017-1.604-.017.237.262.365.42.51.559 1.331 1.327 2.644 2.637 3.992 3.947.31.297.402.541.073.89-.255.28-.455.611-.601.996.364-.385.747-.786 1.112-1.17.036.035.073.052.11.087A93.455 93.455 0 0111.968 34c-.693-.89-1.349-1.711-1.969-2.567-.054-.087 0-.314.092-.42.382-.558.802-1.117 1.148-1.71-.529.523-1.057 1.03-1.659 1.624-.51-.699-.984-1.328-1.44-1.956-.766-1.066-.747-1.083-.018-2.148.237-.367.492-.716.638-1.17-.62.489-1.221.978-1.896 1.502a186.468 186.468 0 01-2.096-3.318c-.073-.105 0-.332.091-.472.328-.506.693-1.013 1.057-1.502-.036-.035-.073-.052-.11-.087-.455.472-.91.926-1.44 1.467-.619-1.118-1.13-2.165-1.73-3.143-.475-.769-.493-1.415.108-2.13.474-.595.82-1.276 1.149-1.974-.656.786-1.313 1.571-2.06 2.462-.383-1.013-.747-1.903-1.057-2.829-.037-.122.073-.332.164-.471.291-.437.62-.856.93-1.275l-.092-.087c-.4.349-.802.716-1.276 1.152-.127-.594-.255-1.1-.328-1.606-.018-.123.128-.297.219-.402.401-.454.802-.908 1.203-1.345-.036-.035-.055-.07-.091-.087-.456.332-.912.681-1.44 1.083-.037-.699-.237-1.293.31-1.834.492-.506.911-1.083 1.312-1.694-.51.437-1.002.873-1.531 1.327C-.208 7.125 4.222 1.572 7.758.908 6.428 2.41 5.152 3.824 3.876 5.256c.018.035.054.053.073.088a6.67 6.67 0 00.364-.332C5.59 3.737 6.902 2.497 8.141 1.187 8.688.611 9.29.332 10.055.244c.401-.034.802-.14 1.185-.192C11.641 0 12.078 0 12.516 0zM7.704 15.193l.073.07c.237-.262.528-.507.71-.804.438-.698 1.04-.925 1.86-.838.656.07 1.33.017 2.096.017-.875 1.17-1.677 2.236-2.46 3.3.036.018.072.053.109.07.656-.733 1.385-1.431 1.968-2.217.675-.89 1.458-1.38 2.625-1.153.328.07.565-.087.766-.349a4.026 4.026 0 00.018-5.012c-1.185-1.501-3.245-2.043-5.086-1.327-1.804.716-2.916 2.515-2.625 4.383.055.35-.018.611-.237.89-.237.298-.419.612-.638.926.037.018.055.035.091.053.292-.35.602-.699.912-1.048.255.402.456.768.71 1.1.165.227.183.384.02.611-.33.42-.62.874-.912 1.328zm-.292 3.038c.055.052.11.105.182.157.875-1.013 1.732-2.025 2.607-3.038-.055-.053-.11-.088-.164-.14-.875.995-1.75 2.008-2.625 3.021zm8.695-5.047l-.091-.087c-.784.856-1.586 1.711-2.37 2.567.037.035.073.053.091.087 1.057-.646 1.66-1.641 2.37-2.567zM4.313 6.95c1.294-1.083 1.914-1.694 2.023-2.48-.729.891-1.385 1.677-2.023 2.48zm9.825 17.253a.996.996 0 01-.164-.122l-1.75 2.305c.055.035.128.088.183.123.583-.769 1.148-1.537 1.731-2.306zm4.886-14.668c.054.035.109.087.164.122.565-.611 1.13-1.222 1.677-1.816-.055-.053-.11-.088-.164-.14-.547.611-1.112 1.222-1.677 1.834zM15.76 4.016l.164.158c.528-.56 1.057-1.1 1.586-1.66-.055-.052-.11-.087-.146-.14L15.76 4.017zm-5.14.524c.036.053.09.088.127.14.456-.42.911-.82 1.367-1.24l-.091-.087c-.456.384-.93.786-1.404 1.187zm1.895 17.725l-.164-.105c-.274.367-.547.734-.839 1.1.037.035.091.07.128.088.292-.35.583-.716.875-1.083z" fill="#E22D2D"/></svg>