<svg width="110" height="110" viewBox="0 0 110 110" fill="none" xmlns="http://www.w3.org/2000/svg">
<g clip-path="url(#clip0_222_4062)">
<path d="M55.0473 9.79199C49.8911 9.79199 45.7111 13.9721 45.7111 19.1283C45.7111 24.2845 49.8911 28.4645 55.0473 28.4645C60.1909 28.434 64.353 24.2719 64.3836 19.1283C64.3836 13.9721 60.2038 9.79199 55.0473 9.79199ZM54.954 26.5973C50.8598 26.5415 47.5617 23.2227 47.5316 19.1283H47.485C47.485 15.0033 50.829 11.6592 54.954 11.6592C59.079 11.6592 62.423 15.0033 62.423 19.1283C62.423 23.2533 59.079 26.5973 54.954 26.5973Z" fill="#00BF80"/>
<path d="M55.0473 9.79199C49.8911 9.79199 45.7111 13.9721 45.7111 19.1283C45.7111 24.2845 49.8911 28.4645 55.0473 28.4645C60.1909 28.434 64.353 24.2719 64.3836 19.1283C64.3836 13.9721 60.2038 9.79199 55.0473 9.79199ZM54.954 26.5973C50.8598 26.5415 47.5617 23.2227 47.5316 19.1283H47.485C47.485 15.0033 50.829 11.6592 54.954 11.6592C59.079 11.6592 62.423 15.0033 62.423 19.1283C62.423 23.2533 59.079 26.5973 54.954 26.5973Z" fill="black" fill-opacity="0.2"/>
<path d="M109.729 21.9589L96.7892 8.9815C96.708 8.90284 96.613 8.83959 96.5091 8.79477C96.4132 8.75883 96.3126 8.73665 96.2103 8.72942H96.0796C96.0021 8.71961 95.9237 8.71961 95.8462 8.72942H95.7529C95.6553 8.77633 95.5643 8.83608 95.4821 8.90681L82.8034 21.6882H73.6726C73.8931 20.8236 74.0182 19.9376 74.046 19.046C74.046 8.52729 65.5187 0 55 0C44.4813 0 35.954 8.52729 35.954 19.046C35.9781 19.9381 36.1034 20.8243 36.3275 21.6882H27.1966L14.5366 8.9815C14.4582 8.90377 14.3664 8.84052 14.2658 8.79477C14.1697 8.75976 14.0691 8.73782 13.9671 8.72942H13.8644C13.7899 8.72031 13.7148 8.72031 13.6403 8.72942H13.547C13.4471 8.77236 13.3553 8.83235 13.2762 8.90681L0.270767 21.9589C0.0959451 22.1351 -0.00138554 22.3737 1.49059e-05 22.6218V87.5556C-0.00185235 87.9358 0.22712 88.2794 0.578864 88.4239C0.691833 88.4685 0.812271 88.4906 0.933642 88.4892C1.18175 88.4906 1.4203 88.3933 1.59652 88.2185L13.9204 75.9039L26.1509 88.2185C26.3271 88.3933 26.5657 88.4906 26.8138 88.4892H83.1862C83.4343 88.4906 83.6729 88.3933 83.8491 88.2185L96.1263 75.9039L108.404 88.2185C108.58 88.3933 108.818 88.4906 109.066 88.4892C109.188 88.4906 109.308 88.4685 109.421 88.4239C109.773 88.2794 110.002 87.9358 110 87.5556V22.6218C110.001 22.3737 109.904 22.1351 109.729 21.9589ZM12.9868 35.5992C12.6915 35.1765 12.1094 35.0731 11.6867 35.3686C11.5726 35.4484 11.4776 35.5528 11.4089 35.6739L9.03753 39.9219C8.78568 40.3705 8.9444 40.9384 9.39231 41.1916C9.53352 41.2666 9.69014 41.3081 9.84979 41.313C10.192 41.314 10.5071 41.1277 10.6714 40.8275L12.9868 36.6916V74.1954L1.86727 85.3335V56.4751L4.0893 52.5072C4.34722 52.056 4.19037 51.4814 3.73919 51.2235C3.28802 50.9656 2.71337 51.1224 2.45546 51.5736L1.86727 52.6566V23.0046L12.9868 11.9038V35.5992ZM25.8802 85.3335L14.854 74.1954V38.4374L15.3769 39.5111C15.5314 39.8353 15.8579 40.0424 16.2171 40.0433C16.3558 40.0391 16.4923 40.0073 16.6186 39.9499C17.0821 39.7242 17.2752 39.1654 17.0495 38.7019C17.049 38.701 17.0485 38.6998 17.0481 38.6989L15.4329 35.3658C15.3089 35.1438 15.1 34.9821 14.854 34.9177V11.9038L25.8802 23.0046V85.3335ZM55 1.88593C64.4761 1.8962 72.1582 9.56992 72.1788 19.046C72.1788 24.209 65.8768 36.0754 55.7376 49.9958C55.5758 50.2418 55.2936 50.3811 55 50.3599C54.7111 50.3818 54.4328 50.2462 54.2718 50.0051C44.1233 35.9633 37.8213 24.0969 37.8213 19.046C37.8418 9.56992 45.5239 1.8962 55 1.88593ZM82.2526 56.9139L80.6001 54.3651C80.3191 53.9319 79.7402 53.8087 79.307 54.0897C78.8738 54.3707 78.7506 54.9496 79.0316 55.3828L82.2526 60.331V86.622H27.7474V50.64L27.9902 51.1908C28.1489 51.5243 28.4892 51.733 28.8584 51.723C28.9905 51.7223 29.121 51.6938 29.2412 51.6389C29.7118 51.4282 29.9225 50.8759 29.7118 50.4052C29.7106 50.4023 29.7094 50.3998 29.708 50.3972L27.7474 46.1212V23.5554H36.8503C38.9136 29.9134 44.534 39.7165 52.7686 51.1254C53.7002 52.3604 55.4566 52.6064 56.6915 51.6746C56.8992 51.518 57.0841 51.3332 57.2407 51.1254C65.494 39.7725 71.1238 29.9694 73.1684 23.5554H82.2526V56.9139ZM95.1927 74.1954L84.1199 85.3335V60.275C84.1479 60.152 84.1479 60.0246 84.1199 59.9015V23.0046L95.1927 11.9038V49.2488L91.6729 46.8494C91.2439 46.5633 90.6644 46.679 90.3782 47.108C90.0969 47.5296 90.2034 48.0984 90.6179 48.3899L95.1927 51.5176V74.1954ZM108.133 32.3409C108.038 32.4095 107.953 32.4912 107.881 32.5836L105.416 36.1687C105.123 36.5917 105.227 37.1721 105.649 37.4665C105.805 37.5755 105.991 37.6341 106.181 37.6345C106.489 37.632 106.775 37.4784 106.947 37.2237L108.123 35.5245V85.3335L97.0599 74.2327V51.6109L99.0486 48.7167C99.3417 48.2938 99.2374 47.7133 98.8151 47.4189C98.3922 47.1241 97.8101 47.228 97.5153 47.6512C97.513 47.6547 97.5104 47.6582 97.5081 47.6617L97.0599 48.3152V11.9038L108.133 23.0046V32.3409Z" fill="#00BF80"/>
<path d="M109.729 21.9589L96.7892 8.9815C96.708 8.90284 96.613 8.83959 96.5091 8.79477C96.4132 8.75883 96.3126 8.73665 96.2103 8.72942H96.0796C96.0021 8.71961 95.9237 8.71961 95.8462 8.72942H95.7529C95.6553 8.77633 95.5643 8.83608 95.4821 8.90681L82.8034 21.6882H73.6726C73.8931 20.8236 74.0182 19.9376 74.046 19.046C74.046 8.52729 65.5187 0 55 0C44.4813 0 35.954 8.52729 35.954 19.046C35.9781 19.9381 36.1034 20.8243 36.3275 21.6882H27.1966L14.5366 8.9815C14.4582 8.90377 14.3664 8.84052 14.2658 8.79477C14.1697 8.75976 14.0691 8.73782 13.9671 8.72942H13.8644C13.7899 8.72031 13.7148 8.72031 13.6403 8.72942H13.547C13.4471 8.77236 13.3553 8.83235 13.2762 8.90681L0.270767 21.9589C0.0959451 22.1351 -0.00138554 22.3737 1.49059e-05 22.6218V87.5556C-0.00185235 87.9358 0.22712 88.2794 0.578864 88.4239C0.691833 88.4685 0.812271 88.4906 0.933642 88.4892C1.18175 88.4906 1.4203 88.3933 1.59652 88.2185L13.9204 75.9039L26.1509 88.2185C26.3271 88.3933 26.5657 88.4906 26.8138 88.4892H83.1862C83.4343 88.4906 83.6729 88.3933 83.8491 88.2185L96.1263 75.9039L108.404 88.2185C108.58 88.3933 108.818 88.4906 109.066 88.4892C109.188 88.4906 109.308 88.4685 109.421 88.4239C109.773 88.2794 110.002 87.9358 110 87.5556V22.6218C110.001 22.3737 109.904 22.1351 109.729 21.9589ZM12.9868 35.5992C12.6915 35.1765 12.1094 35.0731 11.6867 35.3686C11.5726 35.4484 11.4776 35.5528 11.4089 35.6739L9.03753 39.9219C8.78568 40.3705 8.9444 40.9384 9.39231 41.1916C9.53352 41.2666 9.69014 41.3081 9.84979 41.313C10.192 41.314 10.5071 41.1277 10.6714 40.8275L12.9868 36.6916V74.1954L1.86727 85.3335V56.4751L4.0893 52.5072C4.34722 52.056 4.19037 51.4814 3.73919 51.2235C3.28802 50.9656 2.71337 51.1224 2.45546 51.5736L1.86727 52.6566V23.0046L12.9868 11.9038V35.5992ZM25.8802 85.3335L14.854 74.1954V38.4374L15.3769 39.5111C15.5314 39.8353 15.8579 40.0424 16.2171 40.0433C16.3558 40.0391 16.4923 40.0073 16.6186 39.9499C17.0821 39.7242 17.2752 39.1654 17.0495 38.7019C17.049 38.701 17.0485 38.6998 17.0481 38.6989L15.4329 35.3658C15.3089 35.1438 15.1 34.9821 14.854 34.9177V11.9038L25.8802 23.0046V85.3335ZM55 1.88593C64.4761 1.8962 72.1582 9.56992 72.1788 19.046C72.1788 24.209 65.8768 36.0754 55.7376 49.9958C55.5758 50.2418 55.2936 50.3811 55 50.3599C54.7111 50.3818 54.4328 50.2462 54.2718 50.0051C44.1233 35.9633 37.8213 24.0969 37.8213 19.046C37.8418 9.56992 45.5239 1.8962 55 1.88593ZM82.2526 56.9139L80.6001 54.3651C80.3191 53.9319 79.7402 53.8087 79.307 54.0897C78.8738 54.3707 78.7506 54.9496 79.0316 55.3828L82.2526 60.331V86.622H27.7474V50.64L27.9902 51.1908C28.1489 51.5243 28.4892 51.733 28.8584 51.723C28.9905 51.7223 29.121 51.6938 29.2412 51.6389C29.7118 51.4282 29.9225 50.8759 29.7118 50.4052C29.7106 50.4023 29.7094 50.3998 29.708 50.3972L27.7474 46.1212V23.5554H36.8503C38.9136 29.9134 44.534 39.7165 52.7686 51.1254C53.7002 52.3604 55.4566 52.6064 56.6915 51.6746C56.8992 51.518 57.0841 51.3332 57.2407 51.1254C65.494 39.7725 71.1238 29.9694 73.1684 23.5554H82.2526V56.9139ZM95.1927 74.1954L84.1199 85.3335V60.275C84.1479 60.152 84.1479 60.0246 84.1199 59.9015V23.0046L95.1927 11.9038V49.2488L91.6729 46.8494C91.2439 46.5633 90.6644 46.679 90.3782 47.108C90.0969 47.5296 90.2034 48.0984 90.6179 48.3899L95.1927 51.5176V74.1954ZM108.133 32.3409C108.038 32.4095 107.953 32.4912 107.881 32.5836L105.416 36.1687C105.123 36.5917 105.227 37.1721 105.649 37.4665C105.805 37.5755 105.991 37.6341 106.181 37.6345C106.489 37.632 106.775 37.4784 106.947 37.2237L108.123 35.5245V85.3335L97.0599 74.2327V51.6109L99.0486 48.7167C99.3417 48.2938 99.2374 47.7133 98.8151 47.4189C98.3922 47.1241 97.8101 47.228 97.5153 47.6512C97.513 47.6547 97.5104 47.6582 97.5081 47.6617L97.0599 48.3152V11.9038L108.133 23.0046V32.3409Z" fill="black" fill-opacity="0.2"/>
<path d="M7.9924 43.6158C7.54379 43.364 6.97591 43.5227 6.72266 43.9706L4.70603 47.5744C4.45581 48.0254 4.6185 48.5937 5.06944 48.8437C5.06967 48.8439 5.06991 48.8439 5.07014 48.8442C5.20692 48.9216 5.36097 48.9634 5.51828 48.9655C5.86046 48.9665 6.17556 48.7802 6.33987 48.48L8.31916 44.8856C8.57568 44.4442 8.43027 43.8784 7.9924 43.6158Z" fill="#00BF80"/>
<path d="M7.9924 43.6158C7.54379 43.364 6.97591 43.5227 6.72266 43.9706L4.70603 47.5744C4.45581 48.0254 4.6185 48.5937 5.06944 48.8437C5.06967 48.8439 5.06991 48.8439 5.07014 48.8442C5.20692 48.9216 5.36097 48.9634 5.51828 48.9655C5.86046 48.9665 6.17556 48.7802 6.33987 48.48L8.31916 44.8856C8.57568 44.4442 8.43027 43.8784 7.9924 43.6158Z" fill="black" fill-opacity="0.2"/>
<path d="M22.5275 45.4981H20.3055L19.1291 43.0707C18.9177 42.6003 18.3652 42.3905 17.8949 42.6017C17.4246 42.8132 17.2147 43.3657 17.426 43.836C17.433 43.8519 17.4407 43.8675 17.4486 43.8829L18.8864 46.8425C19.0435 47.1632 19.3695 47.366 19.7267 47.3653H22.5275C23.0431 47.3653 23.4612 46.9473 23.4612 46.4317C23.4612 45.9161 23.0431 45.4981 22.5275 45.4981Z" fill="#00BF80"/>
<path d="M22.5275 45.4981H20.3055L19.1291 43.0707C18.9177 42.6003 18.3652 42.3905 17.8949 42.6017C17.4246 42.8132 17.2147 43.3657 17.426 43.836C17.433 43.8519 17.4407 43.8675 17.4486 43.8829L18.8864 46.8425C19.0435 47.1632 19.3695 47.366 19.7267 47.3653H22.5275C23.0431 47.3653 23.4612 46.9473 23.4612 46.4317C23.4612 45.9161 23.0431 45.4981 22.5275 45.4981Z" fill="black" fill-opacity="0.2"/>
<path d="M33.2549 58.33L31.7517 54.9876C31.5402 54.5159 30.9864 54.3047 30.5147 54.5162C30.0429 54.7276 29.8317 55.2815 30.0432 55.7532L31.5463 59.0956C31.698 59.4333 32.0351 59.6495 32.4053 59.6464C32.5374 59.6457 32.6678 59.6173 32.788 59.5624C33.2565 59.3502 33.4652 58.7992 33.2549 58.33Z" fill="#00BF80"/>
<path d="M33.2549 58.33L31.7517 54.9876C31.5402 54.5159 30.9864 54.3047 30.5147 54.5162C30.0429 54.7276 29.8317 55.2815 30.0432 55.7532L31.5463 59.0956C31.698 59.4333 32.0351 59.6495 32.4053 59.6464C32.5374 59.6457 32.6678 59.6173 32.788 59.5624C33.2565 59.3502 33.4652 58.7992 33.2549 58.33Z" fill="black" fill-opacity="0.2"/>
<path d="M37.0268 66.7181L35.1595 62.6661C34.9481 62.1944 34.3942 61.9832 33.9225 62.1946C33.4507 62.4061 33.2395 62.96 33.451 63.4317L35.3276 67.4836C35.4779 67.8181 35.8103 68.0338 36.1772 68.0345C36.3093 68.0338 36.4398 68.0053 36.56 67.9505C37.0284 67.7383 37.2371 67.1872 37.0268 66.7181Z" fill="#00BF80"/>
<path d="M37.0268 66.7181L35.1595 62.6661C34.9481 62.1944 34.3942 61.9832 33.9225 62.1946C33.4507 62.4061 33.2395 62.96 33.451 63.4317L35.3276 67.4836C35.4779 67.8181 35.8103 68.0338 36.1772 68.0345C36.3093 68.0338 36.4398 68.0053 36.56 67.9505C37.0284 67.7383 37.2371 67.1872 37.0268 66.7181Z" fill="black" fill-opacity="0.2"/>
<path d="M42.1668 73.2036C41.8629 72.8794 41.3723 72.8143 40.9944 73.0482L40.1728 73.6831L38.8844 70.8075C38.6729 70.3358 38.119 70.1245 37.6473 70.336C37.1756 70.5475 36.9644 71.1013 37.1758 71.573H37.1665L38.9404 75.5223C39.0578 75.7833 39.2884 75.9758 39.5659 76.0451C39.8451 76.1161 40.1415 76.054 40.3688 75.8771L42.1241 74.5233C42.5003 74.1706 42.5194 73.5799 42.1668 73.2036Z" fill="#00BF80"/>
<path d="M42.1668 73.2036C41.8629 72.8794 41.3723 72.8143 40.9944 73.0482L40.1728 73.6831L38.8844 70.8075C38.6729 70.3358 38.119 70.1245 37.6473 70.336C37.1756 70.5475 36.9644 71.1013 37.1758 71.573H37.1665L38.9404 75.5223C39.0578 75.7833 39.2884 75.9758 39.5659 76.0451C39.8451 76.1161 40.1415 76.054 40.3688 75.8771L42.1241 74.5233C42.5003 74.1706 42.5194 73.5799 42.1668 73.2036Z" fill="black" fill-opacity="0.2"/>
<path d="M48.395 68.538C48.0803 68.1281 47.4931 68.0506 47.0832 68.3653L43.9556 70.7647C43.5431 71.074 43.4593 71.6593 43.7688 72.0718C43.9472 72.3096 44.228 72.4483 44.5251 72.4452C44.7314 72.4445 44.9317 72.3757 45.0946 72.2492L48.2222 69.8497C48.6321 69.5351 48.7096 68.9478 48.395 68.538Z" fill="#00BF80"/>
<path d="M48.395 68.538C48.0803 68.1281 47.4931 68.0506 47.0832 68.3653L43.9556 70.7647C43.5431 71.074 43.4593 71.6593 43.7688 72.0718C43.9472 72.3096 44.228 72.4483 44.5251 72.4452C44.7314 72.4445 44.9317 72.3757 45.0946 72.2492L48.2222 69.8497C48.6321 69.5351 48.7096 68.9478 48.395 68.538Z" fill="black" fill-opacity="0.2"/>
<path d="M56.0868 62.5413C55.7764 62.1868 55.2505 62.1191 54.8605 62.3836L51.4901 64.9697C51.0723 65.272 50.9785 65.8555 51.2807 66.2733C51.4609 66.5224 51.7522 66.6668 52.0596 66.6596C52.2659 66.6589 52.4662 66.59 52.6291 66.4635L55.9995 63.8587C56.3874 63.5193 56.4267 62.9293 56.0868 62.5413Z" fill="#00BF80"/>
<path d="M56.0868 62.5413C55.7764 62.1868 55.2505 62.1191 54.8605 62.3836L51.4901 64.9697C51.0723 65.272 50.9785 65.8555 51.2807 66.2733C51.4609 66.5224 51.7522 66.6668 52.0596 66.6596C52.2659 66.6589 52.4662 66.59 52.6291 66.4635L55.9995 63.8587C56.3874 63.5193 56.4267 62.9293 56.0868 62.5413Z" fill="black" fill-opacity="0.2"/>
<path d="M63.7881 56.5164C63.4933 56.2482 63.0611 56.1969 62.7117 56.3883L58.7344 59.4039C58.3374 59.733 58.2823 60.3214 58.6112 60.7184C58.789 60.9329 59.0532 61.0569 59.3319 61.0564C59.5383 61.0557 59.7385 60.9868 59.9014 60.8603L63.8507 57.8354C64.1978 57.454 64.1697 56.8635 63.7881 56.5164Z" fill="#00BF80"/>
<path d="M63.7881 56.5164C63.4933 56.2482 63.0611 56.1969 62.7117 56.3883L58.7344 59.4039C58.3374 59.733 58.2823 60.3214 58.6112 60.7184C58.789 60.9329 59.0532 61.0569 59.3319 61.0564C59.5383 61.0557 59.7385 60.9868 59.9014 60.8603L63.8507 57.8354C64.1978 57.454 64.1697 56.8635 63.7881 56.5164Z" fill="black" fill-opacity="0.2"/>
<path d="M71.6052 50.8544C71.3158 50.4277 70.7353 50.3161 70.3084 50.6055C70.2766 50.627 70.2463 50.6506 70.2174 50.6758L66.4828 53.4767C66.0765 53.7918 66.0013 54.3762 66.3148 54.7838C66.491 55.0127 66.7634 55.1472 67.0524 55.1479C67.2587 55.1472 67.459 55.0783 67.6219 54.9518L71.3564 52.1509C71.7833 51.8617 71.8946 51.2813 71.6052 50.8544Z" fill="#00BF80"/>
<path d="M71.6052 50.8544C71.3158 50.4277 70.7353 50.3161 70.3084 50.6055C70.2766 50.627 70.2463 50.6506 70.2174 50.6758L66.4828 53.4767C66.0765 53.7918 66.0013 54.3762 66.3148 54.7838C66.491 55.0127 66.7634 55.1472 67.0524 55.1479C67.2587 55.1472 67.459 55.0783 67.6219 54.9518L71.3564 52.1509C71.7833 51.8617 71.8946 51.2813 71.6052 50.8544Z" fill="black" fill-opacity="0.2"/>
<path d="M78.163 50.6378L76.053 47.4168C75.9163 47.1934 75.6868 47.0426 75.4275 47.006C75.1736 46.9635 74.9135 47.0277 74.7086 47.1834L73.1494 48.3597C72.737 48.6744 72.6574 49.2637 72.9721 49.6762C73.2867 50.0886 73.876 50.1682 74.2885 49.8535L75.0447 49.2747L76.5945 51.6648C76.8781 52.098 77.4591 52.2191 77.8923 51.9355C78.3255 51.6519 78.4466 51.071 78.163 50.6378Z" fill="#00BF80"/>
<path d="M78.163 50.6378L76.053 47.4168C75.9163 47.1934 75.6868 47.0426 75.4275 47.006C75.1736 46.9635 74.9135 47.0277 74.7086 47.1834L73.1494 48.3597C72.737 48.6744 72.6574 49.2637 72.9721 49.6762C73.2867 50.0886 73.876 50.1682 74.2885 49.8535L75.0447 49.2747L76.5945 51.6648C76.8781 52.098 77.4591 52.2191 77.8923 51.9355C78.3255 51.6519 78.4466 51.071 78.163 50.6378Z" fill="black" fill-opacity="0.2"/>
<path d="M89.722 49.856C89.722 49.856 89.7217 49.856 89.722 49.856C89.2862 49.5801 88.7094 49.7094 88.4335 50.1452V50.1454L86.0528 53.8799C85.7769 54.3155 85.9064 54.8922 86.342 55.1681H86.3422C86.4883 55.2664 86.6608 55.3184 86.837 55.3175C87.1596 55.3182 87.4598 55.1522 87.6306 54.8787L90.0114 51.1442C90.287 50.7089 90.1575 50.1319 89.722 49.856Z" fill="#00BF80"/>
<path d="M89.722 49.856C89.722 49.856 89.7217 49.856 89.722 49.856C89.2862 49.5801 88.7094 49.7094 88.4335 50.1452V50.1454L86.0528 53.8799C85.7769 54.3155 85.9064 54.8922 86.342 55.1681H86.3422C86.4883 55.2664 86.6608 55.3184 86.837 55.3175C87.1596 55.3182 87.4598 55.1522 87.6306 54.8787L90.0114 51.1442C90.287 50.7089 90.1575 50.1319 89.722 49.856Z" fill="black" fill-opacity="0.2"/>
<path d="M104.409 39.2959C103.986 39.0027 103.405 39.1071 103.111 39.5293L100.45 43.3945C100.159 43.82 100.267 44.401 100.693 44.6923C100.846 44.7994 101.028 44.858 101.216 44.8603C101.526 44.8608 101.817 44.7067 101.99 44.4495L104.651 40.5936C104.943 40.1681 104.834 39.5872 104.409 39.2959Z" fill="#00BF80"/>
<path d="M104.409 39.2959C103.986 39.0027 103.405 39.1071 103.111 39.5293L100.45 43.3945C100.159 43.82 100.267 44.401 100.693 44.6923C100.846 44.7994 101.028 44.858 101.216 44.8603C101.526 44.8608 101.817 44.7067 101.99 44.4495L104.651 40.5936C104.943 40.1681 104.834 39.5872 104.409 39.2959Z" fill="black" fill-opacity="0.2"/>
<path d="M76.3715 80.2695H68.2676C67.752 80.2695 67.334 80.6876 67.334 81.2032C67.334 81.7188 67.752 82.1368 68.2676 82.1368H76.3715C76.8871 82.1368 77.3051 81.7188 77.3051 81.2032C77.3051 80.6876 76.8871 80.2695 76.3715 80.2695Z" fill="#00BF80"/>
<path d="M76.3715 80.2695H68.2676C67.752 80.2695 67.334 80.6876 67.334 81.2032C67.334 81.7188 67.752 82.1368 68.2676 82.1368H76.3715C76.8871 82.1368 77.3051 81.7188 77.3051 81.2032C77.3051 80.6876 76.8871 80.2695 76.3715 80.2695Z" fill="black" fill-opacity="0.2"/>
<path d="M76.3715 76.0703H68.2676C67.752 76.0703 67.334 76.4883 67.334 77.0039C67.334 77.5195 67.752 77.9376 68.2676 77.9376H76.3715C76.8871 77.9376 77.3051 77.5195 77.3051 77.0039C77.3051 76.4883 76.8871 76.0703 76.3715 76.0703Z" fill="#00BF80"/>
<path d="M76.3715 76.0703H68.2676C67.752 76.0703 67.334 76.4883 67.334 77.0039C67.334 77.5195 67.752 77.9376 68.2676 77.9376H76.3715C76.8871 77.9376 77.3051 77.5195 77.3051 77.0039C77.3051 76.4883 76.8871 76.0703 76.3715 76.0703Z" fill="black" fill-opacity="0.2"/>
</g>
<defs>
<clipPath id="clip0_222_4062">
<rect width="110" height="110" fill="white"/>
</clipPath>
</defs>
</svg>
