<svg width="110" height="110" viewBox="0 0 110 110" fill="none" xmlns="http://www.w3.org/2000/svg">
<g clip-path="url(#clip0_222_4149)">
<path d="M86.1363 25.0315C86.1358 25.0296 86.1354 25.028 86.1351 25.0262C85.3296 22.0873 82.7421 19.9877 79.7002 19.8047C79.4132 19.8185 79.1275 19.8523 78.8453 19.9059L80.3253 17.5985C80.4897 17.314 80.4897 16.9637 80.3253 16.6792C80.1693 16.386 79.8671 16.1996 79.5348 16.192C79.2682 16.192 76.777 16.192 72.6586 19.8691C65.139 26.6257 56.9759 21.5422 56.6358 21.3215C56.217 21.0724 55.6765 21.1935 55.4039 21.5973C55.1305 22.0239 55.2539 22.5913 55.6797 22.8659C55.7716 22.9303 65.3504 28.9423 73.918 21.2388C74.9665 20.2625 76.1342 19.4223 77.3929 18.7384L76.0967 20.8067C75.8184 21.2315 75.937 21.8012 76.3617 22.0795C76.5848 22.2256 76.8606 22.2679 77.1171 22.1948C77.9711 21.9345 78.8439 21.7407 79.7278 21.6157C81.8973 21.8244 83.7195 23.3366 84.3242 25.4307C84.4241 25.8547 84.8079 26.1502 85.2434 26.1385C85.3135 26.1482 85.3848 26.1482 85.4549 26.1385C85.9487 26.0211 86.2539 25.5254 86.1363 25.0315Z" fill="#00BF80"/>
<path d="M86.1363 25.0315C86.1358 25.0296 86.1354 25.028 86.1351 25.0262C85.3296 22.0873 82.7421 19.9877 79.7002 19.8047C79.4132 19.8185 79.1275 19.8523 78.8453 19.9059L80.3253 17.5985C80.4897 17.314 80.4897 16.9637 80.3253 16.6792C80.1693 16.386 79.8671 16.1996 79.5348 16.192C79.2682 16.192 76.777 16.192 72.6586 19.8691C65.139 26.6257 56.9759 21.5422 56.6358 21.3215C56.217 21.0724 55.6765 21.1935 55.4039 21.5973C55.1305 22.0239 55.2539 22.5913 55.6797 22.8659C55.7716 22.9303 65.3504 28.9423 73.918 21.2388C74.9665 20.2625 76.1342 19.4223 77.3929 18.7384L76.0967 20.8067C75.8184 21.2315 75.937 21.8012 76.3617 22.0795C76.5848 22.2256 76.8606 22.2679 77.1171 22.1948C77.9711 21.9345 78.8439 21.7407 79.7278 21.6157C81.8973 21.8244 83.7195 23.3366 84.3242 25.4307C84.4241 25.8547 84.8079 26.1502 85.2434 26.1385C85.3135 26.1482 85.3848 26.1482 85.4549 26.1385C85.9487 26.0211 86.2539 25.5254 86.1363 25.0315Z" fill="black" fill-opacity="0.2"/>
<path d="M66.1408 33.0677C65.3093 32.481 64.308 32.1839 63.2911 32.222C62.2714 32.1852 61.2678 32.4822 60.4322 33.0677C60.0102 33.3502 59.8974 33.9213 60.1798 34.343C60.4623 34.7649 61.0334 34.8778 61.4551 34.5953C61.493 34.5698 61.5291 34.5418 61.5629 34.511C62.0783 34.1853 62.6823 34.0279 63.2911 34.0605C63.8971 34.0275 64.4983 34.1849 65.0101 34.511C65.4082 34.8261 65.9864 34.759 66.3015 34.3609C66.3031 34.3589 66.3047 34.3568 66.3063 34.3547C66.6149 33.9535 66.5409 33.378 66.1408 33.0677Z" fill="#00BF80"/>
<path d="M66.1408 33.0677C65.3093 32.481 64.308 32.1839 63.2911 32.222C62.2714 32.1852 61.2678 32.4822 60.4322 33.0677C60.0102 33.3502 59.8974 33.9213 60.1798 34.343C60.4623 34.7649 61.0334 34.8778 61.4551 34.5953C61.493 34.5698 61.5291 34.5418 61.5629 34.511C62.0783 34.1853 62.6823 34.0279 63.2911 34.0605C63.8971 34.0275 64.4983 34.1849 65.0101 34.511C65.4082 34.8261 65.9864 34.759 66.3015 34.3609C66.3031 34.3589 66.3047 34.3568 66.3063 34.3547C66.6149 33.9535 66.5409 33.378 66.1408 33.0677Z" fill="black" fill-opacity="0.2"/>
<path d="M80.1954 33.1521C80.1616 33.1213 80.1256 33.093 80.0876 33.0677C79.252 32.4822 78.2484 32.1852 77.2287 32.222C76.2118 32.1839 75.2104 32.481 74.379 33.0677C73.9788 33.378 73.9048 33.9535 74.2135 34.3547C74.5251 34.7555 75.1029 34.8274 75.5035 34.5158C75.5055 34.5142 75.5076 34.5126 75.5097 34.511C76.0215 34.1849 76.6227 34.0275 77.2287 34.0605C77.8375 34.0279 78.4415 34.1853 78.9569 34.511C79.3322 34.853 79.9137 34.8261 80.2556 34.4508C80.5976 34.0755 80.5707 33.4941 80.1954 33.1521Z" fill="#00BF80"/>
<path d="M80.1954 33.1521C80.1616 33.1213 80.1256 33.093 80.0876 33.0677C79.252 32.4822 78.2484 32.1852 77.2287 32.222C76.2118 32.1839 75.2104 32.481 74.379 33.0677C73.9788 33.378 73.9048 33.9535 74.2135 34.3547C74.5251 34.7555 75.1029 34.8274 75.5035 34.5158C75.5055 34.5142 75.5076 34.5126 75.5097 34.511C76.0215 34.1849 76.6227 34.0275 77.2287 34.0605C77.8375 34.0279 78.4415 34.1853 78.9569 34.511C79.3322 34.853 79.9137 34.8261 80.2556 34.4508C80.5976 34.0755 80.5707 33.4941 80.1954 33.1521Z" fill="black" fill-opacity="0.2"/>
<path d="M46.6794 23.3711L30.5371 23.3711C30.0294 23.3711 29.6178 23.7827 29.6178 24.2904C29.6178 24.798 30.0294 25.2096 30.5371 25.2096L46.6794 25.2096C47.1871 25.2096 47.5987 24.798 47.5987 24.2904C47.5987 23.7827 47.1871 23.3711 46.6794 23.3711Z" fill="#00BF80"/>
<path d="M46.6794 23.3711L30.5371 23.3711C30.0294 23.3711 29.6178 23.7827 29.6178 24.2904C29.6178 24.798 30.0294 25.2096 30.5371 25.2096L46.6794 25.2096C47.1871 25.2096 47.5987 24.798 47.5987 24.2904C47.5987 23.7827 47.1871 23.3711 46.6794 23.3711Z" fill="black" fill-opacity="0.2"/>
<path d="M46.6803 29.3827L30.538 29.3827C30.0303 29.3827 29.6187 29.7943 29.6187 30.302C29.6187 30.8096 30.0303 31.2212 30.538 31.2212L46.6803 31.2212C47.188 31.2212 47.5996 30.8096 47.5996 30.302C47.5996 29.7943 47.188 29.3827 46.6803 29.3827Z" fill="#00BF80"/>
<path d="M46.6803 29.3827L30.538 29.3827C30.0303 29.3827 29.6187 29.7943 29.6187 30.302C29.6187 30.8096 30.0303 31.2212 30.538 31.2212L46.6803 31.2212C47.188 31.2212 47.5996 30.8096 47.5996 30.302C47.5996 29.7943 47.188 29.3827 46.6803 29.3827Z" fill="black" fill-opacity="0.2"/>
<path d="M104.815 69.5165L87.1286 62.1623L83.4515 55.8837C83.4515 55.8837 83.4515 55.8837 83.4515 55.8286C83.4221 55.7961 83.388 55.7683 83.3504 55.7458C83.3145 55.6989 83.2711 55.6587 83.2217 55.6263C83.1683 55.5951 83.1132 55.5675 83.0562 55.5436L82.8999 55.4884L82.5322 55.4884C82.4725 55.5013 82.4138 55.5197 82.3575 55.5436L82.238 55.5436L70.4898 64.3686L58.8243 55.6079L58.7048 55.6079C58.6498 55.5785 58.591 55.5569 58.5301 55.5436L58.1808 55.5436L58.0153 55.6079C57.9599 55.6247 57.9073 55.6495 57.859 55.6815C57.8087 55.7159 57.7625 55.7559 57.7211 55.801C57.6883 55.826 57.6575 55.8536 57.6292 55.8837L57.6292 55.9389L53.9521 62.1899L47.5172 64.8282C47.3447 64.6264 47.0932 64.5092 46.8278 64.5064L30.5383 64.5064C30.0307 64.5064 29.6191 64.918 29.6191 65.4257C29.6191 65.9334 30.0307 66.345 30.5383 66.345L43.7207 66.345L36.5687 69.2223L36.4309 69.2958C35.8816 69.6371 35.3647 70.028 34.8865 70.4633L30.5383 70.4633C30.0307 70.4633 29.6191 70.8749 29.6191 71.3826C29.6191 71.8903 30.0307 72.3018 30.5383 72.3018L33.2961 72.3018C32.0487 74.0822 31.3809 76.2041 31.3841 78.3782L31.3841 84.1604L1.79279 84.1604L1.79279 14.3511L13.3664 14.3511C13.8741 14.3511 14.2857 13.9395 14.2857 13.4318L14.2857 1.84905L59.2195 1.84905L59.2195 7.18081C59.2248 7.3819 59.2958 7.57564 59.4218 7.73238C53.6897 11.8962 50.3589 18.6025 50.5049 25.6857C50.4996 27.9512 50.8089 30.2067 51.4241 32.3872C48.7054 34.6762 48.357 38.7354 50.646 41.4542C51.3467 42.2863 52.2469 42.9275 53.2627 43.3173C56.2411 51.7562 62.8598 57.1799 70.2324 57.1799C77.6049 57.1799 84.2329 51.7562 87.2205 43.3173C90.5384 42.0439 92.1956 38.3218 90.9221 35.0039C90.5324 33.9881 89.8912 33.0879 89.059 32.3872C89.6742 30.2067 89.9836 27.9512 89.9783 25.6857C89.9783 13.7352 81.3188 4.34027 70.2508 4.34027C67.034 4.33131 63.869 5.14785 61.0581 6.71199L61.0581 0.929783C61.0581 0.422117 60.6465 0.0105138 60.1388 0.0105138L13.3664 0.0105141L13.3112 0.0105141C13.2322 -0.0035048 13.1513 -0.0035048 13.0722 0.0105141L12.9803 0.0105141C12.8835 0.054639 12.796 0.117149 12.7229 0.194368L0.220836 12.7608C0.149133 12.8401 0.0903 12.9299 0.0461751 13.0274C0.0461751 13.0274 0.0461751 13.0825 0.0461751 13.1101C0.0220442 13.191 0.00664647 13.2742 0.000211586 13.3583C0.000211586 13.3583 0.000211586 13.3583 0.000211586 13.4135L0.000212038 85.0613C-0.0103596 85.5586 0.376653 85.9741 0.873518 85.999L31.3749 85.999L31.3749 90.7792C31.3749 91.2868 31.7865 91.6984 32.2941 91.6984C32.8018 91.6984 33.2134 91.2868 33.2134 90.7792L33.2134 78.3782C33.2146 75.341 34.7725 72.5165 37.3409 70.8954L53.8878 64.102L62.9058 73.929C63.0812 74.1181 63.328 74.225 63.5861 74.2231C63.8469 74.2201 64.0942 74.1066 64.2663 73.9106L66.1508 71.7871L66.1508 90.7792C66.1508 91.2868 66.5624 91.6984 67.0701 91.6984C67.5778 91.6984 67.9894 91.2868 67.9894 90.7792L67.9894 69.7555L70.4898 66.9333L72.9994 69.7555L72.9994 90.8067C72.9994 91.3144 73.411 91.726 73.9187 91.726C74.4263 91.726 74.8379 91.3144 74.8379 90.8067L74.8379 71.7962L76.6765 73.9106C76.8486 74.1066 77.0959 74.2201 77.3567 74.2231C77.6116 74.2222 77.8545 74.1158 78.0278 73.929L87.1286 64.1204L104.043 71.2171C107.628 73.0557 108.161 76.7327 108.161 78.7092L108.161 90.7792C108.161 91.2868 108.573 91.6984 109.081 91.6984C109.588 91.6984 110 91.2868 110 90.7792L110 78.7092C110 74.5081 108.161 71.2631 104.815 69.5165ZM70.2691 6.17881C80.2984 6.17881 88.1214 14.7464 88.1214 25.6857C88.1393 27.9816 87.8045 30.2664 87.1286 32.4607C87.007 32.8503 87.1568 33.2731 87.4963 33.4995C88.7593 34.3576 89.5138 35.7873 89.5095 37.3145C89.5338 39.3297 88.2216 41.1179 86.292 41.6994C85.9992 41.7803 85.7653 42.0004 85.6669 42.2877C83.0102 50.221 76.9706 55.3413 70.2692 55.3413C63.5677 55.3413 57.5373 50.221 54.8806 42.2877C54.7822 42.0004 54.5483 41.7803 54.2555 41.6994C52.3223 41.1212 51.0059 39.3323 51.0289 37.3145C51.0245 35.7873 51.779 34.3579 53.042 33.4995C53.3815 33.2731 53.5313 32.8503 53.4098 32.4607C52.7258 30.2676 52.3786 27.9832 52.3802 25.6857C52.3802 14.7464 60.2399 6.17881 70.2691 6.17881ZM12.4471 3.15442L12.4471 12.5126L3.08896 12.5126L12.4471 3.15442ZM63.5677 71.9341L55.423 63.054L58.5485 57.7039L69.1385 65.6463L63.5677 71.9341ZM77.4119 71.9341L71.8411 65.6463L82.4311 57.7039L85.5566 63.054L77.4119 71.9341Z" fill="#00BF80"/>
<path d="M104.815 69.5165L87.1286 62.1623L83.4515 55.8837C83.4515 55.8837 83.4515 55.8837 83.4515 55.8286C83.4221 55.7961 83.388 55.7683 83.3504 55.7458C83.3145 55.6989 83.2711 55.6587 83.2217 55.6263C83.1683 55.5951 83.1132 55.5675 83.0562 55.5436L82.8999 55.4884L82.5322 55.4884C82.4725 55.5013 82.4138 55.5197 82.3575 55.5436L82.238 55.5436L70.4898 64.3686L58.8243 55.6079L58.7048 55.6079C58.6498 55.5785 58.591 55.5569 58.5301 55.5436L58.1808 55.5436L58.0153 55.6079C57.9599 55.6247 57.9073 55.6495 57.859 55.6815C57.8087 55.7159 57.7625 55.7559 57.7211 55.801C57.6883 55.826 57.6575 55.8536 57.6292 55.8837L57.6292 55.9389L53.9521 62.1899L47.5172 64.8282C47.3447 64.6264 47.0932 64.5092 46.8278 64.5064L30.5383 64.5064C30.0307 64.5064 29.6191 64.918 29.6191 65.4257C29.6191 65.9334 30.0307 66.345 30.5383 66.345L43.7207 66.345L36.5687 69.2223L36.4309 69.2958C35.8816 69.6371 35.3647 70.028 34.8865 70.4633L30.5383 70.4633C30.0307 70.4633 29.6191 70.8749 29.6191 71.3826C29.6191 71.8903 30.0307 72.3018 30.5383 72.3018L33.2961 72.3018C32.0487 74.0822 31.3809 76.2041 31.3841 78.3782L31.3841 84.1604L1.79279 84.1604L1.79279 14.3511L13.3664 14.3511C13.8741 14.3511 14.2857 13.9395 14.2857 13.4318L14.2857 1.84905L59.2195 1.84905L59.2195 7.18081C59.2248 7.3819 59.2958 7.57564 59.4218 7.73238C53.6897 11.8962 50.3589 18.6025 50.5049 25.6857C50.4996 27.9512 50.8089 30.2067 51.4241 32.3872C48.7054 34.6762 48.357 38.7354 50.646 41.4542C51.3467 42.2863 52.2469 42.9275 53.2627 43.3173C56.2411 51.7562 62.8598 57.1799 70.2324 57.1799C77.6049 57.1799 84.2329 51.7562 87.2205 43.3173C90.5384 42.0439 92.1956 38.3218 90.9221 35.0039C90.5324 33.9881 89.8912 33.0879 89.059 32.3872C89.6742 30.2067 89.9836 27.9512 89.9783 25.6857C89.9783 13.7352 81.3188 4.34027 70.2508 4.34027C67.034 4.33131 63.869 5.14785 61.0581 6.71199L61.0581 0.929783C61.0581 0.422117 60.6465 0.0105138 60.1388 0.0105138L13.3664 0.0105141L13.3112 0.0105141C13.2322 -0.0035048 13.1513 -0.0035048 13.0722 0.0105141L12.9803 0.0105141C12.8835 0.054639 12.796 0.117149 12.7229 0.194368L0.220836 12.7608C0.149133 12.8401 0.0903 12.9299 0.0461751 13.0274C0.0461751 13.0274 0.0461751 13.0825 0.0461751 13.1101C0.0220442 13.191 0.00664647 13.2742 0.000211586 13.3583C0.000211586 13.3583 0.000211586 13.3583 0.000211586 13.4135L0.000212038 85.0613C-0.0103596 85.5586 0.376653 85.9741 0.873518 85.999L31.3749 85.999L31.3749 90.7792C31.3749 91.2868 31.7865 91.6984 32.2941 91.6984C32.8018 91.6984 33.2134 91.2868 33.2134 90.7792L33.2134 78.3782C33.2146 75.341 34.7725 72.5165 37.3409 70.8954L53.8878 64.102L62.9058 73.929C63.0812 74.1181 63.328 74.225 63.5861 74.2231C63.8469 74.2201 64.0942 74.1066 64.2663 73.9106L66.1508 71.7871L66.1508 90.7792C66.1508 91.2868 66.5624 91.6984 67.0701 91.6984C67.5778 91.6984 67.9894 91.2868 67.9894 90.7792L67.9894 69.7555L70.4898 66.9333L72.9994 69.7555L72.9994 90.8067C72.9994 91.3144 73.411 91.726 73.9187 91.726C74.4263 91.726 74.8379 91.3144 74.8379 90.8067L74.8379 71.7962L76.6765 73.9106C76.8486 74.1066 77.0959 74.2201 77.3567 74.2231C77.6116 74.2222 77.8545 74.1158 78.0278 73.929L87.1286 64.1204L104.043 71.2171C107.628 73.0557 108.161 76.7327 108.161 78.7092L108.161 90.7792C108.161 91.2868 108.573 91.6984 109.081 91.6984C109.588 91.6984 110 91.2868 110 90.7792L110 78.7092C110 74.5081 108.161 71.2631 104.815 69.5165ZM70.2691 6.17881C80.2984 6.17881 88.1214 14.7464 88.1214 25.6857C88.1393 27.9816 87.8045 30.2664 87.1286 32.4607C87.007 32.8503 87.1568 33.2731 87.4963 33.4995C88.7593 34.3576 89.5138 35.7873 89.5095 37.3145C89.5338 39.3297 88.2216 41.1179 86.292 41.6994C85.9992 41.7803 85.7653 42.0004 85.6669 42.2877C83.0102 50.221 76.9706 55.3413 70.2692 55.3413C63.5677 55.3413 57.5373 50.221 54.8806 42.2877C54.7822 42.0004 54.5483 41.7803 54.2555 41.6994C52.3223 41.1212 51.0059 39.3323 51.0289 37.3145C51.0245 35.7873 51.779 34.3579 53.042 33.4995C53.3815 33.2731 53.5313 32.8503 53.4098 32.4607C52.7258 30.2676 52.3786 27.9832 52.3802 25.6857C52.3802 14.7464 60.2399 6.17881 70.2691 6.17881ZM12.4471 3.15442L12.4471 12.5126L3.08896 12.5126L12.4471 3.15442ZM63.5677 71.9341L55.423 63.054L58.5485 57.7039L69.1385 65.6463L63.5677 71.9341ZM77.4119 71.9341L71.8411 65.6463L82.4311 57.7039L85.5566 63.054L77.4119 71.9341Z" fill="black" fill-opacity="0.2"/>
<path d="M23.6979 24.8298C23.5892 24.4966 23.3004 24.2542 22.9533 24.2047L18.4213 23.5429L16.3898 19.4337C16.1684 18.9769 15.6187 18.7859 15.1616 19.0072C14.9755 19.0973 14.8252 19.2476 14.7351 19.4337L12.7035 23.5429L8.17148 24.2047C7.82446 24.2542 7.53558 24.4966 7.42687 24.8298C7.32759 25.1553 7.41584 25.5087 7.65669 25.7491L10.9477 28.9482L10.1663 33.471C10.0992 33.8228 10.2428 34.1816 10.534 34.3903C10.8068 34.5748 11.1575 34.5994 11.4533 34.4546L15.5164 32.3219L19.5796 34.4546C19.7085 34.5275 19.8542 34.5654 20.0025 34.5649C20.1971 34.5656 20.3872 34.5045 20.5448 34.3903C20.836 34.1816 20.9797 33.8228 20.9126 33.471L20.1312 28.9482L23.4222 25.7491C23.6793 25.5188 23.786 25.1638 23.6979 24.8298ZM18.55 27.9921C18.3312 28.2038 18.2313 28.5101 18.2834 28.8103L18.8258 31.9726L15.9853 30.4742C15.8545 30.4071 15.7095 30.3724 15.5624 30.373C15.4128 30.3749 15.2653 30.4094 15.1304 30.4742L12.3358 31.9726L12.8781 28.8103C12.9303 28.5101 12.8303 28.2038 12.6116 27.9921L10.3134 25.7583L13.4849 25.2987C13.7873 25.2566 14.0491 25.0673 14.1835 24.7931L15.5992 21.9525L17.0149 24.8298C17.1493 25.104 17.4111 25.2934 17.7135 25.3354L20.885 25.7951L18.55 27.9921Z" fill="#00BF80"/>
<path d="M23.6979 24.8298C23.5892 24.4966 23.3004 24.2542 22.9533 24.2047L18.4213 23.5429L16.3898 19.4337C16.1684 18.9769 15.6187 18.7859 15.1616 19.0072C14.9755 19.0973 14.8252 19.2476 14.7351 19.4337L12.7035 23.5429L8.17148 24.2047C7.82446 24.2542 7.53558 24.4966 7.42687 24.8298C7.32759 25.1553 7.41584 25.5087 7.65669 25.7491L10.9477 28.9482L10.1663 33.471C10.0992 33.8228 10.2428 34.1816 10.534 34.3903C10.8068 34.5748 11.1575 34.5994 11.4533 34.4546L15.5164 32.3219L19.5796 34.4546C19.7085 34.5275 19.8542 34.5654 20.0025 34.5649C20.1971 34.5656 20.3872 34.5045 20.5448 34.3903C20.836 34.1816 20.9797 33.8228 20.9126 33.471L20.1312 28.9482L23.4222 25.7491C23.6793 25.5188 23.786 25.1638 23.6979 24.8298ZM18.55 27.9921C18.3312 28.2038 18.2313 28.5101 18.2834 28.8103L18.8258 31.9726L15.9853 30.4742C15.8545 30.4071 15.7095 30.3724 15.5624 30.373C15.4128 30.3749 15.2653 30.4094 15.1304 30.4742L12.3358 31.9726L12.8781 28.8103C12.9303 28.5101 12.8303 28.2038 12.6116 27.9921L10.3134 25.7583L13.4849 25.2987C13.7873 25.2566 14.0491 25.0673 14.1835 24.7931L15.5992 21.9525L17.0149 24.8298C17.1493 25.104 17.4111 25.2934 17.7135 25.3354L20.885 25.7951L18.55 27.9921Z" fill="black" fill-opacity="0.2"/>
<path d="M46.6803 43.9054L30.538 43.9054C30.0303 43.9054 29.6187 44.317 29.6187 44.8247C29.6187 45.3323 30.0303 45.7439 30.538 45.7439L46.6803 45.7439C47.188 45.7439 47.5996 45.3323 47.5996 44.8247C47.5996 44.317 47.188 43.9054 46.6803 43.9054Z" fill="#00BF80"/>
<path d="M46.6803 43.9054L30.538 43.9054C30.0303 43.9054 29.6187 44.317 29.6187 44.8247C29.6187 45.3323 30.0303 45.7439 30.538 45.7439L46.6803 45.7439C47.188 45.7439 47.5996 45.3323 47.5996 44.8247C47.5996 44.317 47.188 43.9054 46.6803 43.9054Z" fill="black" fill-opacity="0.2"/>
<path d="M46.6803 49.9183L30.538 49.9183C30.0303 49.9183 29.6187 50.3299 29.6187 50.8376C29.6187 51.3453 30.0303 51.7569 30.538 51.7569L46.6803 51.7569C47.188 51.7569 47.5996 51.3453 47.5996 50.8376C47.5996 50.3299 47.188 49.9183 46.6803 49.9183Z" fill="#00BF80"/>
<path d="M46.6803 49.9183L30.538 49.9183C30.0303 49.9183 29.6187 50.3299 29.6187 50.8376C29.6187 51.3453 30.0303 51.7569 30.538 51.7569L46.6803 51.7569C47.188 51.7569 47.5996 51.3453 47.5996 50.8376C47.5996 50.3299 47.188 49.9183 46.6803 49.9183Z" fill="black" fill-opacity="0.2"/>
<path d="M23.6998 45.3688C23.5911 45.0355 23.3022 44.7931 22.9552 44.7437L18.4232 44.0818L16.4284 39.9727C16.2071 39.5158 15.6574 39.3248 15.2003 39.5461C15.0141 39.6362 14.8638 39.7865 14.7737 39.9727L12.7421 44.0818L8.21014 44.7437C7.70707 44.8122 7.35476 45.2755 7.42325 45.7785C7.45105 45.9831 7.54689 46.1722 7.69535 46.3156L10.9863 49.5331L10.205 54.0559C10.1378 54.4077 10.2815 54.7665 10.5727 54.9752C10.8455 55.1597 11.1962 55.1843 11.4919 55.0395L15.5551 52.9068L19.6642 55.0487C19.7932 55.1215 19.9389 55.1595 20.0871 55.159C20.2818 55.1597 20.4718 55.0986 20.6295 54.9843C20.9206 54.7757 21.0643 54.4169 20.9972 54.0651L20.2158 49.5331L23.5068 46.334C23.7525 46.0769 23.8276 45.7009 23.6998 45.3688ZM18.5519 48.5403C18.3359 48.7501 18.2364 49.0521 18.2853 49.3492L18.8277 52.5115L15.9872 51.0223C15.8582 50.9494 15.7125 50.9115 15.5643 50.912C15.4133 50.9127 15.2651 50.9506 15.1322 51.0223L12.3009 52.5115L12.8433 49.3492C12.8922 49.0523 12.7927 48.7501 12.5767 48.5403L10.2785 46.2972L13.45 45.8376C13.7524 45.7956 14.0142 45.6062 14.1486 45.332L15.5643 42.4547L16.98 45.332C17.1144 45.6062 17.3762 45.7956 17.6786 45.8376L20.8501 46.2972L18.5519 48.5403Z" fill="#00BF80"/>
<path d="M23.6998 45.3688C23.5911 45.0355 23.3022 44.7931 22.9552 44.7437L18.4232 44.0818L16.4284 39.9727C16.2071 39.5158 15.6574 39.3248 15.2003 39.5461C15.0141 39.6362 14.8638 39.7865 14.7737 39.9727L12.7421 44.0818L8.21014 44.7437C7.70707 44.8122 7.35476 45.2755 7.42325 45.7785C7.45105 45.9831 7.54689 46.1722 7.69535 46.3156L10.9863 49.5331L10.205 54.0559C10.1378 54.4077 10.2815 54.7665 10.5727 54.9752C10.8455 55.1597 11.1962 55.1843 11.4919 55.0395L15.5551 52.9068L19.6642 55.0487C19.7932 55.1215 19.9389 55.1595 20.0871 55.159C20.2818 55.1597 20.4718 55.0986 20.6295 54.9843C20.9206 54.7757 21.0643 54.4169 20.9972 54.0651L20.2158 49.5331L23.5068 46.334C23.7525 46.0769 23.8276 45.7009 23.6998 45.3688ZM18.5519 48.5403C18.3359 48.7501 18.2364 49.0521 18.2853 49.3492L18.8277 52.5115L15.9872 51.0223C15.8582 50.9494 15.7125 50.9115 15.5643 50.912C15.4133 50.9127 15.2651 50.9506 15.1322 51.0223L12.3009 52.5115L12.8433 49.3492C12.8922 49.0523 12.7927 48.7501 12.5767 48.5403L10.2785 46.2972L13.45 45.8376C13.7524 45.7956 14.0142 45.6062 14.1486 45.332L15.5643 42.4547L16.98 45.332C17.1144 45.6062 17.3762 45.7956 17.6786 45.8376L20.8501 46.2972L18.5519 48.5403Z" fill="black" fill-opacity="0.2"/>
<path d="M23.6988 65.9031C23.5901 65.5699 23.3012 65.3274 22.9542 65.278L18.4222 64.6253L16.3906 60.507C16.1693 60.0501 15.6196 59.8591 15.1625 60.0804C14.9763 60.1705 14.826 60.3208 14.7359 60.507L12.7044 64.6253L8.17236 65.278C7.66929 65.3465 7.31698 65.8098 7.38546 66.3128C7.41327 66.5174 7.50911 66.7065 7.65757 66.8499L10.9486 70.049L10.1672 74.5718C10.1001 74.9236 10.2437 75.2824 10.5349 75.4911C10.8061 75.6786 11.1568 75.7066 11.4542 75.5646L15.6001 73.4319L19.6632 75.5738C19.794 75.6409 19.939 75.6756 20.0861 75.6749C20.2807 75.6756 20.4708 75.6145 20.6285 75.5003C20.9196 75.2916 21.0633 74.9328 20.9962 74.581L20.2148 70.0582L23.5058 66.8591C23.7478 66.6038 23.8227 66.2324 23.6988 65.9031ZM18.5509 69.0746C18.3349 69.2844 18.2354 69.5864 18.2843 69.8835L18.8267 73.0458L16.0229 71.5934C15.894 71.5205 15.7483 71.4826 15.6001 71.4831C15.4491 71.4837 15.3008 71.5217 15.168 71.5934L12.3366 73.0826L12.879 69.9203C12.928 69.6234 12.8285 69.3212 12.6124 69.1113L10.3143 66.8683L13.4857 66.4087C13.7882 66.3666 14.0499 66.1773 14.1844 65.9031L15.6001 63.0258L17.0157 65.9031C17.1502 66.1773 17.4119 66.3666 17.7144 66.4087L20.8859 66.8683L18.5509 69.0746Z" fill="#00BF80"/>
<path d="M23.6988 65.9031C23.5901 65.5699 23.3012 65.3274 22.9542 65.278L18.4222 64.6253L16.3906 60.507C16.1693 60.0501 15.6196 59.8591 15.1625 60.0804C14.9763 60.1705 14.826 60.3208 14.7359 60.507L12.7044 64.6253L8.17236 65.278C7.66929 65.3465 7.31698 65.8098 7.38546 66.3128C7.41327 66.5174 7.50911 66.7065 7.65757 66.8499L10.9486 70.049L10.1672 74.5718C10.1001 74.9236 10.2437 75.2824 10.5349 75.4911C10.8061 75.6786 11.1568 75.7066 11.4542 75.5646L15.6001 73.4319L19.6632 75.5738C19.794 75.6409 19.939 75.6756 20.0861 75.6749C20.2807 75.6756 20.4708 75.6145 20.6285 75.5003C20.9196 75.2916 21.0633 74.9328 20.9962 74.581L20.2148 70.0582L23.5058 66.8591C23.7478 66.6038 23.8227 66.2324 23.6988 65.9031ZM18.5509 69.0746C18.3349 69.2844 18.2354 69.5864 18.2843 69.8835L18.8267 73.0458L16.0229 71.5934C15.894 71.5205 15.7483 71.4826 15.6001 71.4831C15.4491 71.4837 15.3008 71.5217 15.168 71.5934L12.3366 73.0826L12.879 69.9203C12.928 69.6234 12.8285 69.3212 12.6124 69.1113L10.3143 66.8683L13.4857 66.4087C13.7882 66.3666 14.0499 66.1773 14.1844 65.9031L15.6001 63.0258L17.0157 65.9031C17.1502 66.1773 17.4119 66.3666 17.7144 66.4087L20.8859 66.8683L18.5509 69.0746Z" fill="black" fill-opacity="0.2"/>
<path d="M97.0318 82.7965C97.9261 79.6805 96.7429 73.8937 90.3244 73.8937C87.2362 73.8937 83.6171 77.0513 83.6171 80.1256C83.6171 84.577 85.8947 87.693 88.983 87.693C92.0712 87.693 97.0318 85.8708 97.0318 82.7965ZM90.312 85.4673C87.5156 85.4673 85.8529 83.6742 85.8529 80.8905C85.8529 78.1067 87.5156 76.1194 90.312 76.1194C93.1083 76.1194 94.796 78.1067 94.796 80.8905C94.796 83.6742 93.1083 85.4673 90.312 85.4673Z" fill="#00BF80"/>
<path d="M97.0318 82.7965C97.9261 79.6805 96.7429 73.8937 90.3244 73.8937C87.2362 73.8937 83.6171 77.0513 83.6171 80.1256C83.6171 84.577 85.8947 87.693 88.983 87.693C92.0712 87.693 97.0318 85.8708 97.0318 82.7965ZM90.312 85.4673C87.5156 85.4673 85.8529 83.6742 85.8529 80.8905C85.8529 78.1067 87.5156 76.1194 90.312 76.1194C93.1083 76.1194 94.796 78.1067 94.796 80.8905C94.796 83.6742 93.1083 85.4673 90.312 85.4673Z" fill="black" fill-opacity="0.2"/>
<path d="M100.099 89.8546L97.1033 84.7001L97.1494 83.1094L98.5783 81.0445C98.6398 80.9528 98.6398 80.8304 98.5783 80.7386L97.1494 78.6738L97.088 76.1653C97.088 76.0583 97.0111 75.9512 96.9036 75.9206L94.5375 75.0947L93.0164 73.1063C92.9549 73.0145 92.832 72.9839 92.7245 73.0145L90.3122 73.7334L87.9 73.0145C87.7925 72.9839 87.6849 73.0145 87.6081 73.1063L86.087 75.0947L83.7209 75.9206C83.6133 75.9512 83.5519 76.0583 83.5365 76.1653L83.4751 78.6738L82.0462 80.7386C81.9847 80.8304 81.9847 80.9528 82.0462 81.0445L83.4751 83.1094L83.5212 84.7001L80.5251 89.8546C80.4175 90.0381 80.5558 90.2676 80.7709 90.2523C81.0321 90.237 79.803 90.3134 83.3829 90.0993L84.5506 92.4242C84.6428 92.6077 84.9193 92.623 85.0269 92.4395L87.393 88.3709L87.6235 88.6769C87.6849 88.7686 87.8078 88.7992 87.9154 88.7686L90.3122 88.0497L92.7245 88.7686C92.832 88.7992 92.9396 88.7686 93.0164 88.6769L93.2469 88.3709L95.613 92.4395C95.7205 92.623 95.9971 92.623 96.0893 92.4242L97.257 90.0993C97.3184 90.0993 99.7767 90.2523 99.8689 90.2523C100.069 90.2676 100.207 90.0381 100.099 89.8546ZM97.1033 89.5487C96.9958 89.5487 96.8882 89.5946 96.8421 89.7016L96.6578 90.0687L94.6604 86.6273C94.6757 86.6273 94.1578 87.7392 95.1104 87.4027L96.6578 90.2523L97.1033 89.5487ZM83.5519 85.6943C83.5826 85.7708 83.6441 85.8166 83.7209 85.8472L84.4891 86.1225L82.461 89.6099L81.2319 89.6863L83.5519 85.6943ZM85.9641 86.6426L83.9667 90.084C84.105 90.084 83.9206 89.9922 83.9667 90.084L84.5122 89.4732L86.087 86.6426L85.9641 86.6426ZM84.8118 91.7359L84.2586 90.6499L86.3482 87.0403L87.0242 87.9121L84.8118 91.7359ZM91.9711 86.4711L90.3891 87.5144C90.343 87.4991 90.2815 87.4991 90.2354 87.5144L88.5366 86.4711L86.4711 86.2908C86.4404 86.2449 86.3943 86.2143 86.3482 86.199L86.087 84.4564L84.065 83.2413C84.065 83.1954 83.9975 82.9105 83.9667 82.88L84.2586 80.8916L84.5122 79.235C84.5429 79.1891 85.0499 78.9275 84.5122 78.7899L85.9641 77.4545L87.1951 76.119C87.2412 76.1037 87.1644 75.7198 87.1951 75.6739L88.5366 75.2288L90.2354 74.284C90.2815 74.2993 90.343 74.2993 90.3891 74.284L91.9711 75.4924L94.1534 75.4924C94.1841 75.5382 94.2302 75.5688 94.2763 75.5841L94.7967 77.4545L96.6117 78.7808C96.6117 78.8267 96.627 78.8879 96.6578 78.9185L96.9036 80.8916L96.6578 82.8647C96.627 82.9105 96.6117 82.9564 96.6117 83.0023C96.5963 83.4 94.7065 82.5139 94.6604 84.4564C94.6604 84.4564 94.1841 86.2296 94.2763 86.199C94.2302 86.2143 94.1841 86.2449 94.1534 86.2908C94.0919 86.3826 91.9711 86.4711 91.9711 86.4711ZM95.8127 91.7359L93.5849 87.9121C93.6002 87.8968 94.307 86.9791 94.2609 87.0403L96.3505 90.6499L95.8127 91.7359ZM98.1635 89.6099L96.1354 86.1225L96.9036 85.8472C96.9804 85.8166 97.0419 85.7555 97.0726 85.6943L99.3926 89.6863L98.1635 89.6099Z" fill="#00BF80"/>
<path d="M100.099 89.8546L97.1033 84.7001L97.1494 83.1094L98.5783 81.0445C98.6398 80.9528 98.6398 80.8304 98.5783 80.7386L97.1494 78.6738L97.088 76.1653C97.088 76.0583 97.0111 75.9512 96.9036 75.9206L94.5375 75.0947L93.0164 73.1063C92.9549 73.0145 92.832 72.9839 92.7245 73.0145L90.3122 73.7334L87.9 73.0145C87.7925 72.9839 87.6849 73.0145 87.6081 73.1063L86.087 75.0947L83.7209 75.9206C83.6133 75.9512 83.5519 76.0583 83.5365 76.1653L83.4751 78.6738L82.0462 80.7386C81.9847 80.8304 81.9847 80.9528 82.0462 81.0445L83.4751 83.1094L83.5212 84.7001L80.5251 89.8546C80.4175 90.0381 80.5558 90.2676 80.7709 90.2523C81.0321 90.237 79.803 90.3134 83.3829 90.0993L84.5506 92.4242C84.6428 92.6077 84.9193 92.623 85.0269 92.4395L87.393 88.3709L87.6235 88.6769C87.6849 88.7686 87.8078 88.7992 87.9154 88.7686L90.3122 88.0497L92.7245 88.7686C92.832 88.7992 92.9396 88.7686 93.0164 88.6769L93.2469 88.3709L95.613 92.4395C95.7205 92.623 95.9971 92.623 96.0893 92.4242L97.257 90.0993C97.3184 90.0993 99.7767 90.2523 99.8689 90.2523C100.069 90.2676 100.207 90.0381 100.099 89.8546ZM97.1033 89.5487C96.9958 89.5487 96.8882 89.5946 96.8421 89.7016L96.6578 90.0687L94.6604 86.6273C94.6757 86.6273 94.1578 87.7392 95.1104 87.4027L96.6578 90.2523L97.1033 89.5487ZM83.5519 85.6943C83.5826 85.7708 83.6441 85.8166 83.7209 85.8472L84.4891 86.1225L82.461 89.6099L81.2319 89.6863L83.5519 85.6943ZM85.9641 86.6426L83.9667 90.084C84.105 90.084 83.9206 89.9922 83.9667 90.084L84.5122 89.4732L86.087 86.6426L85.9641 86.6426ZM84.8118 91.7359L84.2586 90.6499L86.3482 87.0403L87.0242 87.9121L84.8118 91.7359ZM91.9711 86.4711L90.3891 87.5144C90.343 87.4991 90.2815 87.4991 90.2354 87.5144L88.5366 86.4711L86.4711 86.2908C86.4404 86.2449 86.3943 86.2143 86.3482 86.199L86.087 84.4564L84.065 83.2413C84.065 83.1954 83.9975 82.9105 83.9667 82.88L84.2586 80.8916L84.5122 79.235C84.5429 79.1891 85.0499 78.9275 84.5122 78.7899L85.9641 77.4545L87.1951 76.119C87.2412 76.1037 87.1644 75.7198 87.1951 75.6739L88.5366 75.2288L90.2354 74.284C90.2815 74.2993 90.343 74.2993 90.3891 74.284L91.9711 75.4924L94.1534 75.4924C94.1841 75.5382 94.2302 75.5688 94.2763 75.5841L94.7967 77.4545L96.6117 78.7808C96.6117 78.8267 96.627 78.8879 96.6578 78.9185L96.9036 80.8916L96.6578 82.8647C96.627 82.9105 96.6117 82.9564 96.6117 83.0023C96.5963 83.4 94.7065 82.5139 94.6604 84.4564C94.6604 84.4564 94.1841 86.2296 94.2763 86.199C94.2302 86.2143 94.1841 86.2449 94.1534 86.2908C94.0919 86.3826 91.9711 86.4711 91.9711 86.4711ZM95.8127 91.7359L93.5849 87.9121C93.6002 87.8968 94.307 86.9791 94.2609 87.0403L96.3505 90.6499L95.8127 91.7359ZM98.1635 89.6099L96.1354 86.1225L96.9036 85.8472C96.9804 85.8166 97.0419 85.7555 97.0726 85.6943L99.3926 89.6863L98.1635 89.6099Z" fill="black" fill-opacity="0.2"/>
</g>
<defs>
<clipPath id="clip0_222_4149">
<rect width="110" height="110" fill="white"/>
</clipPath>
</defs>
</svg>
