<svg width="110" height="110" viewBox="0 0 110 110" fill="none" xmlns="http://www.w3.org/2000/svg">
<g clip-path="url(#clip0_222_4116)">
<path d="M22.819 37.8338C19.0589 32.9716 15.9399 27.646 13.5388 21.9878C13.2867 21.4516 12.6475 21.2215 12.1114 21.4736C11.6045 21.712 11.3663 22.3005 11.5648 22.8246C14.0543 28.6435 17.2775 34.1199 21.1561 39.1212C21.3607 39.3803 21.6735 39.5308 22.0036 39.5289C22.2415 39.5335 22.4733 39.4536 22.6581 39.3036C23.0947 38.9348 23.1655 38.2884 22.819 37.8338Z" fill="#00BF80"/>
<path d="M22.819 37.8338C19.0589 32.9716 15.9399 27.646 13.5388 21.9878C13.2867 21.4516 12.6475 21.2215 12.1114 21.4736C11.6045 21.712 11.3663 22.3005 11.5648 22.8246C14.0543 28.6435 17.2775 34.1199 21.1561 39.1212C21.3607 39.3803 21.6735 39.5308 22.0036 39.5289C22.2415 39.5335 22.4733 39.4536 22.6581 39.3036C23.0947 38.9348 23.1655 38.2884 22.819 37.8338Z" fill="black" fill-opacity="0.2"/>
<path d="M11.6719 16.9449C11.3607 15.9471 11.0818 14.9493 10.8458 13.9838C10.7066 13.406 10.1253 13.0507 9.54761 13.1899C8.96988 13.3291 8.6145 13.9103 8.7537 14.488C9.00046 15.4965 9.30086 16.5479 9.62271 17.5993C9.76835 18.0641 10.209 18.3726 10.6956 18.3503C10.805 18.3489 10.9136 18.3307 11.0174 18.2966C11.5673 18.0992 11.858 17.4984 11.6719 16.9449Z" fill="#00BF80"/>
<path d="M11.6719 16.9449C11.3607 15.9471 11.0818 14.9493 10.8458 13.9838C10.7066 13.406 10.1253 13.0507 9.54761 13.1899C8.96988 13.3291 8.6145 13.9103 8.7537 14.488C9.00046 15.4965 9.30086 16.5479 9.62271 17.5993C9.76835 18.0641 10.209 18.3726 10.6956 18.3503C10.805 18.3489 10.9136 18.3307 11.0174 18.2966C11.5673 18.0992 11.858 17.4984 11.6719 16.9449Z" fill="black" fill-opacity="0.2"/>
<path d="M76.0545 50.5029C78.5432 52.9914 82.5777 52.9914 85.0664 50.5029L109.742 25.8272C110.128 25.3772 110.075 24.6999 109.625 24.3145C109.223 23.9707 108.631 23.9707 108.229 24.3145L108.176 24.3682L83.5001 48.9902C81.8339 50.6118 79.1797 50.6118 77.5135 48.9902L69.6066 41.051C67.985 39.3849 67.985 36.7307 69.6066 35.0645L94.2823 10.4425C94.6983 10.0241 94.6983 9.3482 94.2823 8.92978C93.8649 8.50922 93.1858 8.50627 92.765 8.92361C92.7628 8.92576 92.7607 8.92764 92.7588 8.92978L68.0832 33.5411C65.6298 36.044 65.6298 40.0501 68.0832 42.553L68.9844 43.4542L56.8396 53.6785L5.26754 2.10643C5.00255 1.84465 4.62088 1.73925 4.25906 1.82749C3.8908 1.91707 3.59711 2.1944 3.4866 2.55703C-0.2362 14.5623 9.75207 35.1074 21.414 46.7801C24.1602 49.5328 27.2004 51.9756 30.4796 54.0648C31.7198 54.8418 33.2948 54.8418 34.535 54.0648C36.4812 52.8586 38.6178 51.9915 40.8541 51.5006C42.3046 51.1592 43.8155 51.7479 44.652 52.9812L49.3082 60.0298L17.0904 87.1838C16.7602 87.441 16.4451 87.7167 16.1463 88.0099C12.1727 91.9966 12.1832 98.4501 16.1702 102.424C20.1456 106.386 26.5763 106.388 30.5547 102.429C30.8916 102.095 31.2035 101.736 31.4881 101.356L56.5071 70.9622L70.1645 91.6576L76.6982 101.571C76.9771 101.925 77.2453 102.225 77.5028 102.493C79.3752 104.366 81.9141 105.419 84.5622 105.422H85.045C87.8427 105.306 90.4597 104.008 92.2438 101.85C95.445 97.7916 95.1183 91.9837 91.4821 88.3103L91.3319 88.1493C91.1211 87.8994 90.8877 87.6695 90.6346 87.4627L82.8993 79.6738C82.8188 79.5558 82.7169 79.4539 82.5989 79.3734L76.1618 72.9363C76.0794 72.8161 75.9737 72.7139 75.8506 72.6359L64.4569 61.3065L74.5739 49.0223L76.0545 50.5029ZM29.7286 100.026C29.4945 100.346 29.2364 100.647 28.9562 100.927C25.7049 103.957 20.6134 103.777 17.5839 100.526C14.7046 97.4354 14.7046 92.6449 17.5839 89.5548C17.8307 89.3134 18.0922 89.0876 18.3671 88.8789L35.5328 92.945L29.7286 100.026ZM37.2386 91.046L20.545 87.0979L26.3706 82.1843C26.421 82.2156 26.4752 82.2409 26.5315 82.2594H26.5101L41.53 85.7998L37.2386 91.046ZM43.032 83.9652L28.3768 80.4892L50.4991 61.8322L55.2733 69.0847L43.032 83.9652ZM82.6096 82.4739L89.2184 89.072C89.2549 89.098 89.2946 89.1197 89.3364 89.1364C89.4997 89.2729 89.6507 89.4236 89.787 89.587L89.9586 89.7801C92.8645 92.6736 93.1458 97.2836 90.6131 100.509C87.8556 103.826 82.9312 104.279 79.6142 101.522C79.4326 101.371 79.258 101.212 79.0906 101.045C78.8546 100.809 78.6508 100.562 78.5006 100.38L78.4147 100.24L82.6096 82.4739ZM80.7536 80.6501L76.7089 97.7299L72.2029 90.8958L75.8184 75.6935L80.7536 80.6501ZM74.0375 73.9126L70.6044 88.439L46.4222 51.7796C45.3614 50.2073 43.5877 49.2662 41.6909 49.2691H41.6588C41.2186 49.2683 40.7798 49.315 40.3499 49.4086C37.8735 49.9512 35.5078 50.9127 33.3549 52.2516C32.8158 52.5848 32.1345 52.5848 31.5954 52.2516C28.4511 50.2368 25.5338 47.8881 22.8945 45.2459C12.4771 34.8285 3.08965 16.2788 5.07443 4.97095L74.0375 73.9126ZM62.9335 59.7723L58.3631 55.202L69.9606 45.4068L72.5891 48.046L62.9335 59.7723Z" fill="#00BF80"/>
<path d="M76.0545 50.5029C78.5432 52.9914 82.5777 52.9914 85.0664 50.5029L109.742 25.8272C110.128 25.3772 110.075 24.6999 109.625 24.3145C109.223 23.9707 108.631 23.9707 108.229 24.3145L108.176 24.3682L83.5001 48.9902C81.8339 50.6118 79.1797 50.6118 77.5135 48.9902L69.6066 41.051C67.985 39.3849 67.985 36.7307 69.6066 35.0645L94.2823 10.4425C94.6983 10.0241 94.6983 9.3482 94.2823 8.92978C93.8649 8.50922 93.1858 8.50627 92.765 8.92361C92.7628 8.92576 92.7607 8.92764 92.7588 8.92978L68.0832 33.5411C65.6298 36.044 65.6298 40.0501 68.0832 42.553L68.9844 43.4542L56.8396 53.6785L5.26754 2.10643C5.00255 1.84465 4.62088 1.73925 4.25906 1.82749C3.8908 1.91707 3.59711 2.1944 3.4866 2.55703C-0.2362 14.5623 9.75207 35.1074 21.414 46.7801C24.1602 49.5328 27.2004 51.9756 30.4796 54.0648C31.7198 54.8418 33.2948 54.8418 34.535 54.0648C36.4812 52.8586 38.6178 51.9915 40.8541 51.5006C42.3046 51.1592 43.8155 51.7479 44.652 52.9812L49.3082 60.0298L17.0904 87.1838C16.7602 87.441 16.4451 87.7167 16.1463 88.0099C12.1727 91.9966 12.1832 98.4501 16.1702 102.424C20.1456 106.386 26.5763 106.388 30.5547 102.429C30.8916 102.095 31.2035 101.736 31.4881 101.356L56.5071 70.9622L70.1645 91.6576L76.6982 101.571C76.9771 101.925 77.2453 102.225 77.5028 102.493C79.3752 104.366 81.9141 105.419 84.5622 105.422H85.045C87.8427 105.306 90.4597 104.008 92.2438 101.85C95.445 97.7916 95.1183 91.9837 91.4821 88.3103L91.3319 88.1493C91.1211 87.8994 90.8877 87.6695 90.6346 87.4627L82.8993 79.6738C82.8188 79.5558 82.7169 79.4539 82.5989 79.3734L76.1618 72.9363C76.0794 72.8161 75.9737 72.7139 75.8506 72.6359L64.4569 61.3065L74.5739 49.0223L76.0545 50.5029ZM29.7286 100.026C29.4945 100.346 29.2364 100.647 28.9562 100.927C25.7049 103.957 20.6134 103.777 17.5839 100.526C14.7046 97.4354 14.7046 92.6449 17.5839 89.5548C17.8307 89.3134 18.0922 89.0876 18.3671 88.8789L35.5328 92.945L29.7286 100.026ZM37.2386 91.046L20.545 87.0979L26.3706 82.1843C26.421 82.2156 26.4752 82.2409 26.5315 82.2594H26.5101L41.53 85.7998L37.2386 91.046ZM43.032 83.9652L28.3768 80.4892L50.4991 61.8322L55.2733 69.0847L43.032 83.9652ZM82.6096 82.4739L89.2184 89.072C89.2549 89.098 89.2946 89.1197 89.3364 89.1364C89.4997 89.2729 89.6507 89.4236 89.787 89.587L89.9586 89.7801C92.8645 92.6736 93.1458 97.2836 90.6131 100.509C87.8556 103.826 82.9312 104.279 79.6142 101.522C79.4326 101.371 79.258 101.212 79.0906 101.045C78.8546 100.809 78.6508 100.562 78.5006 100.38L78.4147 100.24L82.6096 82.4739ZM80.7536 80.6501L76.7089 97.7299L72.2029 90.8958L75.8184 75.6935L80.7536 80.6501ZM74.0375 73.9126L70.6044 88.439L46.4222 51.7796C45.3614 50.2073 43.5877 49.2662 41.6909 49.2691H41.6588C41.2186 49.2683 40.7798 49.315 40.3499 49.4086C37.8735 49.9512 35.5078 50.9127 33.3549 52.2516C32.8158 52.5848 32.1345 52.5848 31.5954 52.2516C28.4511 50.2368 25.5338 47.8881 22.8945 45.2459C12.4771 34.8285 3.08965 16.2788 5.07443 4.97095L74.0375 73.9126ZM62.9335 59.7723L58.3631 55.202L69.9606 45.4068L72.5891 48.046L62.9335 59.7723Z" fill="black" fill-opacity="0.2"/>
<path d="M99.2485 14.1768C98.8153 13.7753 98.1394 13.7991 97.7357 14.2304L75.592 36.3205C75.2066 36.7705 75.2589 37.4478 75.709 37.8332C76.1105 38.1771 76.703 38.1771 77.1048 37.8332L99.2485 15.6895C99.6645 15.2711 99.6645 14.5952 99.2485 14.1768Z" fill="#00BF80"/>
<path d="M99.2485 14.1768C98.8153 13.7753 98.1394 13.7991 97.7357 14.2304L75.592 36.3205C75.2066 36.7705 75.2589 37.4478 75.709 37.8332C76.1105 38.1771 76.703 38.1771 77.1048 37.8332L99.2485 15.6895C99.6645 15.2711 99.6645 14.5952 99.2485 14.1768Z" fill="black" fill-opacity="0.2"/>
<path d="M104.41 19.3381C103.989 18.9176 103.307 18.9176 102.886 19.3381L80.7534 41.4818C80.3374 41.9002 80.3374 42.5761 80.7534 42.9946C80.9516 43.1968 81.2214 43.3124 81.5044 43.3164C81.7911 43.3153 82.0655 43.1992 82.2661 42.9946L104.41 20.8616C104.831 20.441 104.831 19.759 104.41 19.3381Z" fill="#00BF80"/>
<path d="M104.41 19.3381C103.989 18.9176 103.307 18.9176 102.886 19.3381L80.7534 41.4818C80.3374 41.9002 80.3374 42.5761 80.7534 42.9946C80.9516 43.1968 81.2214 43.3124 81.5044 43.3164C81.7911 43.3153 82.0655 43.1992 82.2661 42.9946L104.41 20.8616C104.831 20.441 104.831 19.759 104.41 19.3381Z" fill="black" fill-opacity="0.2"/>
<path d="M81.3326 9.32652C62.8865 -1.91056 39.4927 -0.954375 22.0252 11.7512C21.5366 12.0859 21.4116 12.7535 21.7463 13.2424C21.9467 13.5238 22.2701 13.6914 22.6153 13.693C22.8548 13.6979 23.089 13.6222 23.2805 13.4785C40.0497 1.29004 62.5016 0.375964 80.2061 11.1611C80.7128 11.4722 81.3755 11.3137 81.6867 10.8071C81.9978 10.3004 81.8393 9.63764 81.3326 9.32652Z" fill="#00BF80"/>
<path d="M81.3326 9.32652C62.8865 -1.91056 39.4927 -0.954375 22.0252 11.7512C21.5366 12.0859 21.4116 12.7535 21.7463 13.2424C21.9467 13.5238 22.2701 13.6914 22.6153 13.693C22.8548 13.6979 23.089 13.6222 23.2805 13.4785C40.0497 1.29004 62.5016 0.375964 80.2061 11.1611C80.7128 11.4722 81.3755 11.3137 81.6867 10.8071C81.9978 10.3004 81.8393 9.63764 81.3326 9.32652Z" fill="black" fill-opacity="0.2"/>
<path d="M11.9016 85.0984C11.9003 85.0965 11.8989 85.0947 11.8976 85.0928C5.53557 76.3506 2.11987 65.8112 2.14535 54.9992C2.12604 47.3463 3.8351 39.7878 7.14485 32.8877C7.41736 32.3617 7.2119 31.7143 6.68594 31.4415C6.15997 31.169 5.5125 31.3744 5.23973 31.9004C5.23061 31.9181 5.22176 31.9361 5.21371 31.9543C-3.21758 49.6277 -1.3205 70.4953 10.1596 86.3588C10.3621 86.6361 10.6853 86.7994 11.0286 86.7986C11.2523 86.7973 11.4698 86.7259 11.6508 86.5948C12.1334 86.2509 12.2457 85.5809 11.9016 85.0984Z" fill="#00BF80"/>
<path d="M11.9016 85.0984C11.9003 85.0965 11.8989 85.0947 11.8976 85.0928C5.53557 76.3506 2.11987 65.8112 2.14535 54.9992C2.12604 47.3463 3.8351 39.7878 7.14485 32.8877C7.41736 32.3617 7.2119 31.7143 6.68594 31.4415C6.15997 31.169 5.5125 31.3744 5.23973 31.9004C5.23061 31.9181 5.22176 31.9361 5.21371 31.9543C-3.21758 49.6277 -1.3205 70.4953 10.1596 86.3588C10.3621 86.6361 10.6853 86.7994 11.0286 86.7986C11.2523 86.7973 11.4698 86.7259 11.6508 86.5948C12.1334 86.2509 12.2457 85.5809 11.9016 85.0984Z" fill="black" fill-opacity="0.2"/>
<path d="M73.6289 103.365C73.4034 102.856 72.8262 102.604 72.2997 102.785C61.0068 107.204 48.5188 107.508 37.0242 103.643C36.4513 103.491 35.8642 103.833 35.7124 104.405C35.5751 104.924 35.842 105.465 36.3376 105.671C48.3096 109.704 61.3201 109.389 73.0829 104.78C73.6247 104.54 73.869 103.906 73.6289 103.365Z" fill="#00BF80"/>
<path d="M73.6289 103.365C73.4034 102.856 72.8262 102.604 72.2997 102.785C61.0068 107.204 48.5188 107.508 37.0242 103.643C36.4513 103.491 35.8642 103.833 35.7124 104.405C35.5751 104.924 35.842 105.465 36.3376 105.671C48.3096 109.704 61.3201 109.389 73.0829 104.78C73.6247 104.54 73.869 103.906 73.6289 103.365Z" fill="black" fill-opacity="0.2"/>
<path d="M104.528 38.9942C104.352 38.4286 103.752 38.1118 103.187 38.2862C102.62 38.4597 102.301 39.0594 102.475 39.6261C102.476 39.6302 102.477 39.6342 102.478 39.6379C107.352 55.271 104.5 72.2905 94.7968 85.481C94.4441 85.9571 94.5441 86.629 95.0202 86.9817C95.0207 86.9822 95.0213 86.9825 95.0221 86.983C95.2026 87.1244 95.4257 87.2 95.6551 87.1976C95.9984 87.1984 96.3216 87.035 96.5241 86.7577C106.636 73.0152 109.608 55.2823 104.528 38.9942Z" fill="#00BF80"/>
<path d="M104.528 38.9942C104.352 38.4286 103.752 38.1118 103.187 38.2862C102.62 38.4597 102.301 39.0594 102.475 39.6261C102.476 39.6302 102.477 39.6342 102.478 39.6379C107.352 55.271 104.5 72.2905 94.7968 85.481C94.4441 85.9571 94.5441 86.629 95.0202 86.9817C95.0207 86.9822 95.0213 86.9825 95.0221 86.983C95.2026 87.1244 95.4257 87.2 95.6551 87.1976C95.9984 87.1984 96.3216 87.035 96.5241 86.7577C106.636 73.0152 109.608 55.2823 104.528 38.9942Z" fill="black" fill-opacity="0.2"/>
</g>
<defs>
<clipPath id="clip0_222_4116">
<rect width="110" height="110" fill="white"/>
</clipPath>
</defs>
</svg>
