<svg width="110" height="110" viewBox="0 0 110 110" fill="none" xmlns="http://www.w3.org/2000/svg">
<path d="M102.359 95.4778V57.4453C102.359 56.3407 101.464 55.4453 100.359 55.4453H43.5464C42.4418 55.4453 41.5464 56.3407 41.5464 57.4453V95.4778C41.5464 96.5824 42.4418 97.4778 43.5464 97.4778H100.359C101.464 97.4778 102.359 96.5824 102.359 95.4778Z" stroke="#00BF80" stroke-width="2" stroke-linecap="round"/>
<path d="M102.359 95.4778V57.4453C102.359 56.3407 101.464 55.4453 100.359 55.4453H43.5464C42.4418 55.4453 41.5464 56.3407 41.5464 57.4453V95.4778C41.5464 96.5824 42.4418 97.4778 43.5464 97.4778H100.359C101.464 97.4778 102.359 96.5824 102.359 95.4778Z" stroke="black" stroke-opacity="0.2" stroke-width="2" stroke-linecap="round"/>
<path d="M11.348 96.614L47.1978 47.728C47.8567 46.8294 47.6542 45.5655 46.7474 44.9178L43.0512 42.2777C42.1642 41.6441 40.9333 41.8375 40.2833 42.7125L4.03472 91.5086C3.3522 92.4274 3.57849 93.7305 4.53081 94.3654L8.62583 97.0954C9.51594 97.6888 10.7154 97.4767 11.348 96.614Z" stroke="#00BF80" stroke-width="2" stroke-linecap="round"/>
<path d="M11.348 96.614L47.1978 47.728C47.8567 46.8294 47.6542 45.5655 46.7474 44.9178L43.0512 42.2777C42.1642 41.6441 40.9333 41.8375 40.2833 42.7125L4.03472 91.5086C3.3522 92.4274 3.57849 93.7305 4.53081 94.3654L8.62583 97.0954C9.51594 97.6888 10.7154 97.4767 11.348 96.614Z" stroke="black" stroke-opacity="0.2" stroke-width="2" stroke-linecap="round"/>
<path d="M18.6466 71.3818L12.0207 80.0782C11.3152 81.0042 9.97116 81.1343 9.10113 80.361L3.9204 75.7559C2.8837 74.8344 3.07694 73.1631 4.29656 72.5025L13.6883 67.4152M18.6466 71.3818L23.6048 64.4403M18.6466 71.3818L13.6883 67.4152M13.6883 67.4152L18.6466 60.9696M18.6466 60.9696L20.5343 50.3982C20.801 48.9049 22.568 48.2404 23.7525 49.1881L29.4904 53.7783C30.349 54.4652 30.4921 55.7164 29.8108 56.5794L23.6048 64.4403M18.6466 60.9696L23.6048 64.4403" stroke="#00BF80" stroke-width="2" stroke-linecap="round"/>
<path d="M18.6466 71.3818L12.0207 80.0782C11.3152 81.0042 9.97116 81.1343 9.10113 80.361L3.9204 75.7559C2.8837 74.8344 3.07694 73.1631 4.29656 72.5025L13.6883 67.4152M18.6466 71.3818L23.6048 64.4403M18.6466 71.3818L13.6883 67.4152M13.6883 67.4152L18.6466 60.9696M18.6466 60.9696L20.5343 50.3982C20.801 48.9049 22.568 48.2404 23.7525 49.1881L29.4904 53.7783C30.349 54.4652 30.4921 55.7164 29.8108 56.5794L23.6048 64.4403M18.6466 60.9696L23.6048 64.4403" stroke="black" stroke-opacity="0.2" stroke-width="2" stroke-linecap="round"/>
<path d="M67.9995 58V94C67.9995 95.1046 68.895 96 69.9995 96H73.9995C75.1041 96 75.9995 95.1046 75.9995 94V58C75.9995 56.8954 75.1041 56 73.9995 56H69.9995C68.895 56 67.9995 56.8954 67.9995 58Z" stroke="#00BF80" stroke-width="2" stroke-linecap="round"/>
<path d="M67.9995 58V94C67.9995 95.1046 68.895 96 69.9995 96H73.9995C75.1041 96 75.9995 95.1046 75.9995 94V58C75.9995 56.8954 75.1041 56 73.9995 56H69.9995C68.895 56 67.9995 56.8954 67.9995 58Z" stroke="black" stroke-opacity="0.2" stroke-width="2" stroke-linecap="round"/>
<path d="M86.764 28.197L85.5173 26.9504C85.2172 26.652 84.7324 26.652 84.4322 26.9504C84.1306 27.2497 84.1284 27.7369 84.4278 28.0387C84.4293 28.0403 84.4307 28.0418 84.4322 28.0431L85.6789 29.2821C85.8222 29.4243 86.0158 29.5045 86.2176 29.5053C86.4221 29.5065 86.6187 29.4262 86.764 29.2821C87.0624 28.982 87.0624 28.4972 86.764 28.197Z" fill="#00BF80"/>
<path d="M86.764 28.197L85.5173 26.9504C85.2172 26.652 84.7324 26.652 84.4322 26.9504C84.1306 27.2497 84.1284 27.7369 84.4278 28.0387C84.4293 28.0403 84.4307 28.0418 84.4322 28.0431L85.6789 29.2821C85.8222 29.4243 86.0158 29.5045 86.2176 29.5053C86.4221 29.5065 86.6187 29.4262 86.764 29.2821C87.0624 28.982 87.0624 28.4972 86.764 28.197Z" fill="black" fill-opacity="0.2"/>
<path d="M91.7444 33.2086L90.5054 31.9696C90.2058 31.6679 89.7183 31.6662 89.4165 31.9657C89.1146 32.2653 89.1131 32.753 89.4126 33.0547L90.6593 34.2936C90.9594 34.592 91.4442 34.592 91.7444 34.2936C92.0428 33.9935 92.0428 33.5087 91.7444 33.2086Z" fill="#00BF80"/>
<path d="M91.7444 33.2086L90.5054 31.9696C90.2058 31.6679 89.7183 31.6662 89.4165 31.9657C89.1146 32.2653 89.1131 32.753 89.4126 33.0547L90.6593 34.2936C90.9594 34.592 91.4442 34.592 91.7444 34.2936C92.0428 33.9935 92.0428 33.5087 91.7444 33.2086Z" fill="black" fill-opacity="0.2"/>
<path d="M86.7642 31.9699C86.464 31.6715 85.9792 31.6715 85.6791 31.9699L84.4324 33.2089C84.16 33.5038 84.1652 33.9634 84.4324 34.2632C84.7325 34.5616 85.2173 34.5616 85.5175 34.2632L86.7642 33.055C87.0626 32.7548 87.0626 32.27 86.7642 31.9699Z" fill="#00BF80"/>
<path d="M86.7642 31.9699C86.464 31.6715 85.9792 31.6715 85.6791 31.9699L84.4324 33.2089C84.16 33.5038 84.1652 33.9634 84.4324 34.2632C84.7325 34.5616 85.2173 34.5616 85.5175 34.2632L86.7642 33.055C87.0626 32.7548 87.0626 32.27 86.7642 31.9699Z" fill="black" fill-opacity="0.2"/>
<path d="M91.749 26.9548C91.7474 26.9532 91.7461 26.9517 91.7446 26.9504C91.4444 26.652 90.9596 26.652 90.6595 26.9504L89.4128 28.197C89.1144 28.4972 89.1144 28.982 89.4128 29.2821C89.558 29.4262 89.7547 29.5065 89.9592 29.5053C90.1637 29.5065 90.3603 29.4262 90.5056 29.2821L91.7446 28.0431C92.0462 27.744 92.0483 27.2566 91.749 26.9548Z" fill="#00BF80"/>
<path d="M91.749 26.9548C91.7474 26.9532 91.7461 26.9517 91.7446 26.9504C91.4444 26.652 90.9596 26.652 90.6595 26.9504L89.4128 28.197C89.1144 28.4972 89.1144 28.982 89.4128 29.2821C89.558 29.4262 89.7547 29.5065 89.9592 29.5053C90.1637 29.5065 90.3603 29.4262 90.5056 29.2821L91.7446 28.0431C92.0462 27.744 92.0483 27.2566 91.749 26.9548Z" fill="black" fill-opacity="0.2"/>
<path d="M26.2095 16.4939L24.9705 15.2472C24.6704 14.9488 24.1856 14.9488 23.8854 15.2472C23.5871 15.5474 23.5871 16.0322 23.8854 16.3323L25.1244 17.579C25.2697 17.7231 25.4663 17.8033 25.6708 17.8022C25.8726 17.8014 26.0662 17.7212 26.2095 17.579C26.5079 17.2789 26.5079 16.7941 26.2095 16.4939Z" fill="#00BF80"/>
<path d="M26.2095 16.4939L24.9705 15.2472C24.6704 14.9488 24.1856 14.9488 23.8854 15.2472C23.5871 15.5474 23.5871 16.0322 23.8854 16.3323L25.1244 17.579C25.2697 17.7231 25.4663 17.8033 25.6708 17.8022C25.8726 17.8014 26.0662 17.7212 26.2095 17.579C26.5079 17.2789 26.5079 16.7941 26.2095 16.4939Z" fill="black" fill-opacity="0.2"/>
<path d="M31.1962 21.5086L29.9495 20.2619C29.6494 19.9635 29.1646 19.9635 28.8645 20.2619C28.5866 20.558 28.5872 21.0195 28.8645 21.3162L30.1034 22.5552C30.4486 22.8032 30.9296 22.7243 31.1774 22.3791C31.363 22.1208 31.3705 21.7748 31.1962 21.5086Z" fill="#00BF80"/>
<path d="M31.1962 21.5086L29.9495 20.2619C29.6494 19.9635 29.1646 19.9635 28.8645 20.2619C28.5866 20.558 28.5872 21.0195 28.8645 21.3162L30.1034 22.5552C30.4486 22.8032 30.9296 22.7243 31.1774 22.3791C31.363 22.1208 31.3705 21.7748 31.1962 21.5086Z" fill="black" fill-opacity="0.2"/>
<path d="M26.2201 20.2306C25.9205 19.9288 25.4328 19.9272 25.1312 20.2268L23.9076 21.512C23.6059 21.8113 23.6038 22.2984 23.9031 22.6003C24.0469 22.7452 24.2423 22.8271 24.4463 22.8279C24.6494 22.811 24.8378 22.7142 24.9696 22.5586L26.2162 21.3196C26.5179 21.02 26.5196 20.5325 26.2201 20.2306Z" fill="#00BF80"/>
<path d="M26.2201 20.2306C25.9205 19.9288 25.4328 19.9272 25.1312 20.2268L23.9076 21.512C23.6059 21.8113 23.6038 22.2984 23.9031 22.6003C24.0469 22.7452 24.2423 22.8271 24.4463 22.8279C24.6494 22.811 24.8378 22.7142 24.9696 22.5586L26.2162 21.3196C26.5179 21.02 26.5196 20.5325 26.2201 20.2306Z" fill="black" fill-opacity="0.2"/>
<path d="M31.1938 15.251C30.8944 14.9494 30.4073 14.9473 30.1054 15.2466C30.1039 15.2482 30.1024 15.2495 30.101 15.251L28.862 16.4977C28.5636 16.7979 28.5636 17.2827 28.862 17.5828C29.0053 17.725 29.1989 17.8052 29.4007 17.806C29.6052 17.8071 29.8018 17.7269 29.9471 17.5828L31.1938 16.3361C31.4922 16.036 31.4922 15.5512 31.1938 15.251Z" fill="#00BF80"/>
<path d="M31.1938 15.251C30.8944 14.9494 30.4073 14.9473 30.1054 15.2466C30.1039 15.2482 30.1024 15.2495 30.101 15.251L28.862 16.4977C28.5636 16.7979 28.5636 17.2827 28.862 17.5828C29.0053 17.725 29.1989 17.8052 29.4007 17.806C29.6052 17.8071 29.8018 17.7269 29.9471 17.5828L31.1938 16.3361C31.4922 16.036 31.4922 15.5512 31.1938 15.251Z" fill="black" fill-opacity="0.2"/>
<path d="M75.6798 17.1136C75.6734 17.112 75.6671 17.1105 75.6607 17.109C75.2527 16.9903 74.8256 17.2248 74.7069 17.633C74.704 17.643 74.7013 17.653 74.6988 17.663L72.3901 26.1282C72.2783 26.5382 72.5202 26.9613 72.9301 27.073C72.9323 27.0736 72.9344 27.0742 72.9365 27.0748H73.1366C73.4942 27.0871 73.8132 26.851 73.9061 26.5053L76.2379 18.0478C76.3418 17.6357 76.0919 17.2175 75.6798 17.1136Z" fill="#00BF80"/>
<path d="M75.6798 17.1136C75.6734 17.112 75.6671 17.1105 75.6607 17.109C75.2527 16.9903 74.8256 17.2248 74.7069 17.633C74.704 17.643 74.7013 17.653 74.6988 17.663L72.3901 26.1282C72.2783 26.5382 72.5202 26.9613 72.9301 27.073C72.9323 27.0736 72.9344 27.0742 72.9365 27.0748H73.1366C73.4942 27.0871 73.8132 26.851 73.9061 26.5053L76.2379 18.0478C76.3418 17.6357 76.0919 17.2175 75.6798 17.1136Z" fill="black" fill-opacity="0.2"/>
<path d="M78.6893 5.9324C78.283 5.80792 77.8526 6.03629 77.728 6.44262C77.7228 6.45936 77.7182 6.47648 77.7143 6.4936L76.3907 11.4342C76.2825 11.8419 76.5228 12.2605 76.9294 12.3731C76.994 12.394 77.0615 12.4044 77.1294 12.4038C77.4871 12.4161 77.8061 12.1801 77.899 11.8344L79.1996 6.89378C79.324 6.48726 79.0957 6.05688 78.6893 5.9324Z" fill="#00BF80"/>
<path d="M78.6893 5.9324C78.283 5.80792 77.8526 6.03629 77.728 6.44262C77.7228 6.45936 77.7182 6.47648 77.7143 6.4936L76.3907 11.4342C76.2825 11.8419 76.5228 12.2605 76.9294 12.3731C76.994 12.394 77.0615 12.4044 77.1294 12.4038C77.4871 12.4161 77.8061 12.1801 77.899 11.8344L79.1996 6.89378C79.324 6.48726 79.0957 6.05688 78.6893 5.9324Z" fill="black" fill-opacity="0.2"/>
<path d="M32.8016 35.9453L28.5613 34.814C28.1499 34.7071 27.7298 34.9537 27.6228 35.365C27.6199 35.3762 27.6172 35.3875 27.6147 35.3989C27.5029 35.8089 27.7448 36.2319 28.1548 36.3437C28.1569 36.3443 28.159 36.3449 28.1611 36.3455L32.4091 37.4844C32.4755 37.4925 32.5428 37.4925 32.6092 37.4844C33.0342 37.5375 33.4218 37.236 33.4749 36.811C33.528 36.3861 33.2266 35.9984 32.8016 35.9453Z" fill="#00BF80"/>
<path d="M32.8016 35.9453L28.5613 34.814C28.1499 34.7071 27.7298 34.9537 27.6228 35.365C27.6199 35.3762 27.6172 35.3875 27.6147 35.3989C27.5029 35.8089 27.7448 36.2319 28.1548 36.3437C28.1569 36.3443 28.159 36.3449 28.1611 36.3455L32.4091 37.4844C32.4755 37.4925 32.5428 37.4925 32.6092 37.4844C33.0342 37.5375 33.4218 37.236 33.4749 36.811C33.528 36.3861 33.2266 35.9984 32.8016 35.9453Z" fill="black" fill-opacity="0.2"/>
<path d="M60.1538 40.8562L40.2299 29.3128C39.8632 29.0979 39.3916 29.221 39.1769 29.5877C39.1765 29.5884 39.1761 29.589 39.1756 29.5898C38.9626 29.9576 39.088 30.4284 39.4557 30.6414C39.4572 30.6424 39.4588 30.6431 39.4603 30.6441L59.3842 42.1875C59.5016 42.2541 59.6341 42.2885 59.769 42.2876C60.0451 42.2887 60.3006 42.1419 60.4385 41.9028C60.6473 41.5349 60.5201 41.0676 60.1538 40.8562Z" fill="#00BF80"/>
<path d="M60.1538 40.8562L40.2299 29.3128C39.8632 29.0979 39.3916 29.221 39.1769 29.5877C39.1765 29.5884 39.1761 29.589 39.1756 29.5898C38.9626 29.9576 39.088 30.4284 39.4557 30.6414C39.4572 30.6424 39.4588 30.6431 39.4603 30.6441L59.3842 42.1875C59.5016 42.2541 59.6341 42.2885 59.769 42.2876C60.0451 42.2887 60.3006 42.1419 60.4385 41.9028C60.6473 41.5349 60.5201 41.0676 60.1538 40.8562Z" fill="black" fill-opacity="0.2"/>
<path d="M86.8586 13.3671C86.5 13.1391 86.0244 13.2451 85.7962 13.6038C85.7847 13.622 85.7739 13.6407 85.7637 13.6599L73.874 34.2534C73.6591 34.6201 73.7822 35.0916 74.1489 35.3064C74.1497 35.3067 74.1502 35.3071 74.151 35.3077C74.5187 35.5207 74.9896 35.3954 75.2026 35.0276C75.2036 35.026 75.2044 35.0245 75.2053 35.023L87.095 14.4295C87.3232 14.0707 87.2172 13.5951 86.8586 13.3671Z" fill="#00BF80"/>
<path d="M86.8586 13.3671C86.5 13.1391 86.0244 13.2451 85.7962 13.6038C85.7847 13.622 85.7739 13.6407 85.7637 13.6599L73.874 34.2534C73.6591 34.6201 73.7822 35.0916 74.1489 35.3064C74.1497 35.3067 74.1502 35.3071 74.151 35.3077C74.5187 35.5207 74.9896 35.3954 75.2026 35.0276C75.2036 35.026 75.2044 35.0245 75.2053 35.023L87.095 14.4295C87.3232 14.0707 87.2172 13.5951 86.8586 13.3671Z" fill="black" fill-opacity="0.2"/>
<path d="M95.2818 38.8802C95.1854 38.4664 94.7716 38.209 94.3577 38.3054C94.3406 38.3094 94.3237 38.314 94.3068 38.319L75.8604 43.2519C75.4494 43.3602 75.2039 43.7812 75.3122 44.1921C75.3128 44.1943 75.3134 44.1964 75.314 44.1985C75.4069 44.5442 75.7259 44.7803 76.0835 44.768C76.1497 44.7797 76.2174 44.7797 76.2836 44.768L94.7069 39.8043C95.1208 39.7079 95.3782 39.2943 95.2818 38.8802Z" fill="#00BF80"/>
<path d="M95.2818 38.8802C95.1854 38.4664 94.7716 38.209 94.3577 38.3054C94.3406 38.3094 94.3237 38.314 94.3068 38.319L75.8604 43.2519C75.4494 43.3602 75.2039 43.7812 75.3122 44.1921C75.3128 44.1943 75.3134 44.1964 75.314 44.1985C75.4069 44.5442 75.7259 44.7803 76.0835 44.768C76.1497 44.7797 76.2174 44.7797 76.2836 44.768L94.7069 39.8043C95.1208 39.7079 95.3782 39.2943 95.2818 38.8802Z" fill="black" fill-opacity="0.2"/>
<path d="M108.123 35.4081C108.004 35.0214 107.607 34.7924 107.213 34.8842L102.103 36.2463C101.691 36.3452 101.437 36.7577 101.533 37.1698C101.626 37.5155 101.945 37.7516 102.303 37.7393C102.369 37.7468 102.436 37.7468 102.503 37.7393L107.613 36.3695C108.019 36.2448 108.247 35.8144 108.123 35.4081Z" fill="#00BF80"/>
<path d="M108.123 35.4081C108.004 35.0214 107.607 34.7924 107.213 34.8842L102.103 36.2463C101.691 36.3452 101.437 36.7577 101.533 37.1698C101.626 37.5155 101.945 37.7516 102.303 37.7393C102.369 37.7468 102.436 37.7468 102.503 37.7393L107.613 36.3695C108.019 36.2448 108.247 35.8144 108.123 35.4081Z" fill="black" fill-opacity="0.2"/>
<path d="M63.1669 25.5465C63.163 25.5295 63.1588 25.5128 63.1538 25.4961L59.8447 13.1831C59.7364 12.7721 59.3154 12.5267 58.9045 12.635C58.9023 12.6355 58.9002 12.6361 58.8981 12.6367C58.4916 12.7492 58.2513 13.1679 58.3594 13.5756L61.6147 25.8962C61.7076 26.242 62.0266 26.478 62.3842 26.4657C62.4506 26.4736 62.5179 26.4736 62.5843 26.4657C62.9989 26.3728 63.2598 25.9613 63.1669 25.5465Z" fill="#00BF80"/>
<path d="M63.1669 25.5465C63.163 25.5295 63.1588 25.5128 63.1538 25.4961L59.8447 13.1831C59.7364 12.7721 59.3154 12.5267 58.9045 12.635C58.9023 12.6355 58.9002 12.6361 58.8981 12.6367C58.4916 12.7492 58.2513 13.1679 58.3594 13.5756L61.6147 25.8962C61.7076 26.242 62.0266 26.478 62.3842 26.4657C62.4506 26.4736 62.5179 26.4736 62.5843 26.4657C62.9989 26.3728 63.2598 25.9613 63.1669 25.5465Z" fill="black" fill-opacity="0.2"/>
<path d="M54.3011 31.5312C54.2996 31.5296 54.2982 31.5281 54.2967 31.5267L39.4903 16.7281C39.1675 16.4516 38.6817 16.4891 38.4052 16.8119C38.1586 17.1 38.1586 17.5249 38.4052 17.8131L53.2039 32.6195C53.5033 32.9212 53.9904 32.9233 54.2922 32.6239C54.2938 32.6224 54.2953 32.621 54.2967 32.6195C54.5983 32.3203 54.6005 31.833 54.3011 31.5312Z" fill="#00BF80"/>
<path d="M54.3011 31.5312C54.2996 31.5296 54.2982 31.5281 54.2967 31.5267L39.4903 16.7281C39.1675 16.4516 38.6817 16.4891 38.4052 16.8119C38.1586 17.1 38.1586 17.5249 38.4052 17.8131L53.2039 32.6195C53.5033 32.9212 53.9904 32.9233 54.2922 32.6239C54.2938 32.6224 54.2953 32.621 54.2967 32.6195C54.5983 32.3203 54.6005 31.833 54.3011 31.5312Z" fill="black" fill-opacity="0.2"/>
<path d="M67.8726 18.4336C67.4476 18.4336 67.1031 18.7782 67.1031 19.2032V39.0963C67.1031 39.5213 67.4476 39.8659 67.8726 39.8659C68.2976 39.8659 68.6422 39.5213 68.6422 39.0963V19.2032C68.6422 18.7782 68.2976 18.4336 67.8726 18.4336Z" fill="#00BF80"/>
<path d="M67.8726 18.4336C67.4476 18.4336 67.1031 18.7782 67.1031 19.2032V39.0963C67.1031 39.5213 67.4476 39.8659 67.8726 39.8659C68.2976 39.8659 68.6422 39.5213 68.6422 39.0963V19.2032C68.6422 18.7782 68.2976 18.4336 67.8726 18.4336Z" fill="black" fill-opacity="0.2"/>
<path d="M67.8724 4.52051C67.4474 4.52051 67.1028 4.86508 67.1028 5.29007V15.0866C67.1028 15.5116 67.4474 15.8561 67.8724 15.8561C68.2974 15.8561 68.642 15.5116 68.642 15.0866V5.29007C68.642 4.86508 68.2974 4.52051 67.8724 4.52051Z" fill="#00BF80"/>
<path d="M67.8724 4.52051C67.4474 4.52051 67.1028 4.86508 67.1028 5.29007V15.0866C67.1028 15.5116 67.4474 15.8561 67.8724 15.8561C68.2974 15.8561 68.642 15.5116 68.642 15.0866V5.29007C68.642 4.86508 68.2974 4.52051 67.8724 4.52051Z" fill="black" fill-opacity="0.2"/>
<path d="M104.71 45.4176H89.1577C88.7327 45.4176 88.3881 45.7622 88.3881 46.1872C88.3881 46.6122 88.7327 46.9567 89.1577 46.9567H104.71C105.135 46.9567 105.48 46.6122 105.48 46.1872C105.48 45.7622 105.135 45.4176 104.71 45.4176Z" fill="#00BF80"/>
<path d="M104.71 45.4176H89.1577C88.7327 45.4176 88.3881 45.7622 88.3881 46.1872C88.3881 46.6122 88.7327 46.9567 89.1577 46.9567H104.71C105.135 46.9567 105.48 46.6122 105.48 46.1872C105.48 45.7622 105.135 45.4176 104.71 45.4176Z" fill="black" fill-opacity="0.2"/>
<path d="M51.9577 8.32069L54.2279 3.99576C54.3668 3.73949 54.3489 3.42647 54.1818 3.18772C54.0071 2.94396 53.7067 2.82371 53.4122 2.87989L48.6101 3.70332L45.201 0.209515C44.8916 -0.0819567 44.4047 -0.0675274 44.1132 0.241644C44.0108 0.350152 43.9424 0.48598 43.9158 0.632773L43.2155 5.46562L38.7982 7.65887C38.5395 7.78931 38.3759 8.05404 38.375 8.34378C38.3728 8.6364 38.537 8.90479 38.7982 9.03638L43.1847 11.1989L43.9158 16.0086C43.9572 16.2991 44.1601 16.541 44.4391 16.632C44.5164 16.656 44.5967 16.6689 44.6777 16.6704C44.886 16.6716 45.0859 16.5883 45.2318 16.4396L48.6409 12.9381L53.4584 13.7615C53.8809 13.8082 54.2612 13.5037 54.308 13.0814C54.3245 12.9315 54.2968 12.7799 54.2279 12.6456L51.9577 8.32069ZM48.4716 11.3528C48.2203 11.3091 47.9639 11.3928 47.7867 11.5759L45.1856 14.2463L44.6469 10.5524C44.6117 10.2992 44.4531 10.0801 44.2236 9.96755L40.8837 8.313L44.2236 6.66613C44.458 6.5709 44.6305 6.36678 44.6854 6.11975L45.2241 2.42585L47.7636 5.07314C47.9423 5.2536 48.1986 5.33422 48.4485 5.28862L52.127 4.65758L50.4109 7.96669C50.2932 8.19083 50.2932 8.45825 50.4109 8.68239L52.1501 11.9838L48.4716 11.3528Z" fill="#00BF80"/>
<path d="M51.9577 8.32069L54.2279 3.99576C54.3668 3.73949 54.3489 3.42647 54.1818 3.18772C54.0071 2.94396 53.7067 2.82371 53.4122 2.87989L48.6101 3.70332L45.201 0.209515C44.8916 -0.0819567 44.4047 -0.0675274 44.1132 0.241644C44.0108 0.350152 43.9424 0.48598 43.9158 0.632773L43.2155 5.46562L38.7982 7.65887C38.5395 7.78931 38.3759 8.05404 38.375 8.34378C38.3728 8.6364 38.537 8.90479 38.7982 9.03638L43.1847 11.1989L43.9158 16.0086C43.9572 16.2991 44.1601 16.541 44.4391 16.632C44.5164 16.656 44.5967 16.6689 44.6777 16.6704C44.886 16.6716 45.0859 16.5883 45.2318 16.4396L48.6409 12.9381L53.4584 13.7615C53.8809 13.8082 54.2612 13.5037 54.308 13.0814C54.3245 12.9315 54.2968 12.7799 54.2279 12.6456L51.9577 8.32069ZM48.4716 11.3528C48.2203 11.3091 47.9639 11.3928 47.7867 11.5759L45.1856 14.2463L44.6469 10.5524C44.6117 10.2992 44.4531 10.0801 44.2236 9.96755L40.8837 8.313L44.2236 6.66613C44.458 6.5709 44.6305 6.36678 44.6854 6.11975L45.2241 2.42585L47.7636 5.07314C47.9423 5.2536 48.1986 5.33422 48.4485 5.28862L52.127 4.65758L50.4109 7.96669C50.2932 8.19083 50.2932 8.45825 50.4109 8.68239L52.1501 11.9838L48.4716 11.3528Z" fill="black" fill-opacity="0.2"/>
<path d="M108.116 12.0635C108.017 11.9254 107.874 11.8242 107.711 11.7757L107.788 11.8065L103.101 10.4136L101.562 5.79623C101.472 5.51938 101.234 5.31699 100.947 5.27293C100.649 5.22021 100.348 5.34661 100.177 5.59614L97.4065 9.62095H92.5198C92.2255 9.62037 91.9567 9.78756 91.8272 10.0519C91.6972 10.3139 91.727 10.6272 91.9042 10.8599L94.8747 14.7078L93.3356 19.3251C93.2059 19.7299 93.4289 20.1632 93.8335 20.2928C93.9922 20.3436 94.163 20.3417 94.3206 20.2871L98.938 18.6633L102.894 21.5338C103.023 21.6278 103.179 21.679 103.34 21.68C103.465 21.6784 103.589 21.6496 103.702 21.5953C103.959 21.4582 104.117 21.1869 104.109 20.895L103.986 16.0083L107.942 13.1378C108.287 12.8893 108.365 12.4083 108.116 12.0635ZM102.832 15.0308C102.626 15.1808 102.508 15.4229 102.516 15.6772L102.609 19.4019L99.5921 17.2086C99.4601 17.113 99.301 17.0618 99.1381 17.0624C99.0515 17.0634 98.9655 17.079 98.8841 17.1086L95.3672 18.3476L96.5215 14.7999C96.6 14.5581 96.5539 14.2932 96.3984 14.0919L94.0897 11.1291H97.8221C98.0739 11.1287 98.3096 11.005 98.4531 10.7982L100.577 7.71994L101.724 11.2676C101.802 11.5093 101.995 11.6965 102.239 11.7678L105.818 12.8298L102.832 15.0308Z" fill="#00BF80"/>
<path d="M108.116 12.0635C108.017 11.9254 107.874 11.8242 107.711 11.7757L107.788 11.8065L103.101 10.4136L101.562 5.79623C101.472 5.51938 101.234 5.31699 100.947 5.27293C100.649 5.22021 100.348 5.34661 100.177 5.59614L97.4065 9.62095H92.5198C92.2255 9.62037 91.9567 9.78756 91.8272 10.0519C91.6972 10.3139 91.727 10.6272 91.9042 10.8599L94.8747 14.7078L93.3356 19.3251C93.2059 19.7299 93.4289 20.1632 93.8335 20.2928C93.9922 20.3436 94.163 20.3417 94.3206 20.2871L98.938 18.6633L102.894 21.5338C103.023 21.6278 103.179 21.679 103.34 21.68C103.465 21.6784 103.589 21.6496 103.702 21.5953C103.959 21.4582 104.117 21.1869 104.109 20.895L103.986 16.0083L107.942 13.1378C108.287 12.8893 108.365 12.4083 108.116 12.0635ZM102.832 15.0308C102.626 15.1808 102.508 15.4229 102.516 15.6772L102.609 19.4019L99.5921 17.2086C99.4601 17.113 99.301 17.0618 99.1381 17.0624C99.0515 17.0634 98.9655 17.079 98.8841 17.1086L95.3672 18.3476L96.5215 14.7999C96.6 14.5581 96.5539 14.2932 96.3984 14.0919L94.0897 11.1291H97.8221C98.0739 11.1287 98.3096 11.005 98.4531 10.7982L100.577 7.71994L101.724 11.2676C101.802 11.5093 101.995 11.6965 102.239 11.7678L105.818 12.8298L102.832 15.0308Z" fill="black" fill-opacity="0.2"/>
<path d="M63.9638 37.8871C63.9629 37.8856 63.9621 37.8841 63.9611 37.8825L55.3036 22.8838C55.0898 22.5163 54.6189 22.3918 54.2514 22.6054C54.2506 22.6058 54.25 22.6061 54.2493 22.6067C53.8857 22.8207 53.7621 23.2876 53.9722 23.6533L62.6298 38.6521C62.841 39.0186 63.3085 39.1458 63.6764 38.9368C64.0456 38.7263 64.1743 38.2563 63.9638 37.8871Z" fill="#00BF80"/>
<path d="M63.9638 37.8871C63.9629 37.8856 63.9621 37.8841 63.9611 37.8825L55.3036 22.8838C55.0898 22.5163 54.6189 22.3918 54.2514 22.6054C54.2506 22.6058 54.25 22.6061 54.2493 22.6067C53.8857 22.8207 53.7621 23.2876 53.9722 23.6533L62.6298 38.6521C62.841 39.0186 63.3085 39.1458 63.6764 38.9368C64.0456 38.7263 64.1743 38.2563 63.9638 37.8871Z" fill="black" fill-opacity="0.2"/>
<path d="M101.58 26.7346C101.579 26.733 101.579 26.7315 101.578 26.73C101.364 26.3625 100.893 26.238 100.525 26.4516C100.525 26.452 100.524 26.4523 100.523 26.4529L98.6071 27.5534C98.2304 27.7504 98.0849 28.2154 98.2819 28.5919C98.4789 28.9686 98.9439 29.1141 99.3204 28.9171C99.3397 28.907 99.3583 28.8963 99.3766 28.8845L101.293 27.7841C101.662 27.5738 101.791 27.1038 101.58 26.7346Z" fill="#00BF80"/>
<path d="M101.58 26.7346C101.579 26.733 101.579 26.7315 101.578 26.73C101.364 26.3625 100.893 26.238 100.525 26.4516C100.525 26.452 100.524 26.4523 100.523 26.4529L98.6071 27.5534C98.2304 27.7504 98.0849 28.2154 98.2819 28.5919C98.4789 28.9686 98.9439 29.1141 99.3204 28.9171C99.3397 28.907 99.3583 28.8963 99.3766 28.8845L101.293 27.7841C101.662 27.5738 101.791 27.1038 101.58 26.7346Z" fill="black" fill-opacity="0.2"/>
</svg>
