<svg width="110" height="110" viewBox="0 0 110 110" fill="none" xmlns="http://www.w3.org/2000/svg">
<path d="M82.3163 11.9492H68.1259C67.5839 11.9492 67.1445 12.3886 67.1445 12.9306C67.1445 13.4725 67.5839 13.9119 68.1259 13.9119H82.3163C82.8582 13.9119 83.2976 13.4725 83.2976 12.9306C83.2976 12.3886 82.8582 11.9492 82.3163 11.9492Z" fill="#00BF80"/>
<path d="M82.3163 11.9492H68.1259C67.5839 11.9492 67.1445 12.3886 67.1445 12.9306C67.1445 13.4725 67.5839 13.9119 68.1259 13.9119H82.3163C82.8582 13.9119 83.2976 13.4725 83.2976 12.9306C83.2976 12.3886 82.8582 11.9492 82.3163 11.9492Z" fill="black" fill-opacity="0.2"/>
<path d="M89.9599 11.9492H87.5458C87.0039 11.9492 86.5645 12.3886 86.5645 12.9306C86.5645 13.4725 87.0039 13.9119 87.5458 13.9119H89.9599C90.5019 13.9119 90.9413 13.4725 90.9413 12.9306C90.9413 12.3886 90.5019 11.9492 89.9599 11.9492Z" fill="#00BF80"/>
<path d="M89.9599 11.9492H87.5458C87.0039 11.9492 86.5645 12.3886 86.5645 12.9306C86.5645 13.4725 87.0039 13.9119 87.5458 13.9119H89.9599C90.5019 13.9119 90.9413 13.4725 90.9413 12.9306C90.9413 12.3886 90.5019 11.9492 89.9599 11.9492Z" fill="black" fill-opacity="0.2"/>
<path d="M70.2167 74.2661H39.7947C39.2528 74.2661 38.8134 74.7055 38.8134 75.2475C38.8134 75.7894 39.2528 76.2288 39.7947 76.2288H70.2167C70.7586 76.2288 71.198 75.7894 71.198 75.2475C71.198 74.7055 70.7586 74.2661 70.2167 74.2661Z" fill="#00BF80"/>
<path d="M70.2167 74.2661H39.7947C39.2528 74.2661 38.8134 74.7055 38.8134 75.2475C38.8134 75.7894 39.2528 76.2288 39.7947 76.2288H70.2167C70.7586 76.2288 71.198 75.7894 71.198 75.2475C71.198 74.7055 70.7586 74.2661 70.2167 74.2661Z" fill="black" fill-opacity="0.2"/>
<path d="M70.2158 79.4961H39.7939C39.2519 79.4961 38.8125 79.9355 38.8125 80.4775C38.8125 81.0194 39.2519 81.4588 39.7939 81.4588H70.2158C70.7578 81.4588 71.1972 81.0194 71.1972 80.4775C71.1972 79.9355 70.7578 79.4961 70.2158 79.4961Z" fill="#00BF80"/>
<path d="M70.2158 79.4961H39.7939C39.2519 79.4961 38.8125 79.9355 38.8125 80.4775C38.8125 81.0194 39.2519 81.4588 39.7939 81.4588H70.2158C70.7578 81.4588 71.1972 81.0194 71.1972 80.4775C71.1972 79.9355 70.7578 79.4961 70.2158 79.4961Z" fill="black" fill-opacity="0.2"/>
<path d="M70.2158 84.2617H39.7939C39.2519 84.2617 38.8125 84.7011 38.8125 85.2431C38.8125 85.785 39.2519 86.2244 39.7939 86.2244H70.2158C70.7578 86.2244 71.1972 85.785 71.1972 85.2431C71.1972 84.7011 70.7578 84.2617 70.2158 84.2617Z" fill="#00BF80"/>
<path d="M70.2158 84.2617H39.7939C39.2519 84.2617 38.8125 84.7011 38.8125 85.2431C38.8125 85.785 39.2519 86.2244 39.7939 86.2244H70.2158C70.7578 86.2244 71.1972 85.785 71.1972 85.2431C71.1972 84.7011 70.7578 84.2617 70.2158 84.2617Z" fill="black" fill-opacity="0.2"/>
<path d="M91.8061 78.5031H79.3723C78.8304 78.5031 78.391 78.9425 78.391 79.4844V85.9025C78.391 86.4444 78.8304 86.8838 79.3723 86.8838H91.8061C92.3481 86.8838 92.7875 86.4444 92.7875 85.9025V79.4844C92.7875 78.9425 92.3481 78.5031 91.8061 78.5031ZM90.8248 84.9211H80.3537V80.4658H90.8248V84.9211Z" fill="#00BF80"/>
<path d="M91.8061 78.5031H79.3723C78.8304 78.5031 78.391 78.9425 78.391 79.4844V85.9025C78.391 86.4444 78.8304 86.8838 79.3723 86.8838H91.8061C92.3481 86.8838 92.7875 86.4444 92.7875 85.9025V79.4844C92.7875 78.9425 92.3481 78.5031 91.8061 78.5031ZM90.8248 84.9211H80.3537V80.4658H90.8248V84.9211Z" fill="black" fill-opacity="0.2"/>
<path d="M30.6287 78.5031H18.2047C17.6628 78.5031 17.2234 78.9425 17.2234 79.4844V85.9025C17.2234 86.4444 17.6628 86.8838 18.2047 86.8838H30.6287C31.1706 86.8838 31.61 86.4444 31.61 85.9025V79.4844C31.61 78.9425 31.1706 78.5031 30.6287 78.5031ZM29.6473 84.9211H19.1861V80.4658H29.6473V84.9211Z" fill="#00BF80"/>
<path d="M30.6287 78.5031H18.2047C17.6628 78.5031 17.2234 78.9425 17.2234 79.4844V85.9025C17.2234 86.4444 17.6628 86.8838 18.2047 86.8838H30.6287C31.1706 86.8838 31.61 86.4444 31.61 85.9025V79.4844C31.61 78.9425 31.1706 78.5031 30.6287 78.5031ZM29.6473 84.9211H19.1861V80.4658H29.6473V84.9211Z" fill="black" fill-opacity="0.2"/>
<path d="M109.019 26.6668H107.399V24.6256C107.402 24.3402 107.28 24.0679 107.066 23.8797L100.638 18.3253V13.762C100.632 9.09758 96.8528 5.3179 92.1884 5.3125H17.8116C13.1472 5.3179 9.36752 9.09758 9.36212 13.762V18.3253L2.94406 23.919C2.72596 24.1054 2.60059 24.378 2.60059 24.6648V26.6668H0.981354C0.439401 26.6668 0 27.1062 0 27.6481V45.9406C0 46.4825 0.439401 46.9219 0.981354 46.9219H6.21197C6.75393 46.9219 7.19333 46.4825 7.19333 45.9406V27.6481C7.19333 27.1062 6.75393 26.6668 6.21197 26.6668H4.5633V25.0672L9.36212 20.8866V88.1388C9.3658 92.4472 12.607 96.0645 16.8891 96.5392V99.6108C16.8945 102.411 19.1629 104.679 21.9627 104.684H29.6467C32.4465 104.679 34.7149 102.411 34.7203 99.6108V96.5883H75.2797V99.6108C75.2851 102.411 77.5535 104.679 80.3533 104.684H88.0471C90.8454 104.679 93.1109 102.409 93.1109 99.6108V96.5392C97.393 96.0645 100.634 92.4472 100.638 88.1388V20.8866L105.437 25.0672V26.6668H103.817C103.276 26.6668 102.836 27.1062 102.836 27.6481V45.9406C102.836 46.4825 103.276 46.9219 103.817 46.9219H109.019C109.561 46.9219 110 46.4825 110 45.9406V27.6481C110 27.1062 109.561 26.6668 109.019 26.6668ZM5.23062 28.6295V44.9592H1.96271V28.6295H5.23062ZM32.7576 99.6108C32.7576 101.329 31.3648 102.722 29.6467 102.722H21.9627C20.2446 102.722 18.8518 101.329 18.8518 99.6108V96.5883H32.7576V99.6108ZM91.1482 99.6108C91.1482 101.325 89.7613 102.716 88.0471 102.722H80.3533C78.6352 102.722 77.2424 101.329 77.2424 99.6108V96.5883H91.1482V99.6108ZM98.6654 88.1388C98.6654 91.7176 95.7672 94.6202 92.1884 94.6256H17.8116C14.2314 94.6202 11.3302 91.719 11.3248 88.1388V57.128L19.9509 63.6736C20.1222 63.8066 20.3327 63.879 20.5496 63.8797H89.4406C89.6541 63.8768 89.8609 63.8047 90.0294 63.6736L98.6654 57.128V88.1388ZM66.3003 61.917C66.818 56.4349 71.6818 52.4104 77.1641 52.9281C81.9298 53.378 85.7031 57.1513 86.1531 61.917H66.3003ZM89.1168 61.8876H88.1354C87.6359 55.3213 81.9082 50.4033 75.342 50.9028C69.4703 51.3493 64.804 56.0159 64.3572 61.8876H20.9323L11.3248 54.6354V19.7973H98.6654L98.6752 54.6354L89.1168 61.8876ZM98.6752 17.8346H11.3346V13.762C11.34 10.1854 14.235 7.286 17.8116 7.27521H92.1884C95.7709 7.27521 98.6752 10.1795 98.6752 13.762V17.8346ZM108.037 44.9592H104.799V28.6295H108.037V44.9592Z" fill="#00BF80"/>
<path d="M109.019 26.6668H107.399V24.6256C107.402 24.3402 107.28 24.0679 107.066 23.8797L100.638 18.3253V13.762C100.632 9.09758 96.8528 5.3179 92.1884 5.3125H17.8116C13.1472 5.3179 9.36752 9.09758 9.36212 13.762V18.3253L2.94406 23.919C2.72596 24.1054 2.60059 24.378 2.60059 24.6648V26.6668H0.981354C0.439401 26.6668 0 27.1062 0 27.6481V45.9406C0 46.4825 0.439401 46.9219 0.981354 46.9219H6.21197C6.75393 46.9219 7.19333 46.4825 7.19333 45.9406V27.6481C7.19333 27.1062 6.75393 26.6668 6.21197 26.6668H4.5633V25.0672L9.36212 20.8866V88.1388C9.3658 92.4472 12.607 96.0645 16.8891 96.5392V99.6108C16.8945 102.411 19.1629 104.679 21.9627 104.684H29.6467C32.4465 104.679 34.7149 102.411 34.7203 99.6108V96.5883H75.2797V99.6108C75.2851 102.411 77.5535 104.679 80.3533 104.684H88.0471C90.8454 104.679 93.1109 102.409 93.1109 99.6108V96.5392C97.393 96.0645 100.634 92.4472 100.638 88.1388V20.8866L105.437 25.0672V26.6668H103.817C103.276 26.6668 102.836 27.1062 102.836 27.6481V45.9406C102.836 46.4825 103.276 46.9219 103.817 46.9219H109.019C109.561 46.9219 110 46.4825 110 45.9406V27.6481C110 27.1062 109.561 26.6668 109.019 26.6668ZM5.23062 28.6295V44.9592H1.96271V28.6295H5.23062ZM32.7576 99.6108C32.7576 101.329 31.3648 102.722 29.6467 102.722H21.9627C20.2446 102.722 18.8518 101.329 18.8518 99.6108V96.5883H32.7576V99.6108ZM91.1482 99.6108C91.1482 101.325 89.7613 102.716 88.0471 102.722H80.3533C78.6352 102.722 77.2424 101.329 77.2424 99.6108V96.5883H91.1482V99.6108ZM98.6654 88.1388C98.6654 91.7176 95.7672 94.6202 92.1884 94.6256H17.8116C14.2314 94.6202 11.3302 91.719 11.3248 88.1388V57.128L19.9509 63.6736C20.1222 63.8066 20.3327 63.879 20.5496 63.8797H89.4406C89.6541 63.8768 89.8609 63.8047 90.0294 63.6736L98.6654 57.128V88.1388ZM66.3003 61.917C66.818 56.4349 71.6818 52.4104 77.1641 52.9281C81.9298 53.378 85.7031 57.1513 86.1531 61.917H66.3003ZM89.1168 61.8876H88.1354C87.6359 55.3213 81.9082 50.4033 75.342 50.9028C69.4703 51.3493 64.804 56.0159 64.3572 61.8876H20.9323L11.3248 54.6354V19.7973H98.6654L98.6752 54.6354L89.1168 61.8876ZM98.6752 17.8346H11.3346V13.762C11.34 10.1854 14.235 7.286 17.8116 7.27521H92.1884C95.7709 7.27521 98.6752 10.1795 98.6752 13.762V17.8346ZM108.037 44.9592H104.799V28.6295H108.037V44.9592Z" fill="black" fill-opacity="0.2"/>
<path d="M33.2091 28.9162C32.9196 28.4641 32.3205 28.3286 31.8646 28.612L29.8234 29.8976C29.3627 30.1829 29.2206 30.7879 29.506 31.2487C29.6873 31.5413 30.0089 31.7177 30.3534 31.7131C30.5381 31.7106 30.7184 31.6564 30.8735 31.5561L32.9147 30.2705C33.3693 29.9773 33.501 29.3716 33.2091 28.9162Z" fill="#00BF80"/>
<path d="M33.2091 28.9162C32.9196 28.4641 32.3205 28.3286 31.8646 28.612L29.8234 29.8976C29.3627 30.1829 29.2206 30.7879 29.506 31.2487C29.6873 31.5413 30.0089 31.7177 30.3534 31.7131C30.5381 31.7106 30.7184 31.6564 30.8735 31.5561L32.9147 30.2705C33.3693 29.9773 33.501 29.3716 33.2091 28.9162Z" fill="black" fill-opacity="0.2"/>
<path d="M34.1916 32.1632C33.9021 31.711 33.303 31.5756 32.8472 31.859L25.8403 36.2849C25.3857 36.578 25.254 37.1838 25.5459 37.6391C25.7279 37.923 26.043 38.0933 26.3801 38.0906C26.567 38.093 26.751 38.042 26.91 37.9434L33.8972 33.5174C34.3518 33.2243 34.4836 32.6185 34.1916 32.1632Z" fill="#00BF80"/>
<path d="M34.1916 32.1632C33.9021 31.711 33.303 31.5756 32.8472 31.859L25.8403 36.2849C25.3857 36.578 25.254 37.1838 25.5459 37.6391C25.7279 37.923 26.043 38.0933 26.3801 38.0906C26.567 38.093 26.751 38.042 26.91 37.9434L33.8972 33.5174C34.3518 33.2243 34.4836 32.6185 34.1916 32.1632Z" fill="black" fill-opacity="0.2"/>
<path d="M59.5491 42.478C59.5395 42.478 59.5304 42.4768 59.5211 42.4766C59.514 42.4766 59.5071 42.478 59.5 42.478H59.5491Z" fill="#00BF80"/>
<path d="M59.5491 42.478C59.5395 42.478 59.5304 42.4768 59.5211 42.4766C59.514 42.4766 59.5071 42.478 59.5 42.478H59.5491Z" fill="black" fill-opacity="0.2"/>
<path d="M67.3609 36.5386C67.0709 36.0806 66.4647 35.9444 66.0066 36.2344L59.0193 40.6603C58.5586 40.9457 58.4166 41.5507 58.7019 42.0114C58.8783 42.2962 59.1877 42.4692 59.5211 42.4744C59.6989 42.4714 59.8724 42.4182 60.0201 42.3188L67.0564 37.8929C67.5147 37.6029 67.6509 36.9967 67.3609 36.5386Z" fill="#00BF80"/>
<path d="M67.3609 36.5386C67.0709 36.0806 66.4647 35.9444 66.0066 36.2344L59.0193 40.6603C58.5586 40.9457 58.4166 41.5507 58.7019 42.0114C58.8783 42.2962 59.1877 42.4692 59.5211 42.4744C59.6989 42.4714 59.8724 42.4182 60.0201 42.3188L67.0564 37.8929C67.5147 37.6029 67.6509 36.9967 67.3609 36.5386Z" fill="black" fill-opacity="0.2"/>
<path d="M63.8167 43.9607C63.8164 43.9607 63.8164 43.9604 63.8167 43.9607C63.5267 43.5026 62.9205 43.3662 62.4624 43.6562C62.4624 43.6562 62.4622 43.6562 62.4622 43.6565L58.9686 45.8743C58.5078 46.1597 58.3658 46.7647 58.6511 47.2254C58.8324 47.5181 59.154 47.6945 59.4985 47.6898C59.6837 47.6908 59.865 47.6361 60.0186 47.5328L63.5122 45.315C63.9703 45.025 64.1064 44.4187 63.8167 43.9607Z" fill="#00BF80"/>
<path d="M63.8167 43.9607C63.8164 43.9607 63.8164 43.9604 63.8167 43.9607C63.5267 43.5026 62.9205 43.3662 62.4624 43.6562C62.4624 43.6562 62.4622 43.6562 62.4622 43.6565L58.9686 45.8743C58.5078 46.1597 58.3658 46.7647 58.6511 47.2254C58.8324 47.5181 59.154 47.6945 59.4985 47.6898C59.6837 47.6908 59.865 47.6361 60.0186 47.5328L63.5122 45.315C63.9703 45.025 64.1064 44.4187 63.8167 43.9607Z" fill="black" fill-opacity="0.2"/>
</svg>
