<svg width="110" height="110" viewBox="0 0 110 110" fill="none" xmlns="http://www.w3.org/2000/svg">
<path d="M40.0091 48.2859C39.4694 48.2859 39.0318 48.7235 39.0318 49.2631V51.7063C39.0318 52.246 39.4694 52.6835 40.0091 52.6835C40.5487 52.6835 40.9863 52.246 40.9863 51.7063V49.2631C40.9863 48.7235 40.5487 48.2859 40.0091 48.2859Z" fill="#00BF80"/>
<path d="M40.0091 48.2859C39.4694 48.2859 39.0318 48.7235 39.0318 49.2631V51.7063C39.0318 52.246 39.4694 52.6835 40.0091 52.6835C40.5487 52.6835 40.9863 52.246 40.9863 51.7063V49.2631C40.9863 48.7235 40.5487 48.2859 40.0091 48.2859Z" fill="black" fill-opacity="0.2"/>
<path d="M40.0085 39.9805C39.4688 39.9805 39.0312 40.418 39.0312 40.9577V43.4009C39.0312 43.9406 39.4688 44.3781 40.0085 44.3781C40.5482 44.3781 40.9858 43.9406 40.9858 43.4009V40.9577C40.9858 40.418 40.5482 39.9805 40.0085 39.9805Z" fill="#00BF80"/>
<path d="M40.0085 39.9805C39.4688 39.9805 39.0312 40.418 39.0312 40.9577V43.4009C39.0312 43.9406 39.4688 44.3781 40.0085 44.3781C40.5482 44.3781 40.9858 43.9406 40.9858 43.4009V40.9577C40.9858 40.418 40.5482 39.9805 40.0085 39.9805Z" fill="black" fill-opacity="0.2"/>
<path d="M69.9713 48.2859C69.4316 48.2859 68.994 48.7235 68.994 49.2631V51.7063C68.994 52.246 69.4316 52.6835 69.9713 52.6835C70.511 52.6835 70.9485 52.246 70.9485 51.7063V49.2631C70.9485 48.7235 70.511 48.2859 69.9713 48.2859Z" fill="#00BF80"/>
<path d="M69.9713 48.2859C69.4316 48.2859 68.994 48.7235 68.994 49.2631V51.7063C68.994 52.246 69.4316 52.6835 69.9713 52.6835C70.511 52.6835 70.9485 52.246 70.9485 51.7063V49.2631C70.9485 48.7235 70.511 48.2859 69.9713 48.2859Z" fill="black" fill-opacity="0.2"/>
<path d="M69.9714 39.9805C69.4317 39.9805 68.9941 40.418 68.9941 40.9577V43.4009C68.9941 43.9406 69.4317 44.3781 69.9714 44.3781C70.5111 44.3781 70.9487 43.9406 70.9487 43.4009V40.9577C70.9487 40.418 70.5111 39.9805 69.9714 39.9805Z" fill="#00BF80"/>
<path d="M69.9714 39.9805C69.4317 39.9805 68.9941 40.418 68.9941 40.9577V43.4009C68.9941 43.9406 69.4317 44.3781 69.9714 44.3781C70.5111 44.3781 70.9487 43.9406 70.9487 43.4009V40.9577C70.9487 40.418 70.5111 39.9805 69.9714 39.9805Z" fill="black" fill-opacity="0.2"/>
<path d="M72.8048 69.5396H37.1741C36.6344 69.5396 36.1968 69.9771 36.1968 70.5168C36.1968 71.0565 36.6344 71.4941 37.1741 71.4941H72.8048C73.3445 71.4941 73.7821 71.0565 73.7821 70.5168C73.7821 69.9771 73.3445 69.5396 72.8048 69.5396Z" fill="#00BF80"/>
<path d="M72.8048 69.5396H37.1741C36.6344 69.5396 36.1968 69.9771 36.1968 70.5168C36.1968 71.0565 36.6344 71.4941 37.1741 71.4941H72.8048C73.3445 71.4941 73.7821 71.0565 73.7821 70.5168C73.7821 69.9771 73.3445 69.5396 72.8048 69.5396Z" fill="black" fill-opacity="0.2"/>
<path d="M91.8229 44.9538C95.0612 44.9538 97.6864 42.3286 97.6864 39.0903V28.6629C97.6864 25.4246 95.0612 22.7994 91.8229 22.7994H90.4058V9.00053C90.4058 9.00053 90.4058 8.95167 90.4058 8.92235C90.4105 8.85737 90.4105 8.79189 90.4058 8.7269C90.3536 8.54904 90.2519 8.38975 90.1127 8.26759L89.9563 8.16986C89.904 8.12906 89.8444 8.09926 89.7804 8.08191C89.7579 8.07654 89.7345 8.07654 89.712 8.08191H89.5947H89.4774H72.7077V4.32925C72.697 1.93888 70.7591 0.00537491 68.3687 0H41.6114C39.2228 0.00537491 37.2875 1.94059 37.2822 4.32925V8.02328H20.5711H20.4538H20.3365C20.3141 8.0179 20.2906 8.0179 20.2681 8.02328C20.2041 8.04062 20.1445 8.07043 20.0922 8.11123L19.9359 8.20895C19.7993 8.33356 19.6981 8.49187 19.6427 8.66827C19.638 8.73325 19.638 8.79873 19.6427 8.86372C19.6427 8.86372 19.6427 8.91258 19.6427 8.9419V22.7994H18.1768C14.9384 22.7994 12.3133 25.4246 12.3133 28.6629V39.1098C12.3133 42.3482 14.9384 44.9734 18.1768 44.9734H19.5938V54.9707H18.1768C14.9384 54.9707 12.3133 57.5958 12.3133 60.8342V74.2129C12.3133 77.4513 14.9384 80.0764 18.1768 80.0764H19.5938V84.5425L17.268 84.5132C14.5825 84.5449 12.4134 86.7139 12.3817 89.3994V101.781C12.4134 104.467 14.5825 106.636 17.268 106.668H33.8813V109.023C33.8813 109.562 34.3189 110 34.8586 110H40.7221C41.2618 110 41.6994 109.562 41.6994 109.023V106.668H67.5576V109.023C67.5576 109.562 67.9951 110 68.5348 110H74.3984C74.9381 110 75.3756 109.562 75.3756 109.023V106.668H92.7122C95.4167 106.662 97.6153 104.486 97.6473 101.781V89.4483C97.6476 88.4649 97.3512 87.5045 96.7971 86.6924C95.8851 85.3431 94.3605 84.5368 92.7317 84.5425H90.4058V80.0471H91.8229C95.0612 80.0471 97.6864 77.4219 97.6864 74.1835V60.8049C97.6864 57.5665 95.0612 54.9414 91.8229 54.9414H90.4058V44.9538H91.8229ZM90.4058 24.7539H91.8033C93.9623 24.7539 95.7123 26.5039 95.7123 28.6629V29.1027H90.4058V24.7539ZM39.2367 4.32925C39.2367 3.01777 40.2999 1.95451 41.6114 1.95451H68.3687C69.6819 1.95451 70.7478 3.01606 70.7532 4.32925V8.02328H39.2367V4.32925ZM88.2168 9.97779L78.9035 48.7749H75.6884V29.8454H77.7895C78.3291 29.8454 78.7667 29.4079 78.7667 28.8682C78.7667 28.3285 78.3291 27.8909 77.7895 27.8909H62.1534C61.6137 27.8909 61.1761 28.3285 61.1761 28.8682C61.1761 29.4079 61.6137 29.8454 62.1534 29.8454H64.2545V48.7749H45.6866V29.8454H47.7877C48.3274 29.8454 48.7649 29.4079 48.7649 28.8682C48.7649 28.3285 48.3274 27.8909 47.7877 27.8909H32.1516C31.6119 27.8909 31.1743 28.3285 31.1743 28.8682C31.1743 29.4079 31.6119 29.8454 32.1516 29.8454H34.2527V48.7749H31.1157L21.7633 9.97779H88.2168ZM73.7338 29.8454V55.1368L69.9714 58.2347L66.209 55.1368V29.8454H73.7338ZM43.7712 29.8454V55.1368L40.0087 58.2347L36.2463 55.1368V29.8454H43.7712ZM21.5483 17.2681L29.3664 49.9867C29.4766 50.4335 29.8836 50.7428 30.3436 50.7294H34.2527V55.6157C34.2522 55.9064 34.3812 56.1822 34.6045 56.3682L39.3442 60.2772C39.5201 60.4228 39.7412 60.5024 39.9696 60.502C40.1946 60.5002 40.4121 60.4208 40.5853 60.2772L45.3348 56.3682C45.5581 56.1822 45.6871 55.9064 45.6866 55.6157V50.7294H64.2545V55.6157C64.254 55.9064 64.383 56.1822 64.6063 56.3682L69.3557 60.2772C69.529 60.4208 69.7464 60.5002 69.9714 60.502C70.1998 60.5024 70.4209 60.4228 70.5968 60.2772L75.3365 56.3682C75.5598 56.1822 75.6888 55.9064 75.6884 55.6157V50.7294H79.5974C80.0574 50.7428 80.4644 50.4335 80.5746 49.9867L88.3927 17.2681V84.5132H81.1805V63.8442C81.1805 63.3045 80.743 62.8669 80.2033 62.8669H29.7768C29.2371 62.8669 28.7996 63.3045 28.7996 63.8442V84.5132H21.5483V17.2681ZM19.5743 42.9993H18.1768C16.0178 42.9993 14.2678 41.2493 14.2678 39.0903V31.0279H19.5743V42.9993ZM14.2873 29.0734V28.6629C14.2873 26.5117 16.0256 24.7647 18.1768 24.7539H19.5938V29.0734H14.2873ZM19.5743 78.0926H18.1768C16.0178 78.0926 14.2678 76.3426 14.2678 74.1835V63.1894H19.5743V78.0926ZM14.2873 61.2349V60.8049C14.3034 58.665 16.0369 56.9359 18.1768 56.9252H19.5938V61.2349H14.2873ZM14.2873 89.4483C14.2927 87.8043 15.624 86.473 17.268 86.4677H21.8122L14.2873 97.882V89.4483ZM33.852 104.811H24.3237L33.852 90.3376V104.811ZM33.852 86.7902L21.9783 104.811H17.268C15.624 104.805 14.2927 103.474 14.2873 101.83H14.3362V101.439L24.1478 86.4677H33.852V86.7902ZM39.7546 108.143H35.8456V96.5432H39.7546V108.143ZM35.8065 94.5887V82.9789H39.7155V94.5887H35.8065ZM41.67 93.4453V86.4677H46.2729L41.67 93.4453ZM41.7091 104.811V97.0025L48.6477 86.4677H58.557L46.4782 104.811H41.7091ZM67.5576 104.821H61.0686L67.5576 94.9698V104.821ZM67.5576 91.4126L58.7623 104.811L48.8724 104.762L60.9025 86.4677H67.5576V91.4126ZM73.47 108.153H69.561V96.5432H73.47V108.153ZM69.5121 94.5887V82.9789H73.4211V94.5887H69.5121ZM74.4472 81.0243H68.5837C68.044 81.0243 67.6064 81.4619 67.6064 82.0016V84.5132H41.7091V82.0016C41.7091 81.4619 41.2716 81.0243 40.7319 81.0243H34.8683C34.3287 81.0243 33.8911 81.4619 33.8911 82.0016V84.5132H30.7541V64.8214H79.226L79.1772 84.5132H75.4245V82.0016C75.4245 81.4619 74.9869 81.0243 74.4472 81.0243ZM83.008 86.4677L75.4245 98.0482L75.3756 86.4677H83.008ZM95.6928 101.84C95.661 103.465 94.3373 104.767 92.7122 104.772H85.5782L95.6928 89.4483V101.84ZM92.7122 86.4677C93.4774 86.4718 94.2118 86.7691 94.7644 87.2983L83.2328 104.811H75.4147V101.625L85.4023 86.4677H92.7122ZM95.6928 74.2129C95.6767 76.3528 93.9433 78.0818 91.8033 78.0926H90.3863V63.1894H95.6928V74.2129ZM91.8033 56.9252C93.9623 56.9252 95.7123 58.6752 95.7123 60.8342V61.2642H90.4058V56.9252H91.8033ZM90.3863 42.9993V31.0279H95.6928V39.1098C95.682 41.2534 93.9469 42.9885 91.8033 42.9993H90.3863Z" fill="#00BF80"/>
<path d="M91.8229 44.9538C95.0612 44.9538 97.6864 42.3286 97.6864 39.0903V28.6629C97.6864 25.4246 95.0612 22.7994 91.8229 22.7994H90.4058V9.00053C90.4058 9.00053 90.4058 8.95167 90.4058 8.92235C90.4105 8.85737 90.4105 8.79189 90.4058 8.7269C90.3536 8.54904 90.2519 8.38975 90.1127 8.26759L89.9563 8.16986C89.904 8.12906 89.8444 8.09926 89.7804 8.08191C89.7579 8.07654 89.7345 8.07654 89.712 8.08191H89.5947H89.4774H72.7077V4.32925C72.697 1.93888 70.7591 0.00537491 68.3687 0H41.6114C39.2228 0.00537491 37.2875 1.94059 37.2822 4.32925V8.02328H20.5711H20.4538H20.3365C20.3141 8.0179 20.2906 8.0179 20.2681 8.02328C20.2041 8.04062 20.1445 8.07043 20.0922 8.11123L19.9359 8.20895C19.7993 8.33356 19.6981 8.49187 19.6427 8.66827C19.638 8.73325 19.638 8.79873 19.6427 8.86372C19.6427 8.86372 19.6427 8.91258 19.6427 8.9419V22.7994H18.1768C14.9384 22.7994 12.3133 25.4246 12.3133 28.6629V39.1098C12.3133 42.3482 14.9384 44.9734 18.1768 44.9734H19.5938V54.9707H18.1768C14.9384 54.9707 12.3133 57.5958 12.3133 60.8342V74.2129C12.3133 77.4513 14.9384 80.0764 18.1768 80.0764H19.5938V84.5425L17.268 84.5132C14.5825 84.5449 12.4134 86.7139 12.3817 89.3994V101.781C12.4134 104.467 14.5825 106.636 17.268 106.668H33.8813V109.023C33.8813 109.562 34.3189 110 34.8586 110H40.7221C41.2618 110 41.6994 109.562 41.6994 109.023V106.668H67.5576V109.023C67.5576 109.562 67.9951 110 68.5348 110H74.3984C74.9381 110 75.3756 109.562 75.3756 109.023V106.668H92.7122C95.4167 106.662 97.6153 104.486 97.6473 101.781V89.4483C97.6476 88.4649 97.3512 87.5045 96.7971 86.6924C95.8851 85.3431 94.3605 84.5368 92.7317 84.5425H90.4058V80.0471H91.8229C95.0612 80.0471 97.6864 77.4219 97.6864 74.1835V60.8049C97.6864 57.5665 95.0612 54.9414 91.8229 54.9414H90.4058V44.9538H91.8229ZM90.4058 24.7539H91.8033C93.9623 24.7539 95.7123 26.5039 95.7123 28.6629V29.1027H90.4058V24.7539ZM39.2367 4.32925C39.2367 3.01777 40.2999 1.95451 41.6114 1.95451H68.3687C69.6819 1.95451 70.7478 3.01606 70.7532 4.32925V8.02328H39.2367V4.32925ZM88.2168 9.97779L78.9035 48.7749H75.6884V29.8454H77.7895C78.3291 29.8454 78.7667 29.4079 78.7667 28.8682C78.7667 28.3285 78.3291 27.8909 77.7895 27.8909H62.1534C61.6137 27.8909 61.1761 28.3285 61.1761 28.8682C61.1761 29.4079 61.6137 29.8454 62.1534 29.8454H64.2545V48.7749H45.6866V29.8454H47.7877C48.3274 29.8454 48.7649 29.4079 48.7649 28.8682C48.7649 28.3285 48.3274 27.8909 47.7877 27.8909H32.1516C31.6119 27.8909 31.1743 28.3285 31.1743 28.8682C31.1743 29.4079 31.6119 29.8454 32.1516 29.8454H34.2527V48.7749H31.1157L21.7633 9.97779H88.2168ZM73.7338 29.8454V55.1368L69.9714 58.2347L66.209 55.1368V29.8454H73.7338ZM43.7712 29.8454V55.1368L40.0087 58.2347L36.2463 55.1368V29.8454H43.7712ZM21.5483 17.2681L29.3664 49.9867C29.4766 50.4335 29.8836 50.7428 30.3436 50.7294H34.2527V55.6157C34.2522 55.9064 34.3812 56.1822 34.6045 56.3682L39.3442 60.2772C39.5201 60.4228 39.7412 60.5024 39.9696 60.502C40.1946 60.5002 40.4121 60.4208 40.5853 60.2772L45.3348 56.3682C45.5581 56.1822 45.6871 55.9064 45.6866 55.6157V50.7294H64.2545V55.6157C64.254 55.9064 64.383 56.1822 64.6063 56.3682L69.3557 60.2772C69.529 60.4208 69.7464 60.5002 69.9714 60.502C70.1998 60.5024 70.4209 60.4228 70.5968 60.2772L75.3365 56.3682C75.5598 56.1822 75.6888 55.9064 75.6884 55.6157V50.7294H79.5974C80.0574 50.7428 80.4644 50.4335 80.5746 49.9867L88.3927 17.2681V84.5132H81.1805V63.8442C81.1805 63.3045 80.743 62.8669 80.2033 62.8669H29.7768C29.2371 62.8669 28.7996 63.3045 28.7996 63.8442V84.5132H21.5483V17.2681ZM19.5743 42.9993H18.1768C16.0178 42.9993 14.2678 41.2493 14.2678 39.0903V31.0279H19.5743V42.9993ZM14.2873 29.0734V28.6629C14.2873 26.5117 16.0256 24.7647 18.1768 24.7539H19.5938V29.0734H14.2873ZM19.5743 78.0926H18.1768C16.0178 78.0926 14.2678 76.3426 14.2678 74.1835V63.1894H19.5743V78.0926ZM14.2873 61.2349V60.8049C14.3034 58.665 16.0369 56.9359 18.1768 56.9252H19.5938V61.2349H14.2873ZM14.2873 89.4483C14.2927 87.8043 15.624 86.473 17.268 86.4677H21.8122L14.2873 97.882V89.4483ZM33.852 104.811H24.3237L33.852 90.3376V104.811ZM33.852 86.7902L21.9783 104.811H17.268C15.624 104.805 14.2927 103.474 14.2873 101.83H14.3362V101.439L24.1478 86.4677H33.852V86.7902ZM39.7546 108.143H35.8456V96.5432H39.7546V108.143ZM35.8065 94.5887V82.9789H39.7155V94.5887H35.8065ZM41.67 93.4453V86.4677H46.2729L41.67 93.4453ZM41.7091 104.811V97.0025L48.6477 86.4677H58.557L46.4782 104.811H41.7091ZM67.5576 104.821H61.0686L67.5576 94.9698V104.821ZM67.5576 91.4126L58.7623 104.811L48.8724 104.762L60.9025 86.4677H67.5576V91.4126ZM73.47 108.153H69.561V96.5432H73.47V108.153ZM69.5121 94.5887V82.9789H73.4211V94.5887H69.5121ZM74.4472 81.0243H68.5837C68.044 81.0243 67.6064 81.4619 67.6064 82.0016V84.5132H41.7091V82.0016C41.7091 81.4619 41.2716 81.0243 40.7319 81.0243H34.8683C34.3287 81.0243 33.8911 81.4619 33.8911 82.0016V84.5132H30.7541V64.8214H79.226L79.1772 84.5132H75.4245V82.0016C75.4245 81.4619 74.9869 81.0243 74.4472 81.0243ZM83.008 86.4677L75.4245 98.0482L75.3756 86.4677H83.008ZM95.6928 101.84C95.661 103.465 94.3373 104.767 92.7122 104.772H85.5782L95.6928 89.4483V101.84ZM92.7122 86.4677C93.4774 86.4718 94.2118 86.7691 94.7644 87.2983L83.2328 104.811H75.4147V101.625L85.4023 86.4677H92.7122ZM95.6928 74.2129C95.6767 76.3528 93.9433 78.0818 91.8033 78.0926H90.3863V63.1894H95.6928V74.2129ZM91.8033 56.9252C93.9623 56.9252 95.7123 58.6752 95.7123 60.8342V61.2642H90.4058V56.9252H91.8033ZM90.3863 42.9993V31.0279H95.6928V39.1098C95.682 41.2534 93.9469 42.9885 91.8033 42.9993H90.3863Z" fill="black" fill-opacity="0.2"/>
</svg>
