<svg width="24" height="34" viewBox="0 0 24 34" fill="none" xmlns="http://www.w3.org/2000/svg">
<path d="M12.516 0C13.2816 0.122239 14.0472 0.244479 14.8128 0.384181C14.9768 0.419106 15.1227 0.471495 15.3596 0.523883C15.1409 0.82075 14.9768 1.06523 14.7945 1.30971C14.8128 1.32717 14.831 1.3621 14.8492 1.37956C15.068 1.22239 15.2867 1.0303 15.5237 0.890601C15.6878 0.803287 15.9065 0.681048 16.0523 0.733436C17.2736 1.13508 18.3856 1.74628 19.4428 2.54956C18.8231 3.38778 18.2215 4.19106 17.62 4.99435C17.6564 5.01181 17.6747 5.04674 17.7111 5.0642C18.4585 4.36569 19.1876 3.68464 19.9532 2.96867C21.0834 3.91166 21.9584 4.99435 22.5964 6.23421C22.6693 6.39137 22.5599 6.61839 22.5417 6.8454C22.6146 6.81048 22.7058 6.77555 22.7969 6.72316C23.599 7.47406 22.9063 8.0678 22.6146 8.71392C22.8516 8.46944 23.0703 8.22496 23.3438 7.94556C23.763 8.99332 23.9089 10.0236 23.9453 11.0714C23.9453 11.2111 23.8177 11.3683 23.7083 11.4905C22.6875 12.7304 21.6485 13.9702 20.6095 15.2275C20.5183 15.3323 20.4454 15.4371 20.3725 15.5244C20.409 15.5593 20.4272 15.5768 20.4636 15.6117C21.5938 14.4068 22.7058 13.2018 23.8359 12.0144C23.8906 12.0318 23.9453 12.0318 24 12.0493C23.8724 12.8002 23.8177 13.5686 23.6172 14.302C22.9974 16.5023 22.1225 18.5978 21.0105 20.6235C20.9194 20.7807 20.6642 20.9553 20.5001 20.9553C18.9871 20.9902 17.4924 20.9728 15.9794 20.9728C15.9247 20.9728 15.8518 20.9553 15.7242 20.9379C15.9065 20.6235 16.0706 20.3441 16.2346 20.0647C16.2164 20.0473 16.1982 20.0298 16.1799 20.0298C16.1252 20.0822 16.0523 20.1171 16.0159 20.187C15.5601 20.9204 14.8857 21.1125 14.0472 21.0077C13.5732 20.9553 13.0811 20.9902 12.4431 20.9902C12.68 21.2522 12.8076 21.4093 12.9535 21.549C14.2841 22.8762 15.5966 24.1859 16.9455 25.4956C17.2554 25.7925 17.3466 26.037 17.0184 26.3862C16.7632 26.6656 16.5627 26.9974 16.4169 27.3816C16.7815 26.9974 17.1643 26.5958 17.5288 26.2116C17.5653 26.2465 17.6018 26.264 17.6382 26.2989C15.9065 28.9358 14.0289 31.4679 11.9691 34C11.2764 33.1094 10.6202 32.2887 10.0004 31.433C9.94573 31.3457 10.0004 31.1186 10.0916 31.0139C10.4744 30.4551 10.8936 29.8963 11.24 29.3025C10.7113 29.8264 10.1827 30.3328 9.58117 30.9266C9.07076 30.228 8.59682 29.5994 8.14111 28.9707C7.3755 27.9055 7.39373 27.888 8.12288 26.8228C8.35985 26.4561 8.61505 26.1068 8.76088 25.6528C8.1411 26.1418 7.53956 26.6307 6.8651 27.1546C6.13596 26.0195 5.44327 24.9368 4.76881 23.8367C4.6959 23.7319 4.76881 23.5049 4.85996 23.3652C5.18807 22.8588 5.55264 22.3523 5.91721 21.8634C5.88076 21.8285 5.8443 21.811 5.80784 21.7761C5.35212 22.2476 4.89641 22.7016 4.36778 23.2429C3.74801 22.1253 3.23761 21.0776 2.63606 20.0996C2.16212 19.3313 2.14389 18.6852 2.74543 17.9692C3.21938 17.3755 3.56572 16.6944 3.89384 15.9959C3.23761 16.7817 2.58138 17.5675 1.834 18.4581C1.4512 17.4453 1.08663 16.5547 0.776744 15.6292C0.740287 15.5069 0.84966 15.2974 0.940803 15.1577C1.23246 14.7211 1.56057 14.302 1.87046 13.8829C1.834 13.848 1.81577 13.8305 1.77932 13.7956C1.37829 14.1448 0.977259 14.5116 0.503315 14.9481C0.375714 14.3544 0.248113 13.848 0.175199 13.3416C0.15697 13.2193 0.302801 13.0447 0.393945 12.9399C0.794974 12.4859 1.196 12.0318 1.59703 11.5953C1.56057 11.5603 1.54235 11.5254 1.50589 11.508C1.05017 11.8398 0.594459 12.189 0.0658289 12.5907C0.0293717 11.8921 -0.171144 11.2984 0.375715 10.7571C0.867887 10.2506 1.28715 9.67437 1.68817 9.06317C1.17777 9.49974 0.685602 9.93631 0.156972 10.3903C-0.2076 7.12481 4.22195 1.57165 7.7583 0.908064C6.42761 2.40986 5.15161 3.82435 3.87561 5.25629C3.89384 5.29122 3.9303 5.30868 3.94852 5.34361C4.07612 5.23883 4.20372 5.11659 4.3131 5.01181C5.5891 3.73703 6.90156 2.49718 8.14111 1.18747C8.68796 0.611197 9.28951 0.331793 10.0551 0.244479C10.4561 0.209553 10.8572 0.104777 11.24 0.0523883C11.641 0 12.0785 0 12.516 0ZM7.70362 15.1926C7.72185 15.2101 7.7583 15.245 7.77653 15.2625C8.0135 15.0005 8.30516 14.756 8.48745 14.4592C8.92494 13.7607 9.52648 13.5336 10.3468 13.621C11.003 13.6908 11.6775 13.6384 12.4431 13.6384C11.5681 14.8084 10.766 15.8737 9.9822 16.9389C10.0187 16.9563 10.0551 16.9913 10.0916 17.0087C10.7478 16.2753 11.4769 15.5768 12.0603 14.791C12.7347 13.9004 13.5185 13.4114 14.6852 13.6384C15.0133 13.7083 15.2503 13.5511 15.4508 13.2892C16.6174 11.8398 16.6356 9.76168 15.469 8.27735C14.2841 6.77555 12.2243 6.23421 10.3832 6.95018C8.57859 7.66615 7.46665 9.46482 7.7583 11.3333C7.81299 11.6826 7.74008 11.9445 7.52133 12.2239C7.28436 12.5208 7.10208 12.8351 6.88333 13.1495C6.91979 13.1669 6.93802 13.1844 6.97448 13.2018C7.26613 12.8526 7.57602 12.5033 7.88591 12.1541C8.14111 12.5557 8.34162 12.9224 8.59682 13.2542C8.76088 13.4813 8.77911 13.6384 8.61505 13.8654C8.28694 14.2845 7.99528 14.7386 7.70362 15.1926ZM7.41196 18.2311C7.46665 18.2835 7.52133 18.3359 7.59425 18.3883C8.46922 17.3755 9.32596 16.3626 10.2009 15.3498C10.1463 15.2974 10.0916 15.2625 10.0369 15.2101C9.16191 16.2054 8.28693 17.2183 7.41196 18.2311ZM16.107 13.1844C16.0705 13.1495 16.0523 13.132 16.0159 13.0971C15.232 13.9527 14.43 14.8084 13.6461 15.6641C13.6826 15.699 13.7191 15.7165 13.7373 15.7514C14.7945 15.1053 15.3961 14.1099 16.107 13.1844ZM4.3131 6.95018C5.60733 5.86749 6.2271 5.25629 6.33647 4.47047C5.60733 5.36107 4.9511 6.14689 4.3131 6.95018ZM14.1383 24.2034C14.0836 24.1685 14.0289 24.1335 13.9743 24.0812C13.3909 24.8495 12.8076 25.6179 12.2243 26.3862C12.279 26.4212 12.3519 26.4735 12.4066 26.5085C12.9899 25.7401 13.555 24.9718 14.1383 24.2034ZM19.0236 9.53467C19.0783 9.56959 19.133 9.62198 19.1876 9.65691C19.7527 9.04571 20.3178 8.43451 20.8647 7.84078C20.81 7.78839 20.7553 7.75347 20.7006 7.70108C20.1538 8.31227 19.5887 8.92347 19.0236 9.53467ZM15.7607 4.01644C15.8154 4.06882 15.87 4.12121 15.9247 4.1736C16.4534 3.61479 16.982 3.07345 17.5106 2.51464C17.4559 2.46225 17.4012 2.42732 17.3648 2.37494C16.8179 2.93374 16.2893 3.47509 15.7607 4.01644ZM10.6202 4.54032C10.6567 4.59271 10.7113 4.62763 10.7478 4.68002C11.2035 4.26091 11.6592 3.85927 12.1149 3.44016C12.0785 3.40524 12.0603 3.38778 12.0238 3.35285C11.5681 3.73703 11.0941 4.13867 10.6202 4.54032ZM12.516 22.265C12.4613 22.2301 12.4066 22.1952 12.3519 22.1602C12.0785 22.527 11.8051 22.8937 11.5134 23.2604C11.5499 23.2953 11.6045 23.3303 11.641 23.3477C11.9327 22.9985 12.2243 22.6317 12.516 22.265Z" fill="#E22D2D"/>
</svg>
