<svg width="168" height="59" viewBox="0 0 168 59" fill="none" xmlns="http://www.w3.org/2000/svg">
<path d="M87.9302 0.090332C89.167 0.301489 90.4038 0.512647 91.6406 0.75397C91.9057 0.8143 92.1412 0.904796 92.5241 0.995293C92.1707 1.5081 91.9057 1.93042 91.6112 2.35273C91.6406 2.3829 91.6701 2.44323 91.6995 2.47339C92.0529 2.20191 92.4063 1.87009 92.7891 1.62876C93.0541 1.47794 93.4075 1.26678 93.6431 1.35728C95.6161 2.05108 97.4124 3.10687 99.1204 4.49447C98.1192 5.94241 97.1474 7.33002 96.1756 8.71762C96.2345 8.74779 96.2639 8.80812 96.3228 8.83828C97.5302 7.63167 98.7081 6.45522 99.9449 5.21844C101.771 6.84737 103.184 8.71762 104.215 10.8594C104.333 11.1309 104.156 11.523 104.127 11.9151C104.244 11.8548 104.392 11.7945 104.539 11.704C105.835 13.0011 104.715 14.0267 104.244 15.1428C104.627 14.7205 104.981 14.2982 105.422 13.8156C106.1 15.6255 106.335 17.4052 106.394 19.2152C106.394 19.4565 106.188 19.728 106.011 19.9391C104.362 22.0809 102.684 24.2226 101.005 26.3945C100.858 26.5755 100.74 26.7565 100.622 26.9073C100.681 26.9677 100.711 26.9978 100.769 27.0582C102.595 24.9767 104.392 22.8953 106.217 20.8441C106.306 20.8743 106.394 20.8743 106.482 20.9044C106.276 22.2015 106.188 23.5288 105.864 24.7958C104.863 28.5966 103.449 32.2164 101.653 35.7156C101.506 35.9871 101.093 36.2888 100.828 36.2888C98.3842 36.3491 95.9695 36.3189 93.5253 36.3189C93.4369 36.3189 93.3192 36.2888 93.113 36.2586C93.4075 35.7156 93.6725 35.233 93.9376 34.7503C93.9081 34.7202 93.8787 34.69 93.8492 34.69C93.7609 34.7805 93.6431 34.8408 93.5842 34.9615C92.848 36.2284 91.7584 36.5602 90.4038 36.3792C89.6382 36.2888 88.8431 36.3491 87.8124 36.3491C88.1952 36.8016 88.4014 37.0731 88.6369 37.3144C90.7866 39.6069 92.9069 41.8693 95.086 44.1317C95.5866 44.6446 95.7339 45.0669 95.2038 45.6702C94.7915 46.1528 94.4676 46.726 94.232 47.3896C94.821 46.726 95.4394 46.0322 96.0284 45.3685C96.0873 45.4289 96.1462 45.459 96.2051 45.5194C93.4075 50.0743 90.3744 54.4483 87.0468 58.8223C85.9277 57.2838 84.8676 55.8661 83.8664 54.388C83.778 54.2371 83.8664 53.845 84.0136 53.664C84.632 52.6987 85.3093 51.7334 85.8688 50.7078C85.0149 51.6128 84.1609 52.4875 83.1891 53.5132C82.3645 52.3066 81.5989 51.2206 80.8627 50.1346C79.6259 48.2946 79.6553 48.2644 80.8332 46.4243C81.2161 45.7908 81.6283 45.1875 81.8639 44.4032C80.8627 45.2479 79.8909 46.0925 78.8013 46.9975C77.6234 45.0367 76.5044 43.1665 75.4148 41.266C75.297 41.085 75.4148 40.6929 75.5621 40.4516C76.0921 39.5768 76.6811 38.702 77.2701 37.8573C77.2112 37.797 77.1523 37.7669 77.0934 37.7065C76.3572 38.521 75.621 39.3053 74.767 40.2404C73.7658 38.3098 72.9412 36.4999 71.9694 34.8106C71.2038 33.4834 71.1743 32.3673 72.1461 31.1305C72.9118 30.1049 73.4713 28.9284 74.0013 27.7218C72.9412 29.0792 71.8811 30.4367 70.6737 31.9751C70.0553 30.2255 69.4664 28.6871 68.9657 27.0883C68.9069 26.8772 69.0835 26.5152 69.2308 26.2739C69.7019 25.5197 70.232 24.7958 70.7326 24.0718C70.6737 24.0115 70.6443 23.9813 70.5854 23.921C69.9375 24.5243 69.2897 25.1577 68.524 25.9119C68.3179 24.8862 68.1118 24.0115 67.994 23.1367C67.9645 22.9255 68.2001 22.6238 68.3473 22.4429C68.9952 21.6586 69.643 20.8743 70.2909 20.1201C70.232 20.0598 70.2026 19.9995 70.1437 19.9693C69.4075 20.5424 68.6713 21.1457 67.8173 21.8396C67.7584 20.6329 67.4345 19.6073 68.3179 18.6722C69.113 17.7974 69.7903 16.8019 70.4381 15.7461C69.6136 16.5003 68.8185 17.2544 67.9645 18.0387C67.3756 12.3978 74.5314 2.80521 80.2443 1.65893C78.0946 4.25315 76.0332 6.69654 73.9719 9.1701C74.0013 9.23043 74.0602 9.2606 74.0897 9.32093C74.2958 9.13994 74.502 8.92878 74.6786 8.74779C76.74 6.54572 78.8602 4.40398 80.8627 2.14158C81.7461 1.14612 82.7179 0.663474 83.9547 0.512647C84.6026 0.452316 85.2504 0.271324 85.8688 0.180828C86.5167 0.090332 87.2234 0.090332 87.9302 0.090332ZM80.156 26.3342C80.1854 26.3644 80.2443 26.4247 80.2737 26.4548C80.6566 26.0024 81.1277 25.5801 81.4222 25.0672C82.129 23.8606 83.1007 23.4685 84.4259 23.6193C85.486 23.74 86.5756 23.6495 87.8124 23.6495C86.3989 25.6705 85.1032 27.5106 83.8369 29.3507C83.8958 29.3809 83.9547 29.4412 84.0136 29.4714C85.0737 28.2044 86.2517 26.9978 87.194 25.6404C88.2836 24.1019 89.5498 23.2573 91.4345 23.6495C91.9646 23.7701 92.3474 23.4986 92.6713 23.0462C94.556 20.5424 94.5854 16.9528 92.7007 14.3887C90.7866 11.7945 87.459 10.8594 84.4848 12.0961C81.5694 13.3329 79.7731 16.44 80.2443 19.6676C80.3326 20.271 80.2148 20.7234 79.8615 21.2061C79.4786 21.7189 79.1842 22.2619 78.8308 22.8048C78.8897 22.835 78.9191 22.8652 78.978 22.8953C79.4492 22.292 79.9498 21.6887 80.4504 21.0854C80.8627 21.7792 81.1866 22.4127 81.5989 22.9858C81.8639 23.378 81.8934 23.6495 81.6283 24.0416C81.0983 24.7656 80.6271 25.5499 80.156 26.3342ZM79.6848 31.583C79.7731 31.6735 79.8615 31.764 79.9793 31.8544C81.3928 30.1049 82.7768 28.3553 84.1903 26.6057C84.102 26.5152 84.0136 26.4548 83.9253 26.3644C82.5118 28.0838 81.0983 29.8334 79.6848 31.583ZM93.7314 22.8652C93.6725 22.8048 93.6431 22.7747 93.5842 22.7143C92.3179 24.1924 91.0222 25.6705 89.756 27.1487C89.8149 27.209 89.8737 27.2391 89.9032 27.2995C91.6112 26.1834 92.583 24.4639 93.7314 22.8652ZM74.6786 12.0961C76.7694 10.2259 77.7707 9.1701 77.9474 7.81266C76.7694 9.35109 75.7093 10.7085 74.6786 12.0961ZM90.5511 41.8995C90.4627 41.8392 90.3744 41.7788 90.286 41.6883C89.3437 43.0156 88.4014 44.3429 87.459 45.6702C87.5474 45.7305 87.6652 45.821 87.7535 45.8813C88.6958 44.5541 89.6087 43.2268 90.5511 41.8995ZM98.4431 16.5606C98.5314 16.6209 98.6198 16.7114 98.7081 16.7718C99.621 15.716 100.534 14.6602 101.417 13.6346C101.329 13.5441 101.241 13.4837 101.152 13.3933C100.269 14.449 99.356 15.5048 98.4431 16.5606ZM93.1719 7.02836C93.2603 7.11886 93.3486 7.20935 93.4369 7.29985C94.2909 6.33456 95.1449 5.39943 95.9989 4.43414C95.9106 4.34365 95.8222 4.28332 95.7633 4.19282C94.8799 5.15811 94.0259 6.09324 93.1719 7.02836ZM84.8676 7.93332C84.9265 8.02382 85.0148 8.08415 85.0737 8.17465C85.8099 7.45068 86.5461 6.75687 87.2823 6.03291C87.2234 5.97258 87.194 5.94241 87.1351 5.88208C86.3989 6.54572 85.6333 7.23952 84.8676 7.93332ZM87.9302 38.5512C87.8418 38.4908 87.7535 38.4305 87.6652 38.3702C87.2234 39.0036 86.7817 39.6371 86.3106 40.2706C86.3695 40.3309 86.4578 40.3912 86.5167 40.4214C86.9879 39.8181 87.459 39.1846 87.9302 38.5512Z" fill="#E22D2D"/>
<path d="M0 48.6587C0.323927 48.5984 0.618405 48.4476 0.942332 48.4476C20.643 48.4174 40.3436 48.3872 60.0442 48.3269C63.6663 48.3269 67.259 48.2666 70.8516 48.7794C71.0283 48.8095 71.2639 48.7794 71.4111 48.8699C71.6761 49.1112 71.9117 49.3827 72.1473 49.6542C71.8528 49.7447 71.5583 49.8955 71.2639 49.8955C54.9497 49.7748 38.6356 49.624 22.3215 49.5033C16.9031 49.4732 11.4847 49.5938 6.09571 49.624C4.06381 49.6542 2.00246 49.7748 0.0294479 49.1112C0 48.9905 0 48.8397 0 48.6587Z" fill="white"/>
<path d="M168 49.1683C166.174 49.3795 164.319 49.7415 162.493 49.7717C144.912 49.8924 127.332 49.9527 109.752 49.9829C108.161 49.9829 106.571 49.6209 104.981 49.3493C104.628 49.289 104.304 48.927 103.98 48.6856C104.009 48.5951 104.039 48.5046 104.068 48.4141C104.392 48.4141 104.687 48.4141 105.011 48.4141C125.683 48.4141 146.355 48.4141 167.028 48.4141C167.352 48.4141 167.676 48.4744 168 48.4744C168 48.7158 168 48.927 168 49.1683Z" fill="white"/>
<path d="M128.07 27.3899C126.774 28.6569 125.478 29.8635 124.241 31.1606C123.623 31.7941 123.005 32.0957 122.151 32.0052C121.679 31.9449 121.179 32.0052 120.59 32.0052C120.56 32.3974 120.531 32.699 120.531 33.0308C120.531 36.4093 120.502 39.818 120.531 43.1965C120.531 43.83 120.384 44.0713 119.706 44.0713C117.675 44.011 115.672 44.0713 113.64 44.0411C113.434 44.0411 113.198 44.011 112.933 43.9808C112.933 31.8544 112.933 19.7883 112.933 7.63173C113.228 7.63173 113.493 7.60156 113.758 7.60156C117.203 7.60156 120.649 7.60156 124.094 7.60156C126.479 7.60156 128.835 7.99371 131.044 9.01933C134.224 10.4974 136.109 13.0313 136.639 16.5606C137.051 19.2453 137.051 21.93 136.286 24.5544C135.608 26.8771 134.224 28.6569 132.192 29.9238C131.927 30.0746 131.692 30.2556 131.397 30.4366C133.724 34.9312 136.021 39.3957 138.347 43.9808C137.964 44.011 137.729 44.0411 137.493 44.0411C135.196 44.0411 132.899 44.0411 130.602 44.0713C130.072 44.0713 129.778 43.9205 129.542 43.4077C127.952 39.9387 126.362 36.4697 124.742 33.0007C124.536 32.5482 124.536 32.2164 124.86 31.7941C125.979 30.3763 127.039 28.9284 128.129 27.5106C128.158 27.4804 128.099 27.4503 128.07 27.3899ZM120.59 25.3387C122.475 25.1879 124.33 25.1879 126.097 24.8862C127.893 24.5846 128.983 23.2875 129.159 21.4172C129.277 20.271 129.248 19.0643 129.13 17.9181C128.953 16.44 128.099 15.4144 126.715 14.9015C124.742 14.1474 122.681 14.4792 120.619 14.4189C120.59 18.0387 120.59 21.5379 120.59 25.3387Z" fill="white"/>
<path d="M162.699 40.992C162.11 40.2982 161.609 39.725 161.079 39.1217C161.021 39.1519 160.991 39.1821 160.932 39.2122C161.197 39.725 161.433 40.268 161.757 40.7205C162.228 41.3841 162.022 41.7763 161.403 42.1684C159.931 43.1337 158.311 43.737 156.603 44.0085C152.628 44.6419 148.741 44.4308 145.06 42.5907C141.349 40.7507 139.465 37.1309 139.995 32.9078C140.024 32.7268 140.23 32.4553 140.407 32.4251C142.763 32.0631 145.119 31.7615 147.622 31.4297C147.622 31.9425 147.622 32.3648 147.622 32.8173C147.71 35.5321 149.065 37.1309 151.686 37.4023C152.834 37.523 154.071 37.4928 155.16 37.2213C157.663 36.6181 158.4 33.7825 156.427 32.0631C155.249 31.0074 153.806 30.2532 152.422 29.4991C149.742 28.0814 147.003 26.8446 144.648 24.8537C141.055 21.7467 139.936 16.7092 141.938 12.5464C142.616 11.1286 143.735 9.92204 145.148 9.16791C146.061 10.5857 147.003 12.0336 147.916 13.4815C147.946 13.4513 148.005 13.4513 148.034 13.4212C147.327 11.9129 146.591 10.3745 145.767 8.62494C147.033 8.26296 148.211 7.84065 149.418 7.6295C152.746 7.05636 156.014 7.32785 159.106 8.8361C162.64 10.5555 164.554 14.3261 163.995 18.4286C161.551 18.7604 159.077 19.0922 156.574 19.4542C156.456 18.6096 156.397 17.8554 156.191 17.1315C155.484 14.2658 151.627 13.0592 149.418 14.9294C148.446 15.774 148.299 17.3426 149.241 18.4889C149.889 19.2732 150.655 19.9971 151.509 20.5099C153.394 21.6864 155.367 22.712 157.31 23.7979C159.224 24.8537 161.021 26 162.581 27.5987C166.203 31.2788 165.408 37.704 163.2 40.449C163.082 40.5998 162.905 40.7507 162.699 40.992Z" fill="white"/>
<path d="M49.092 25.5207C49.1509 25.3699 49.2392 25.2191 49.2687 25.0683C51.2711 19.0653 54.746 13.8166 57.4846 8.17563C57.5729 7.99463 57.838 7.75331 58.0147 7.75331C60.665 7.72314 63.3153 7.72314 66.1128 7.72314C65.9067 8.1153 65.7595 8.41695 65.6122 8.68844C62.5496 14.2087 59.4871 19.6988 56.4245 25.1889C56.13 25.7319 56.13 26.1241 56.4245 26.6369C59.5165 32.1571 62.5791 37.6774 65.6417 43.1977C65.7594 43.439 65.9067 43.6803 66.0834 44.0423C65.73 44.0725 65.465 44.1026 65.2294 44.1026C62.9914 44.1026 60.7533 44.0725 58.5153 44.1328C57.8969 44.1328 57.6024 43.9217 57.3079 43.3787C55.1288 39.1254 52.8907 34.872 50.6821 30.6187C50.5349 30.3472 50.3877 30.0757 50.0932 29.8344C50.0932 34.5402 50.0932 39.246 50.0932 44.0121C47.5312 44.0121 45.0576 44.0121 42.4956 44.0121C42.4956 42.6849 42.4662 41.3878 42.5251 40.0906C42.5251 39.8795 42.8196 39.6382 43.0257 39.4572C43.7619 38.7935 44.5275 38.1902 45.2048 37.4059C44.3509 37.7981 43.4969 38.1601 42.5545 38.5824C42.5545 28.2658 42.5545 18.0699 42.5545 7.81364C45.0282 7.81364 47.5018 7.81364 50.0637 7.81364C50.0637 8.14546 50.0637 8.44712 50.0637 8.74877C50.0637 11.5542 49.9754 14.3595 50.0932 17.1348C50.1815 19.7591 49.7987 22.2629 49.1509 24.7666C49.092 25.0079 49.0331 25.2493 49.0036 25.4906C49.0036 25.4906 49.0331 25.5207 49.092 25.5207Z" fill="white"/>
<path d="M15.1055 7.81364C15.3116 7.78348 15.4588 7.72314 15.5766 7.72314C19.876 7.75331 24.146 7.72314 28.4454 7.81364C30.3889 7.84381 32.2736 8.38678 34.0405 9.32191C36.7497 10.7698 38.5165 13.0624 38.8405 16.1091C39.1349 18.8541 39.2233 21.6595 38.9288 24.3744C38.3987 29.0802 35.2184 32.1269 30.4184 32.9413C29.1227 33.1525 27.827 33.243 26.5018 33.3033C25.265 33.3636 24.0576 33.3033 22.703 33.3033C22.703 36.893 22.703 40.3922 22.703 43.9517C20.1411 43.9517 17.6969 43.9517 15.1644 43.9517C15.1644 34.7512 15.1644 25.5207 15.1644 16.1996C17.638 16.6219 20.0822 17.0442 22.6147 17.4967C22.6441 17.7984 22.6441 18.1 22.6736 18.4017C22.6736 20.845 22.703 23.2884 22.6736 25.7017C22.6736 26.3351 22.8503 26.5463 23.4687 26.5161C24.7644 26.4558 26.0306 26.5463 27.3263 26.4256C30.0061 26.1843 31.449 24.5252 31.5079 21.7802C31.5374 20.9054 31.5079 20.0608 31.5079 19.0955C32.0969 19.1558 32.5975 19.2161 33.0981 19.2765C31.8319 19.2161 31.4785 18.4017 31.1546 17.2554C30.6834 15.4756 29.2404 14.6008 27.503 14.4802C25.9423 14.45 24.3815 14.5707 22.7325 14.5707C22.7325 15.2645 22.7325 15.9583 22.7325 16.7727C21.6134 16.5012 20.6122 16.2599 19.611 16.0488C18.3153 15.7471 16.9901 15.4455 15.6944 15.0835C15.4588 15.0231 15.1349 14.7517 15.1349 14.5707C15.1055 12.3083 15.1055 10.076 15.1055 7.81364Z" fill="white"/>
<path d="M3.15143 14.1763C5.56615 14.5986 7.89254 14.9907 10.2484 15.4432C10.4251 15.4734 10.5428 15.7449 10.6606 15.9259C10.7195 16.0164 10.6606 16.137 10.6606 16.2577C10.6606 25.3073 10.6606 34.3569 10.6606 43.3764C10.6606 43.5574 10.6312 43.7686 10.6312 44.04C8.15757 44.04 5.68395 44.04 3.15143 44.04C3.15143 34.1156 3.15143 24.2214 3.15143 14.1763Z" fill="white"/>
<path d="M10.599 13.8765C8.18432 13.2731 5.85794 12.7301 3.53156 12.157C3.35487 12.1268 3.14874 11.8251 3.11929 11.6441C3.08984 10.3771 3.08984 9.14032 3.08984 7.81299C5.62236 7.81299 8.06653 7.81299 10.599 7.81299C10.599 9.80398 10.599 11.7648 10.599 13.8765Z" fill="white"/>
</svg>
