<svg width="168" height="59" viewBox="0 0 168 59" fill="none" xmlns="http://www.w3.org/2000/svg">
<path d="M87.9302 0.090332C89.167 0.301488 90.4038 0.512645 91.6406 0.753966C91.9057 0.814297 92.1412 0.904792 92.5241 0.995288C92.1707 1.5081 91.9057 1.93041 91.6112 2.35272C91.6406 2.38289 91.6701 2.44322 91.6995 2.47338C92.0529 2.2019 92.4063 1.87008 92.7891 1.62876C93.0541 1.47793 93.4075 1.26677 93.6431 1.35727C95.6161 2.05107 97.4124 3.10685 99.1204 4.49445C98.1192 5.94238 97.1474 7.32998 96.1756 8.71758C96.2345 8.74774 96.2639 8.80808 96.3228 8.83824C97.5302 7.63163 98.7081 6.45519 99.9449 5.21842C101.771 6.84734 103.184 8.71758 104.215 10.8593C104.333 11.1308 104.156 11.5229 104.127 11.9151C104.244 11.8548 104.392 11.7944 104.539 11.7039C105.835 13.001 104.715 14.0267 104.244 15.1428C104.627 14.7205 104.981 14.2981 105.422 13.8155C106.1 15.6254 106.335 17.4052 106.394 19.2151C106.394 19.4564 106.188 19.7279 106.011 19.939C104.362 22.0808 102.684 24.2225 101.005 26.3944C100.858 26.5754 100.74 26.7564 100.622 26.9072C100.681 26.9675 100.711 26.9977 100.769 27.058C102.595 24.9766 104.392 22.8952 106.217 20.844C106.306 20.8742 106.394 20.8742 106.482 20.9043C106.276 22.2014 106.188 23.5287 105.864 24.7956C104.863 28.5964 103.449 32.2163 101.653 35.7154C101.506 35.9869 101.093 36.2886 100.828 36.2886C98.3842 36.3489 95.9695 36.3187 93.5253 36.3187C93.4369 36.3187 93.3192 36.2886 93.113 36.2584C93.4075 35.7154 93.6725 35.2328 93.9376 34.7501C93.9081 34.72 93.8787 34.6898 93.8492 34.6898C93.7609 34.7803 93.6431 34.8406 93.5842 34.9613C92.848 36.2282 91.7584 36.5601 90.4038 36.3791C89.6382 36.2886 88.8431 36.3489 87.8124 36.3489C88.1952 36.8014 88.4014 37.0729 88.6369 37.3142C90.7866 39.6067 92.9069 41.8691 95.086 44.1315C95.5866 44.6443 95.7339 45.0666 95.2038 45.67C94.7915 46.1526 94.4676 46.7257 94.232 47.3894C94.821 46.7257 95.4394 46.0319 96.0284 45.3683C96.0873 45.4286 96.1462 45.4588 96.2051 45.5191C93.4075 50.0741 90.3744 54.448 87.0468 58.822C85.9277 57.2836 84.8676 55.8658 83.8664 54.3877C83.778 54.2369 83.8664 53.8447 84.0136 53.6637C84.632 52.6984 85.3093 51.7332 85.8688 50.7075C85.0149 51.6125 84.1609 52.4873 83.1891 53.5129C82.3645 52.3063 81.5989 51.2203 80.8627 50.1344C79.6259 48.2943 79.6553 48.2642 80.8332 46.4241C81.2161 45.7906 81.6283 45.1873 81.8639 44.403C80.8627 45.2476 79.8909 46.0923 78.8013 46.9972C77.6234 45.0365 76.5044 43.1662 75.4148 41.2658C75.297 41.0848 75.4148 40.6927 75.5621 40.4514C76.0921 39.5766 76.6811 38.7018 77.2701 37.8572C77.2112 37.7968 77.1523 37.7667 77.0934 37.7063C76.3572 38.5208 75.621 39.3051 74.767 40.2402C73.7658 38.3096 72.9412 36.4997 71.9694 34.8105C71.2038 33.4832 71.1743 32.3671 72.1461 31.1303C72.9118 30.1047 73.4713 28.9283 74.0013 27.7217C72.9412 29.0791 71.8811 30.4365 70.6737 31.9749C70.0553 30.2254 69.4664 28.6869 68.9657 27.0882C68.9069 26.877 69.0835 26.515 69.2308 26.2737C69.7019 25.5196 70.232 24.7956 70.7326 24.0717C70.6737 24.0113 70.6443 23.9812 70.5854 23.9208C69.9375 24.5241 69.2897 25.1576 68.524 25.9117C68.3179 24.8861 68.1118 24.0113 67.994 23.1365C67.9645 22.9254 68.2001 22.6237 68.3473 22.4427C68.9952 21.6585 69.643 20.8742 70.2909 20.12C70.232 20.0597 70.2026 19.9994 70.1437 19.9692C69.4075 20.5423 68.6713 21.1456 67.8173 21.8394C67.7584 20.6328 67.4345 19.6072 68.3179 18.6721C69.113 17.7973 69.7903 16.8019 70.4381 15.7461C69.6136 16.5002 68.8185 17.2543 67.9645 18.0386C67.3756 12.3977 74.5314 2.8052 80.2443 1.65892C78.0946 4.25313 76.0332 6.69651 73.9719 9.17006C74.0013 9.23039 74.0602 9.26055 74.0897 9.32088C74.2958 9.13989 74.502 8.92874 74.6786 8.74775C76.74 6.54569 78.8602 4.40396 80.8627 2.14157C81.7461 1.14611 82.7179 0.663471 83.9547 0.512645C84.6026 0.452314 85.2504 0.271323 85.8688 0.180828C86.5167 0.090332 87.2234 0.090332 87.9302 0.090332ZM80.156 26.3341C80.1854 26.3642 80.2443 26.4246 80.2737 26.4547C80.6566 26.0022 81.1277 25.5799 81.4222 25.0671C82.129 23.8605 83.1007 23.4684 84.4259 23.6192C85.486 23.7398 86.5756 23.6494 87.8124 23.6494C86.3989 25.6704 85.1032 27.5105 83.8369 29.3506C83.8958 29.3807 83.9547 29.4411 84.0136 29.4712C85.0737 28.2043 86.2517 26.9977 87.194 25.6403C88.2836 24.1018 89.5498 23.2572 91.4345 23.6494C91.9646 23.77 92.3474 23.4985 92.6713 23.046C94.556 20.5423 94.5854 16.9527 92.7007 14.3886C90.7866 11.7944 87.459 10.8593 84.4848 12.0961C81.5694 13.3329 79.7731 16.4399 80.2443 19.6675C80.3326 20.2709 80.2148 20.7233 79.8615 21.206C79.4786 21.7188 79.1842 22.2618 78.8308 22.8047C78.8897 22.8349 78.9191 22.8651 78.978 22.8952C79.4492 22.2919 79.9498 21.6886 80.4504 21.0853C80.8627 21.7791 81.1866 22.4126 81.5989 22.9857C81.8639 23.3779 81.8934 23.6494 81.6283 24.0415C81.0983 24.7655 80.6271 25.5498 80.156 26.3341ZM79.6848 31.5828C79.7731 31.6733 79.8615 31.7638 79.9793 31.8543C81.3928 30.1047 82.7768 28.3551 84.1903 26.6055C84.102 26.515 84.0136 26.4547 83.9253 26.3642C82.5118 28.0836 81.0983 29.8332 79.6848 31.5828ZM93.7314 22.8651C93.6725 22.8047 93.6431 22.7746 93.5842 22.7142C92.3179 24.1923 91.0222 25.6704 89.756 27.1485C89.8149 27.2088 89.8737 27.239 89.9032 27.2993C91.6112 26.1832 92.583 24.4638 93.7314 22.8651ZM74.6786 12.0961C76.7694 10.2258 77.7707 9.17006 77.9474 7.81262C76.7694 9.35105 75.7093 10.7085 74.6786 12.0961ZM90.5511 41.8993C90.4627 41.839 90.3744 41.7786 90.286 41.6881C89.3437 43.0154 88.4014 44.3427 87.459 45.67C87.5474 45.7303 87.6652 45.8208 87.7535 45.8811C88.6958 44.5538 89.6087 43.2266 90.5511 41.8993ZM98.4431 16.5605C98.5314 16.6209 98.6198 16.7114 98.7081 16.7717C99.621 15.7159 100.534 14.6601 101.417 13.6345C101.329 13.544 101.241 13.4837 101.152 13.3932C100.269 14.449 99.356 15.5047 98.4431 16.5605ZM93.1719 7.02833C93.2603 7.11882 93.3486 7.20932 93.4369 7.29982C94.2909 6.33453 95.1449 5.39941 95.9989 4.43412C95.9106 4.34363 95.8222 4.2833 95.7633 4.1928C94.8799 5.15809 94.0259 6.09321 93.1719 7.02833ZM84.8676 7.93328C84.9265 8.02378 85.0148 8.08411 85.0737 8.17461C85.8099 7.45064 86.5461 6.75684 87.2823 6.03288C87.2234 5.97255 87.194 5.94238 87.1351 5.88205C86.3989 6.54569 85.6333 7.23948 84.8676 7.93328ZM87.9302 38.551C87.8418 38.4906 87.7535 38.4303 87.6652 38.37C87.2234 39.0034 86.7817 39.6369 86.3106 40.2704C86.3695 40.3307 86.4578 40.391 86.5167 40.4212C86.9879 39.8179 87.459 39.1844 87.9302 38.551Z" fill="#E22D2D"/>
<path d="M0 48.6587C0.323927 48.5984 0.618405 48.4476 0.942332 48.4476C20.643 48.4174 40.3436 48.3872 60.0442 48.3269C63.6663 48.3269 67.259 48.2666 70.8516 48.7794C71.0283 48.8095 71.2639 48.7794 71.4111 48.8699C71.6761 49.1112 71.9117 49.3827 72.1473 49.6542C71.8528 49.7447 71.5583 49.8955 71.2639 49.8955C54.9497 49.7748 38.6356 49.624 22.3215 49.5033C16.9031 49.4732 11.4847 49.5938 6.09571 49.624C4.06381 49.6542 2.00246 49.7748 0.0294479 49.1112C0 48.9905 0 48.8397 0 48.6587Z" fill="#040404"/>
<path d="M168 49.1682C166.174 49.3793 164.319 49.7413 162.493 49.7715C144.912 49.8922 127.332 49.9525 109.752 49.9827C108.161 49.9827 106.571 49.6207 104.981 49.3492C104.628 49.2889 104.304 48.9269 103.98 48.6856C104.009 48.5951 104.039 48.5046 104.068 48.4141C104.392 48.4141 104.687 48.4141 105.011 48.4141C125.683 48.4141 146.355 48.4141 167.028 48.4141C167.352 48.4141 167.676 48.4744 168 48.4744C168 48.7157 168 48.9269 168 49.1682Z" fill="#040404"/>
<path d="M128.07 27.3895C126.774 28.6564 125.478 29.863 124.241 31.1601C123.623 31.7936 123.005 32.0952 122.151 32.0047C121.679 31.9444 121.179 32.0047 120.59 32.0047C120.56 32.3969 120.531 32.6985 120.531 33.0304C120.531 36.4089 120.502 39.8175 120.531 43.196C120.531 43.8295 120.384 44.0708 119.706 44.0708C117.675 44.0105 115.672 44.0708 113.64 44.0407C113.434 44.0407 113.198 44.0105 112.933 43.9803C112.933 31.8539 112.933 19.7878 112.933 7.63124C113.228 7.63124 113.493 7.60107 113.758 7.60107C117.203 7.60107 120.649 7.60107 124.094 7.60107C126.479 7.60107 128.835 7.99322 131.044 9.01884C134.224 10.4969 136.109 13.0308 136.639 16.5601C137.051 19.2448 137.051 21.9296 136.286 24.5539C135.608 26.8766 134.224 28.6564 132.192 29.9233C131.927 30.0742 131.692 30.2552 131.397 30.4361C133.724 34.9308 136.021 39.3952 138.347 43.9803C137.964 44.0105 137.729 44.0407 137.493 44.0407C135.196 44.0407 132.899 44.0407 130.602 44.0708C130.072 44.0708 129.778 43.92 129.542 43.4072C127.952 39.9382 126.362 36.4692 124.742 33.0002C124.536 32.5477 124.536 32.2159 124.86 31.7936C125.979 30.3758 127.039 28.9279 128.129 27.5101C128.158 27.48 128.099 27.4498 128.07 27.3895ZM120.59 25.3382C122.475 25.1874 124.33 25.1874 126.097 24.8857C127.893 24.5841 128.983 23.287 129.159 21.4167C129.277 20.2705 129.248 19.0639 129.13 17.9176C128.953 16.4395 128.099 15.4139 126.715 14.9011C124.742 14.1469 122.681 14.4787 120.619 14.4184C120.59 18.0382 120.59 21.5374 120.59 25.3382Z" fill="#040404"/>
<path d="M162.699 40.992C162.11 40.2982 161.609 39.725 161.079 39.1217C161.021 39.1519 160.991 39.182 160.932 39.2122C161.197 39.725 161.433 40.268 161.757 40.7205C162.228 41.3841 162.022 41.7762 161.403 42.1684C159.931 43.1337 158.311 43.737 156.603 44.0085C152.628 44.6419 148.741 44.4308 145.06 42.5907C141.349 40.7506 139.465 37.1308 139.995 32.9077C140.024 32.7267 140.23 32.4552 140.407 32.425C142.763 32.0631 145.119 31.7614 147.622 31.4296C147.622 31.9424 147.622 32.3647 147.622 32.8172C147.71 35.5321 149.065 37.1308 151.686 37.4023C152.834 37.523 154.071 37.4928 155.16 37.2213C157.663 36.618 158.4 33.7825 156.427 32.0631C155.249 31.0073 153.806 30.2531 152.422 29.499C149.742 28.0813 147.003 26.8445 144.648 24.8536C141.055 21.7466 139.936 16.709 141.938 12.5462C142.616 11.1284 143.735 9.92181 145.148 9.16768C146.061 10.5854 147.003 12.0334 147.916 13.4813C147.946 13.4511 148.005 13.4511 148.034 13.421C147.327 11.9127 146.591 10.3743 145.767 8.62471C147.033 8.26273 148.211 7.84041 149.418 7.62926C152.746 7.05612 156.014 7.32761 159.106 8.83586C162.64 10.5553 164.554 14.3259 163.995 18.4284C161.551 18.7602 159.077 19.092 156.574 19.454C156.456 18.6094 156.397 17.8553 156.191 17.1313C155.484 14.2656 151.627 13.059 149.418 14.9292C148.446 15.7739 148.299 17.3424 149.241 18.4887C149.889 19.273 150.655 19.997 151.509 20.5098C153.394 21.6862 155.367 22.7119 157.31 23.7978C159.224 24.8536 161.021 25.9999 162.581 27.5986C166.203 31.2788 165.408 37.7039 163.2 40.449C163.082 40.5998 162.905 40.7506 162.699 40.992Z" fill="#040404"/>
<path d="M49.092 25.5206C49.1509 25.3698 49.2392 25.219 49.2687 25.0681C51.2711 19.0653 54.746 13.8165 57.4846 8.17562C57.5729 7.99463 57.838 7.75331 58.0147 7.75331C60.665 7.72314 63.3153 7.72314 66.1128 7.72314C65.9067 8.11529 65.7595 8.41694 65.6122 8.68843C62.5496 14.2087 59.4871 19.6987 56.4245 25.1888C56.13 25.7318 56.13 26.1239 56.4245 26.6367C59.5165 32.157 62.5791 37.6772 65.6417 43.1974C65.7594 43.4387 65.9067 43.6801 66.0834 44.042C65.73 44.0722 65.465 44.1024 65.2294 44.1024C62.9914 44.1024 60.7533 44.0722 58.5153 44.1325C57.8969 44.1325 57.6024 43.9214 57.3079 43.3784C55.1288 39.1251 52.8907 34.8718 50.6821 30.6185C50.5349 30.347 50.3877 30.0756 50.0932 29.8342C50.0932 34.54 50.0932 39.2458 50.0932 44.0119C47.5312 44.0119 45.0576 44.0119 42.4956 44.0119C42.4956 42.6846 42.4662 41.3875 42.5251 40.0904C42.5251 39.8793 42.8196 39.6379 43.0257 39.4569C43.7619 38.7933 44.5275 38.19 45.2048 37.4057C44.3509 37.7978 43.4969 38.1598 42.5545 38.5821C42.5545 28.2656 42.5545 18.0698 42.5545 7.81364C45.0282 7.81364 47.5018 7.81364 50.0637 7.81364C50.0637 8.14546 50.0637 8.44711 50.0637 8.74876C50.0637 11.5541 49.9754 14.3595 50.0932 17.1347C50.1815 19.7591 49.7987 22.2628 49.1509 24.7665C49.092 25.0078 49.0331 25.2491 49.0036 25.4904C49.0036 25.4904 49.0331 25.5206 49.092 25.5206Z" fill="#040404"/>
<path d="M15.1055 7.81364C15.3116 7.78348 15.4588 7.72314 15.5766 7.72314C19.876 7.75331 24.146 7.72314 28.4454 7.81364C30.3889 7.84381 32.2736 8.38678 34.0405 9.3219C36.7497 10.7698 38.5165 13.0624 38.8405 16.1091C39.1349 18.8541 39.2233 21.6595 38.9288 24.3743C38.3987 29.0801 35.2184 32.1268 30.4184 32.9412C29.1227 33.1524 27.827 33.2429 26.5018 33.3032C25.265 33.3636 24.0576 33.3032 22.703 33.3032C22.703 36.8929 22.703 40.392 22.703 43.9515C20.1411 43.9515 17.6969 43.9515 15.1644 43.9515C15.1644 34.7512 15.1644 25.5206 15.1644 16.1996C17.638 16.6219 20.0822 17.0442 22.6147 17.4967C22.6441 17.7983 22.6441 18.1 22.6736 18.4016C22.6736 20.845 22.703 23.2884 22.6736 25.7016C22.6736 26.3351 22.8503 26.5462 23.4687 26.5161C24.7644 26.4557 26.0306 26.5462 27.3263 26.4256C30.0061 26.1842 31.449 24.5252 31.5079 21.7801C31.5374 20.9053 31.5079 20.0607 31.5079 19.0954C32.0969 19.1558 32.5975 19.2161 33.0981 19.2764C31.8319 19.2161 31.4785 18.4016 31.1546 17.2553C30.6834 15.4756 29.2404 14.6008 27.503 14.4801C25.9423 14.45 24.3815 14.5706 22.7325 14.5706C22.7325 15.2644 22.7325 15.9582 22.7325 16.7727C21.6134 16.5012 20.6122 16.2599 19.611 16.0487C18.3153 15.7471 16.9901 15.4454 15.6944 15.0835C15.4588 15.0231 15.1349 14.7516 15.1349 14.5706C15.1055 12.3083 15.1055 10.076 15.1055 7.81364Z" fill="#040404"/>
<path d="M3.15143 14.1765C5.56615 14.5988 7.89254 14.991 10.2484 15.4435C10.4251 15.4736 10.5428 15.7451 10.6606 15.9261C10.7195 16.0166 10.6606 16.1373 10.6606 16.2579C10.6606 25.3075 10.6606 34.357 10.6606 43.3764C10.6606 43.5574 10.6312 43.7686 10.6312 44.0401C8.15757 44.0401 5.68395 44.0401 3.15143 44.0401C3.15143 34.1157 3.15143 24.2215 3.15143 14.1765Z" fill="#040404"/>
<path d="M10.599 13.8762C8.18432 13.2729 5.85794 12.7299 3.53156 12.1568C3.35487 12.1266 3.14874 11.825 3.11929 11.644C3.08984 10.377 3.08984 9.14026 3.08984 7.81299C5.62236 7.81299 8.06653 7.81299 10.599 7.81299C10.599 9.80389 10.599 11.7646 10.599 13.8762Z" fill="#040404"/>
</svg>
